<?xml version="1.0" encoding="UTF-8"?>
<svg id="Layer_2" data-name="Layer 2" xmlns="http://www.w3.org/2000/svg" viewBox="0 0 335.5 65.08">
  <defs>
    <style>
      .cls-1 {
        fill: #7d3f98;
      }
    </style>
  </defs>
  <g id="Capa_1" data-name="Capa 1">
    <g>
      <path class="cls-1" d="M152.95,42.66c15.65,0,23.71-4.92,23.71-15.49,0-9.11-6.65-15.21-21.08-15.21-17.44,0-24.43,7.77-26.05,21.75-2.57-.17-5.31-.22-9.11-.22v-2.29c0-14.15-5.87-19.29-21.47-19.29-7.66,0-14.37,1.12-18.45,2.8l.62,11.29c3.58-1.9,8.89-3.75,13.98-3.75,7.16,0,9.34,2.96,9.34,10.01v1.06h-2.46c-17.78,0-26.05,5.37-26.05,15.38s5.14,16.33,19.74,16.33c7.66,0,15.26-1.06,25.05-1.06-.73-4.14-.73-10.06-.73-14.15,0-2.12.11-4.7.22-7.66,4.19.06,7.27.17,9.28.22,1.51,16.55,10.06,22.64,27.95,22.64,6.6,0,13.25-1.12,16.77-2.74l-.62-11.29c-3.47,2.01-8.27,3.63-13.59,3.63-8.78,0-13.53-4.58-13.53-11.8v-.34c1.51.11,4.64.17,6.49.17ZM99.45,55.18c-5.42,0-7.72-1.79-7.72-6.37s2.96-6.88,10.34-6.88c.67,0,1.51,0,2.12.06-.06,4.25-.11,9.17.11,12.58-1.34.39-3.24.61-4.86.61ZM146.36,33.94v-.28c0-7.1,2.24-12.3,8.78-12.3,3.69,0,6.04,1.96,6.04,5.42,0,4.92-3.3,7.21-10.12,7.21-1.68.06-3.41.06-4.7-.06ZM208.75,53.78c-5.26,0-6.77-2.07-6.77-9.67v-19.68h10.34v-10.9h-10.18c0-3.86.28-9.56.62-13.53h-9.56c-1.29,9.56-4.03,14.48-12.75,15.93-.06,2.57.11,6.09,0,8.5h5.81c-.11,5.42-.28,15.32-.28,24.38,0,11.52,5.98,16.21,17.16,16.21,5.48,0,9.45-.78,10.79-1.17l-.67-11.24c-1.01.67-2.91,1.17-4.53,1.17ZM317.83,31.2c0-14.15-5.87-19.29-21.47-19.29-7.66,0-14.37,1.12-18.45,2.8l.61,11.29c3.58-1.9,8.89-3.75,13.98-3.75,7.16,0,9.34,2.96,9.34,10.01v1.06h-2.46c-17.84,0-26.05,5.37-26.05,15.38s5.14,16.33,19.74,16.33c7.66,0,15.26-1.06,25.05-1.06-.73-4.14-.73-10.06-.73-14.15,0-4.58.45-11.07.45-18.62ZM296.86,55.18c-5.42,0-7.72-1.79-7.72-6.37s2.96-6.88,10.34-6.88c.67,0,1.51,0,2.12.06,0,4.25-.11,9.17.11,12.58-1.34.39-3.24.61-4.86.61ZM266.84,40.42c0-4.25.11-9.95.11-9.95,0-12.8-5.59-18.51-21.47-18.51-8.89,0-15.26,1.57-25.16,1.57.56,8.95.56,20.07.56,26.95.06,6.99-.22,19.51-.56,23.54h17.05c-.39-4.03-.73-15.65-.67-23.54,0-4.47.06-9.9.22-17.11,1.68-.56,3.86-1.01,6.21-1.01,5.98,0,7.88,2.8,7.88,10.51,0,0,.11,4.81.11,7.66,0,6.99-.22,19.51-.56,23.54h17.05c-.5-4.19-.84-15.82-.78-23.65ZM55.78,9.67c-1.57-1.57-3.69-2.4-5.76-2.4s-4.19.78-5.76,2.4l-9.39,9.45-9.45-9.45c-1.62-1.62-3.69-2.4-5.76-2.4s-4.14.78-5.76,2.4L2.39,21.13c-3.19,3.19-3.19,8.33,0,11.52l32.43,32.43,32.43-32.43c3.19-3.19,3.19-8.33,0-11.52l-11.46-11.46ZM331.36,14.87c0-1.73-1.06-2.46-3.08-2.46h-3.24v8.44h1.4v-3.63h1.29l2.18,3.63h1.57l-2.35-3.75c1.34-.11,2.24-.73,2.24-2.24ZM326.44,16.1v-2.46h1.68c.84,0,1.84.11,1.84,1.12,0,1.23-.89,1.34-1.96,1.34h-1.57ZM328.01,8.89c-4.03,0-7.55,3.08-7.55,7.66s3.13,7.66,7.55,7.66c4.03,0,7.49-3.02,7.49-7.66-.06-4.64-3.52-7.66-7.49-7.66ZM328.01,22.81c-3.63,0-5.87-2.85-5.87-6.32,0-3.75,2.57-6.32,5.87-6.32s5.81,2.63,5.81,6.32c0,3.75-2.57,6.32-5.81,6.32Z"/>
      <path class="cls-1" d="M152.95,42.66c15.65,0,23.71-4.92,23.71-15.49,0-9.11-6.65-15.21-21.08-15.21-17.44,0-24.43,7.77-26.05,21.75-2.57-.17-5.31-.22-9.11-.22v-2.29c0-14.15-5.87-19.29-21.47-19.29-7.66,0-14.37,1.12-18.45,2.8l.62,11.29c3.58-1.9,8.89-3.75,13.98-3.75,7.16,0,9.34,2.96,9.34,10.01v1.06h-2.46c-17.78,0-26.05,5.37-26.05,15.38s5.14,16.33,19.74,16.33c7.66,0,15.26-1.06,25.05-1.06-.73-4.14-.73-10.06-.73-14.15,0-2.12.11-4.7.22-7.66,4.19.06,7.27.17,9.28.22,1.51,16.55,10.06,22.64,27.95,22.64,6.6,0,13.25-1.12,16.77-2.74l-.62-11.29c-3.47,2.01-8.27,3.63-13.59,3.63-8.78,0-13.53-4.58-13.53-11.8v-.34c1.51.11,4.64.17,6.49.17ZM99.45,55.18c-5.42,0-7.72-1.79-7.72-6.37s2.96-6.88,10.34-6.88c.67,0,1.51,0,2.12.06-.06,4.25-.11,9.17.11,12.58-1.34.39-3.24.61-4.86.61ZM146.36,33.94v-.28c0-7.1,2.24-12.3,8.78-12.3,3.69,0,6.04,1.96,6.04,5.42,0,4.92-3.3,7.21-10.12,7.21-1.68.06-3.41.06-4.7-.06ZM208.75,53.78c-5.26,0-6.77-2.07-6.77-9.67v-19.68h10.34v-10.9h-10.18c0-3.86.28-9.56.62-13.53h-9.56c-1.29,9.56-4.03,14.48-12.75,15.93-.06,2.57.11,6.09,0,8.5h5.81c-.11,5.42-.28,15.32-.28,24.38,0,11.52,5.98,16.21,17.16,16.21,5.48,0,9.45-.78,10.79-1.17l-.67-11.24c-1.01.67-2.91,1.17-4.53,1.17ZM317.83,31.2c0-14.15-5.87-19.29-21.47-19.29-7.66,0-14.37,1.12-18.45,2.8l.61,11.29c3.58-1.9,8.89-3.75,13.98-3.75,7.16,0,9.34,2.96,9.34,10.01v1.06h-2.46c-17.84,0-26.05,5.37-26.05,15.38s5.14,16.33,19.74,16.33c7.66,0,15.26-1.06,25.05-1.06-.73-4.14-.73-10.06-.73-14.15,0-4.58.45-11.07.45-18.62ZM296.86,55.18c-5.42,0-7.72-1.79-7.72-6.37s2.96-6.88,10.34-6.88c.67,0,1.51,0,2.12.06,0,4.25-.11,9.17.11,12.58-1.34.39-3.24.61-4.86.61ZM266.84,40.42c0-4.25.11-9.95.11-9.95,0-12.8-5.59-18.51-21.47-18.51-8.89,0-15.26,1.57-25.16,1.57.56,8.95.56,20.07.56,26.95.06,6.99-.22,19.51-.56,23.54h17.05c-.39-4.03-.73-15.65-.67-23.54,0-4.47.06-9.9.22-17.11,1.68-.56,3.86-1.01,6.21-1.01,5.98,0,7.88,2.8,7.88,10.51,0,0,.11,4.81.11,7.66,0,6.99-.22,19.51-.56,23.54h17.05c-.5-4.19-.84-15.82-.78-23.65ZM55.78,9.67c-1.57-1.57-3.69-2.4-5.76-2.4s-4.19.78-5.76,2.4l-9.39,9.45-9.45-9.45c-1.62-1.62-3.69-2.4-5.76-2.4s-4.14.78-5.76,2.4L2.39,21.13c-3.19,3.19-3.19,8.33,0,11.52l32.43,32.43,32.43-32.43c3.19-3.19,3.19-8.33,0-11.52l-11.46-11.46ZM331.36,14.87c0-1.73-1.06-2.46-3.08-2.46h-3.24v8.44h1.4v-3.63h1.29l2.18,3.63h1.57l-2.35-3.75c1.34-.11,2.24-.73,2.24-2.24ZM326.44,16.1v-2.46h1.68c.84,0,1.84.11,1.84,1.12,0,1.23-.89,1.34-1.96,1.34h-1.57ZM328.01,8.89c-4.03,0-7.55,3.08-7.55,7.66s3.13,7.66,7.55,7.66c4.03,0,7.49-3.02,7.49-7.66-.06-4.64-3.52-7.66-7.49-7.66ZM328.01,22.81c-3.63,0-5.87-2.85-5.87-6.32,0-3.75,2.57-6.32,5.87-6.32s5.81,2.63,5.81,6.32c0,3.75-2.57,6.32-5.81,6.32Z"/>
      <path class="cls-1" d="M152.95,42.66c15.65,0,23.71-4.92,23.71-15.49,0-9.11-6.65-15.21-21.08-15.21-17.44,0-24.43,7.77-26.05,21.75-2.57-.17-5.31-.22-9.11-.22v-2.29c0-14.15-5.87-19.29-21.47-19.29-7.66,0-14.37,1.12-18.45,2.8l.62,11.29c3.58-1.9,8.89-3.75,13.98-3.75,7.16,0,9.34,2.96,9.34,10.01v1.06h-2.46c-17.78,0-26.05,5.37-26.05,15.38s5.14,16.33,19.74,16.33c7.66,0,15.26-1.06,25.05-1.06-.73-4.14-.73-10.06-.73-14.15,0-2.12.11-4.7.22-7.66,4.19.06,7.27.17,9.28.22,1.51,16.55,10.06,22.64,27.95,22.64,6.6,0,13.25-1.12,16.77-2.74l-.62-11.29c-3.47,2.01-8.27,3.63-13.59,3.63-8.78,0-13.53-4.58-13.53-11.8v-.34c1.51.11,4.64.17,6.49.17ZM99.45,55.18c-5.42,0-7.72-1.79-7.72-6.37s2.96-6.88,10.34-6.88c.67,0,1.51,0,2.12.06-.06,4.25-.11,9.17.11,12.58-1.34.39-3.24.61-4.86.61ZM146.36,33.94v-.28c0-7.1,2.24-12.3,8.78-12.3,3.69,0,6.04,1.96,6.04,5.42,0,4.92-3.3,7.21-10.12,7.21-1.68.06-3.41.06-4.7-.06ZM208.75,53.78c-5.26,0-6.77-2.07-6.77-9.67v-19.68h10.34v-10.9h-10.18c0-3.86.28-9.56.62-13.53h-9.56c-1.29,9.56-4.03,14.48-12.75,15.93-.06,2.57.11,6.09,0,8.5h5.81c-.11,5.42-.28,15.32-.28,24.38,0,11.52,5.98,16.21,17.16,16.21,5.48,0,9.45-.78,10.79-1.17l-.67-11.24c-1.01.67-2.91,1.17-4.53,1.17ZM317.83,31.2c0-14.15-5.87-19.29-21.47-19.29-7.66,0-14.37,1.12-18.45,2.8l.61,11.29c3.58-1.9,8.89-3.75,13.98-3.75,7.16,0,9.34,2.96,9.34,10.01v1.06h-2.46c-17.84,0-26.05,5.37-26.05,15.38s5.14,16.33,19.74,16.33c7.66,0,15.26-1.06,25.05-1.06-.73-4.14-.73-10.06-.73-14.15,0-4.58.45-11.07.45-18.62ZM296.86,55.18c-5.42,0-7.72-1.79-7.72-6.37s2.96-6.88,10.34-6.88c.67,0,1.51,0,2.12.06,0,4.25-.11,9.17.11,12.58-1.34.39-3.24.61-4.86.61ZM266.84,40.42c0-4.25.11-9.95.11-9.95,0-12.8-5.59-18.51-21.47-18.51-8.89,0-15.26,1.57-25.16,1.57.56,8.95.56,20.07.56,26.95.06,6.99-.22,19.51-.56,23.54h17.05c-.39-4.03-.73-15.65-.67-23.54,0-4.47.06-9.9.22-17.11,1.68-.56,3.86-1.01,6.21-1.01,5.98,0,7.88,2.8,7.88,10.51,0,0,.11,4.81.11,7.66,0,6.99-.22,19.51-.56,23.54h17.05c-.5-4.19-.84-15.82-.78-23.65ZM55.78,9.67c-1.57-1.57-3.69-2.4-5.76-2.4s-4.19.78-5.76,2.4l-9.39,9.45-9.45-9.45c-1.62-1.62-3.69-2.4-5.76-2.4s-4.14.78-5.76,2.4L2.39,21.13c-3.19,3.19-3.19,8.33,0,11.52l32.43,32.43,32.43-32.43c3.19-3.19,3.19-8.33,0-11.52l-11.46-11.46ZM331.36,14.87c0-1.73-1.06-2.46-3.08-2.46h-3.24v8.44h1.4v-3.63h1.29l2.18,3.63h1.57l-2.35-3.75c1.34-.11,2.24-.73,2.24-2.24ZM326.44,16.1v-2.46h1.68c.84,0,1.84.11,1.84,1.12,0,1.23-.89,1.34-1.96,1.34h-1.57ZM328.01,8.89c-4.03,0-7.55,3.08-7.55,7.66s3.13,7.66,7.55,7.66c4.03,0,7.49-3.02,7.49-7.66-.06-4.64-3.52-7.66-7.49-7.66ZM328.01,22.81c-3.63,0-5.87-2.85-5.87-6.32,0-3.75,2.57-6.32,5.87-6.32s5.81,2.63,5.81,6.32c0,3.75-2.57,6.32-5.81,6.32Z"/>
      <path class="cls-1" d="M152.95,42.66c15.65,0,23.71-4.92,23.71-15.49,0-9.11-6.65-15.21-21.08-15.21-17.44,0-24.43,7.77-26.05,21.75-2.57-.17-5.31-.22-9.11-.22v-2.29c0-14.15-5.87-19.29-21.47-19.29-7.66,0-14.37,1.12-18.45,2.8l.62,11.29c3.58-1.9,8.89-3.75,13.98-3.75,7.16,0,9.34,2.96,9.34,10.01v1.06h-2.46c-17.78,0-26.05,5.37-26.05,15.38s5.14,16.33,19.74,16.33c7.66,0,15.26-1.06,25.05-1.06-.73-4.14-.73-10.06-.73-14.15,0-2.12.11-4.7.22-7.66,4.19.06,7.27.17,9.28.22,1.51,16.55,10.06,22.64,27.95,22.64,6.6,0,13.25-1.12,16.77-2.74l-.62-11.29c-3.47,2.01-8.27,3.63-13.59,3.63-8.78,0-13.53-4.58-13.53-11.8v-.34c1.51.11,4.64.17,6.49.17ZM99.45,55.18c-5.42,0-7.72-1.79-7.72-6.37s2.96-6.88,10.34-6.88c.67,0,1.51,0,2.12.06-.06,4.25-.11,9.17.11,12.58-1.34.39-3.24.61-4.86.61ZM146.36,33.94v-.28c0-7.1,2.24-12.3,8.78-12.3,3.69,0,6.04,1.96,6.04,5.42,0,4.92-3.3,7.21-10.12,7.21-1.68.06-3.41.06-4.7-.06ZM208.75,53.78c-5.26,0-6.77-2.07-6.77-9.67v-19.68h10.34v-10.9h-10.18c0-3.86.28-9.56.62-13.53h-9.56c-1.29,9.56-4.03,14.48-12.75,15.93-.06,2.57.11,6.09,0,8.5h5.81c-.11,5.42-.28,15.32-.28,24.38,0,11.52,5.98,16.21,17.16,16.21,5.48,0,9.45-.78,10.79-1.17l-.67-11.24c-1.01.67-2.91,1.17-4.53,1.17ZM317.83,31.2c0-14.15-5.87-19.29-21.47-19.29-7.66,0-14.37,1.12-18.45,2.8l.61,11.29c3.58-1.9,8.89-3.75,13.98-3.75,7.16,0,9.34,2.96,9.34,10.01v1.06h-2.46c-17.84,0-26.05,5.37-26.05,15.38s5.14,16.33,19.74,16.33c7.66,0,15.26-1.06,25.05-1.06-.73-4.14-.73-10.06-.73-14.15,0-4.58.45-11.07.45-18.62ZM296.86,55.18c-5.42,0-7.72-1.79-7.72-6.37s2.96-6.88,10.34-6.88c.67,0,1.51,0,2.12.06,0,4.25-.11,9.17.11,12.58-1.34.39-3.24.61-4.86.61ZM266.84,40.42c0-4.25.11-9.95.11-9.95,0-12.8-5.59-18.51-21.47-18.51-8.89,0-15.26,1.57-25.16,1.57.56,8.95.56,20.07.56,26.95.06,6.99-.22,19.51-.56,23.54h17.05c-.39-4.03-.73-15.65-.67-23.54,0-4.47.06-9.9.22-17.11,1.68-.56,3.86-1.01,6.21-1.01,5.98,0,7.88,2.8,7.88,10.51,0,0,.11,4.81.11,7.66,0,6.99-.22,19.51-.56,23.54h17.05c-.5-4.19-.84-15.82-.78-23.65ZM55.78,9.67c-1.57-1.57-3.69-2.4-5.76-2.4s-4.19.78-5.76,2.4l-9.39,9.45-9.45-9.45c-1.62-1.62-3.69-2.4-5.76-2.4s-4.14.78-5.76,2.4L2.39,21.13c-3.19,3.19-3.19,8.33,0,11.52l32.43,32.43,32.43-32.43c3.19-3.19,3.19-8.33,0-11.52l-11.46-11.46ZM331.36,14.87c0-1.73-1.06-2.46-3.08-2.46h-3.24v8.44h1.4v-3.63h1.29l2.18,3.63h1.57l-2.35-3.75c1.34-.11,2.24-.73,2.24-2.24ZM326.44,16.1v-2.46h1.68c.84,0,1.84.11,1.84,1.12,0,1.23-.89,1.34-1.96,1.34h-1.57ZM328.01,8.89c-4.03,0-7.55,3.08-7.55,7.66s3.13,7.66,7.55,7.66c4.03,0,7.49-3.02,7.49-7.66-.06-4.64-3.52-7.66-7.49-7.66ZM328.01,22.81c-3.63,0-5.87-2.85-5.87-6.32,0-3.75,2.57-6.32,5.87-6.32s5.81,2.63,5.81,6.32c0,3.75-2.57,6.32-5.81,6.32Z"/>
    </g>
  </g>
</svg>