<?xml version="1.0" encoding="UTF-8"?>
<svg id="Layer_2" data-name="Layer 2" xmlns="http://www.w3.org/2000/svg" viewBox="0 0 454.91 68.76">
  <defs>
    <style>
      .cls-1 {
        fill: #1355e9;
      }

      .cls-2 {
        fill: #fff;
      }
    </style>
  </defs>
  <g id="Capa_1" data-name="Capa 1">
    <g>
      <path class="cls-1" d="M314.55,63.95c0,2.08-1.52,3.66-3.6,3.66s-3.63-1.65-3.63-3.66,1.59-3.71,3.63-3.71,3.6,1.68,3.6,3.71ZM308.02,63.95c0,1.65,1.26,3.03,2.93,3.03s2.93-1.31,2.93-3.03-1.28-3.06-2.93-3.06-2.93,1.38-2.93,3.06ZM309.55,61.95h1.48c.58,0,1.47.17,1.47,1.14,0,.74-.55,1.01-1.06,1.07l1.3,1.72h-.85l-1.23-1.68h-.39v1.68h-.73v-3.93h0ZM310.28,62.57v1.06h.73c.39,0,.74-.07.74-.54s-.36-.52-.74-.52h-.73ZM385.33,63.95c0,2.08-1.52,3.66-3.6,3.66s-3.63-1.65-3.63-3.66,1.59-3.71,3.63-3.71,3.6,1.68,3.6,3.71ZM378.8,63.95c0,1.65,1.26,3.03,2.93,3.03s2.93-1.31,2.93-3.03-1.28-3.06-2.93-3.06-2.93,1.38-2.93,3.06ZM380.33,61.95h1.48c.58,0,1.47.17,1.47,1.14,0,.74-.55,1.01-1.06,1.07l1.3,1.72h-.85l-1.23-1.68h-.39v1.68h-.73v-3.93h0ZM381.06,62.57v1.06h.73c.39,0,.74-.07.74-.54s-.36-.52-.74-.52h-.73ZM448.38,63.95c0,2.08-1.52,3.66-3.6,3.66s-3.63-1.65-3.63-3.66,1.59-3.71,3.63-3.71,3.6,1.68,3.6,3.71ZM441.85,63.95c0,1.65,1.26,3.03,2.93,3.03s2.93-1.31,2.93-3.03-1.28-3.06-2.93-3.06-2.93,1.38-2.93,3.06ZM443.38,61.95h1.48c.58,0,1.47.17,1.47,1.14,0,.74-.55,1.01-1.06,1.07l1.3,1.72h-.85l-1.23-1.68h-.39v1.68h-.73v-3.93h0ZM444.11,62.57v1.06h.73c.39,0,.74-.07.74-.54s-.36-.52-.74-.52h-.73Z"/>
      <g>
        <g>
          <path class="cls-1" d="M454.91,19.39c0,21.79-12.27,36.39-15.29,39.59-3.02,3.2-9.01,8.14-11.33,8.64-2.32-.5-8.31-5.44-11.33-8.64-3.02-3.2-15.29-17.79-15.29-39.59,0-8.19,1.53-14.85,4.15-19.39,6.52,3.45,13.01,5.2,22.47,5.2s15.95-1.75,22.47-5.2c2.61,4.53,4.15,11.2,4.15,19.39Z"/>
          <path class="cls-2" d="M450.13,19.19c0-4.2-.66-10.3-2.12-12.5l-.24.14c-3.97,2.1-11.36,3.93-19.48,3.93s-15.76-1.97-19.73-4.07c-1.46,2.2-2.12,8.3-2.12,12.5,0,19.66,10.25,32.28,11.65,33.98,1.89,2.3,8.92,8.61,10.2,8.91,1.26-.3,8.3-6.61,10.2-8.91,1.39-1.7,11.64-14.32,11.64-33.98h0ZM446.8,9.9c1.31,1.98,1.58,7.08,1.47,10.85-.57,19.49-9.52,29.05-10.79,30.59-1.7,2.07-8.04,7.99-9.19,8.29-1.15-.3-7.49-6.22-9.2-8.29-1.26-1.54-10.21-11.09-10.78-30.58-.11-3.78.15-8.88,1.46-10.85,3.59,1.89,11.2,2.97,18.51,2.97s14.92-1.07,18.5-2.97h0ZM426.74,52.11l-.04-1.85c-.85.33-1.53,1.6-1.52,2.64,0,.2.06,1.01.44,1.21.14.07.25,0,.32-.1.28-.43.22-1.4.81-1.9h0ZM428.75,48.4c-.17-.22-.54-.56-1.11-.72-.36-.11-.36-.08-.68-.2.07,1.74.16,3.85.18,5.08.03,1.21.07,2.71.07,2.99.7.48,1.59.08,1.59.08.02-.2.17-2.1.21-4.15,0-.84.1-2.72-.26-3.08h0ZM429.76,45.42c-.32-.13-1.15-.45-1.55-.61-.51-.21-1.39-.66-1.75-.79-.33-.11-.88-.19-.17-.57-.02-.53-.09-.89-.11-1.29,0-.32-.06-.71-.09-1.1-2.91.02-4.08,4.48.66,5.66.69.17.91.24,1.19.39.52.28.73.44.97.67.3.28.48.66.48,1.17v2.27c2.72-1.42,2.99-4.64.35-5.79ZM429.15,41.8c0-.37.05-.87.07-1.24,0-.18-.03-.76-.02-.9-.47-.13-.48,0-1.43-.09-.51-.06-.74-.12-1.17-.14-.02.35.02,1.32.04,1.62l.06,1.02v.8c0,.09.02.54.02.64.34.18.64.47,1.19.69.39.14.89.39,1.26.44,0-.35-.02-1.1,0-1.46,0-.69-.04-.66-.02-1.36h0ZM429.82,36.03c-.73-.16-1.11-.24-1.33-.27-1.26-.16-1.65-.13-2.7-.2l-.66-1.51-.74-1.81c-2.45.95-2.72,5.77,1.07,6.49,1.63.32,2.12.28,2.62.34.95.1,1.98,0,2.26.41.51.72-.19.86-.52,1.24-.11.28-.11.4-.13.8-.06.63-.08,1.26-.09,1.85,4.08-.41,5.29-6.25.22-7.33h0ZM425.37,33.2l.83,1.87,2.97.28v-5.73l-3.38-.26-1.21,1.93.79,1.91h0ZM430.24,25.99c-.28-.06-.54-.17-.84-.24-.69-.17-1.46-.31-2.31-.4-.83-.06-1.6-.28-2.22-.41-4.5-.91-3.9-2.85-3.63-3.76.76.28,1.46.45,2.22.54.88.11,1.83.14,2.66-.23-.74-.64-2.54-.93-3.09-1.43,0,0,.98-.13,2.62.06.82.09,1.86-.38,1.86-.38-.61-1.46-2.54-2.81-6.1-2.22-4.91.81-6.4,9.91,3.7,11.22.59.08,1.75.16,2.42.23,1.05.09,1.54.09,2.16.21.43.08,1.57,1.73,0,1.9,0,0-.26,1.76.19,3.66,4.72.07,6.7-7.21.36-8.75h0ZM432.87,18.27c-.52.35-2.1,1.77-2.72,2.06-.32.17-.25-2.92-.25-2.92.02-.25-.79-.78-1.66-1.13-.1-.06-.24-.22-.5-.34-1.34-.43-2.08-.72-2.04.57,0,.2-.09.46.15.86,0,0,1.3.63,1.86,1.72.34.65.43,1.04.43,1.04,0,0-.28.24-1.11.35.63.2,1.17.46,1.67.56l.47.51c-.37.04-1.37-.09-2.46-.45l.17.5c-.43.35-.63.45-1.37.53-.04.84.02,1.75.14,2.51l3.66.61c.29-.17.62-.82.66-.86.66-.69,1.9-2,4.51-4.53.99-.96-.57-2.29-1.61-1.58h0ZM424.38,18.64c-.55-.34-.9-.4-.9-.4,0,0,1.11-.39,2.08.13,0,0-.15.46-.47.5-.3.04-.5-.1-.7-.23h0Z"/>
        </g>
        <g>
          <polygon class="cls-1" points="392.61 48.89 373.85 48.89 373.86 67.62 344 67.62 344 48.89 325.23 48.89 325.23 19.04 344 19.04 344 .32 373.85 .32 373.85 19.04 392.61 19.04 392.61 48.89"/>
          <path class="cls-2" d="M342.23,26.15h12.42c1.23,0,2.22-.35,2.8-.95.73-.75.79-1.88-.22-3.11-1.79-2.19-.24-4.29,1.64-4.22,1.88.08,3.44,2.03,1.65,4.22-1.02,1.24-.96,2.36-.22,3.11.57.59,1.56.95,2.8.95h12.74c-1.34-2.9-1.76-3.67-4.07-5.66-3.06-2.64-8.75-5.07-12.75-5.07-5.11,0-9.73,2.07-13.08,5.41-1.53,1.53-2.79,3.33-3.71,5.31h0ZM347.44,48.27c1.18-2.22,6.36-11.84,7.98-14.86,1.79-3.36-.17-4.76-2.81-4.92-2.47-.14-6.49-.8-11-.91-.7,1.95-1.09,4.09-1.09,6.29,0,5.82,2.7,11.01,6.93,14.4ZM369.28,49.23s-8.32-12-8.77-12.78c-.47-.77-.87-1.25-1.65-1.25s-1.18.47-1.64,1.25c-.41.69-7.11,10.39-8.66,12.65,2.98,2.05,6.58,3.23,10.46,3.23s7.34-1.14,10.27-3.1ZM377.51,33.88c0-2.22-.39-4.35-1.11-6.32-4.63.08-8.77.79-11.29.94-2.66.16-4.61,1.57-2.83,4.92,1.81,3.35,7.82,14.58,8.06,15.05,4.36-3.38,7.16-8.65,7.16-14.58h0Z"/>
          <path class="cls-1" d="M355.18,23.74h-8.52c1.88-2.5,4.61-4.37,7.5-5-.94,3.27,1.02,3.51,1.02,5ZM371.06,23.74c-2.15-2.14-4.61-4.37-7.51-5,.94,3.28-1.02,3.51-1.02,5h8.53ZM358.86,38.71c-.54,0-6.64,9.61-6.64,9.61,1.79.93,4.07,1.4,6.64,1.4s4.85-.46,6.65-1.4c0,0-6.1-9.61-6.65-9.61ZM365.35,30.99c-.69.08-1.33.15-.69,1.32.62,1.17,6.33,11.93,6.33,11.93,2.81-3.51,4.61-7.88,3.52-13.96,0,0-8.6.7-9.15.7h0ZM352.37,30.99c-.54,0-9.15-.7-9.15-.7-1.1,6.08.7,10.46,3.51,13.96,0,0,5.71-10.76,6.34-11.93.62-1.17,0-1.25-.71-1.32h0Z"/>
        </g>
      </g>
      <path class="cls-1" d="M41.28,54.91h-24.75l-4.95,12.69H0L22.71,11.09h12.99l22.81,56.53h-12.29l-4.95-12.69h0ZM37.57,45.13l-8.66-22.31-8.66,22.31h17.33ZM62.91,25.37h10.78v6c2.21-4.5,6.45-7.15,12.02-7.15,9.72,0,16,6.79,16,17.82v25.58h-10.78v-23.99c0-5.74-3.27-9.35-8.58-9.35s-8.66,3.62-8.66,9.35v23.99h-10.78V25.37h0ZM105.69,25.37h7.42v-10.94h10.96v10.94h11.32v9.52h-11.32v17.99c0,3.96,1.6,5.82,4.77,5.82,2.03,0,3.98-.88,5.04-2.11l4.78,8.02c-2.3,2.29-6.28,4.14-11.49,4.14-8.57,0-14.05-5.29-14.05-15.61v-18.26h-7.42v-9.52h0ZM143.92,6.94h10.78v24.43c2.21-4.5,6.45-7.15,12.02-7.15,9.72,0,16,6.79,16,17.82v25.58h-10.78v-23.99c0-5.74-3.27-9.35-8.58-9.35s-8.66,3.62-8.66,9.35v23.99h-10.78V6.94h0ZM188.57,46.45c0-12.26,9.11-22.22,21.3-22.22s21.39,9.26,21.39,21.43c0,1.41-.09,3.09-.27,3.79h-31.38c1.15,5.82,5.57,9.87,12.02,9.87,4.33,0,7.95-1.85,10.43-4.4l5.57,7.41c-3.27,3.62-9.28,6.44-16.35,6.44-13.17,0-22.71-9.97-22.71-22.31h0ZM199.88,41.95h20.24c-1.33-5.64-5.13-8.64-10.08-8.64s-8.84,3.53-10.16,8.64h0ZM237.28,67.61V25.37h10.78v6.44c2.21-4.59,6.37-7.59,11.93-7.59,6.45,0,11.4,3.18,13.88,8.82,2.21-5.03,6.28-8.82,12.99-8.82,9.81,0,16.26,6.52,16.26,17.82v25.58h-10.88v-23.99c0-5.74-3.18-9.35-8.31-9.35s-8.4,3.62-8.4,9.35v23.99h-10.78v-23.99c0-5.74-3.18-9.35-8.31-9.35s-8.4,3.62-8.4,9.35v23.99h-10.78Z"/>
    </g>
  </g>
</svg>