<?xml version="1.0" encoding="UTF-8"?>
<svg id="Layer_2" data-name="Layer 2" xmlns="http://www.w3.org/2000/svg" viewBox="0 0 611.26 117.32">
  <defs>
    <style>
      .cls-1 {
        fill: #f9f9f9;
      }

      .cls-2 {
        fill: #00a3e0;
      }
    </style>
  </defs>
  <g id="Capa_1" data-name="Capa 1">
    <g id="BCBS_Logo" data-name="BCBS Logo">
      <g id="Group">
        <g id="Group_2" data-name="Group 2">
          <path id="Vector" d="M263.32,49.91V1.01h18.36c8.74-.54,17.68,3.12,17.68,12.67,0,5.35-3.73,9.08-8.6,10.7v.14c6.17,1.29,10.77,5.56,10.77,12.74,0,9.69-12.19,13.21-19.7,12.67h-18.5ZM282.02,20.64c4.41,0,6.84-1.83,6.84-5.76s-2.44-5.76-6.84-5.76h-8.2v11.53h8.2ZM282.02,41.78c4.95,0,8.33-.88,8.33-6.5s-3.39-6.5-8.33-6.5h-8.2v13.01h8.2Z"/>
          <path id="Vector_2" data-name="Vector 2" d="M318.39,1.01v48.9h-10.16V1.01h10.16Z"/>
          <path id="Vector_3" data-name="Vector 3" d="M349.29,45.7c-2.17,3.12-5.35,5.22-10.5,5.22-3.39,0-9.96-2.57-11.18-7.52-.54-2.1-.68-4.27-.68-5.42V15.9h10.17v20.4c.05,3.66,1.08,7.86,6.1,7.86,3.18,0,5.96-2.91,6.1-7.86V15.9h10.16v27.92c.07,2.03.2,4.07.41,6.1h-10.17l-.41-4.2h0Z"/>
          <path id="Vector_4" data-name="Vector 4" d="M377.46,35.62c0,4.4.61,8.54,5.83,8.54,3.52,0,5.28-1.29,6.23-4.4h9.15c-.88,8.4-7.46,11.18-15.38,11.18-11.65,0-16.33-6.57-16.33-17.96,0-10.23,5.96-18.09,16.33-18.09,6.37,0,11.65,2.17,14.5,8.13.95,1.9,1.42,3.93,1.69,6.1.27,2.1.27,4.27.27,6.5h-22.29ZM389.25,28.85c0-3.73-1.01-7.18-5.96-7.18-4.67,0-5.69,3.46-5.83,7.18h11.79Z"/>
          <path id="Vector_5" data-name="Vector 5" d="M433.95,16.85c.07-5.15-3.05-9.28-9.35-9.28-7.45,0-9.35,11.04-9.35,17.89s1.9,17.89,9.35,17.89c6.3,0,9.42-4.13,9.35-9.28h11.18c-.47,12.26-9.28,16.87-20.53,16.87-14.16,0-20.52-11.18-20.52-25.46s6.37-25.48,20.52-25.48c11.25,0,20.06,4.61,20.53,16.87h-11.18Z"/>
          <path id="Vector_6" data-name="Vector 6" d="M459.85,15.9l.2,6.17h.14c2.17-5.35,6.51-6.71,11.59-6.57v9.01h-4.4c-1.71.14-3.93,1.08-4.95,2.51-1.09,1.9-1.29,3.79-1.36,6.03v16.87h-10.1l-.07-27.24c0-1.42-.2-4.27-.34-6.78h9.29Z"/>
          <path id="Vector_7" data-name="Vector 7" d="M494.04,50.92c-11.11,0-17.75-7.32-17.75-18.02s6.64-18.02,17.75-18.02,17.75,7.32,17.75,18.02-6.64,18.02-17.75,18.02ZM494.04,44.14c6.23,0,7.25-5.83,7.25-11.25s-1.01-11.25-7.25-11.25-7.25,5.83-7.25,11.25,1.02,11.25,7.25,11.25Z"/>
          <path id="Vector_8" data-name="Vector 8" d="M536.25,24.98c-.14-2.3-2.3-3.32-4.61-3.32-2.78,0-4.06.81-4.06,3.05,0,5.35,19.43,2.3,19.43,15.04,0,7.45-9.08,11.18-15.38,11.18-7.93,0-14.84-3.12-14.97-10.91h9.42c.2,2.64,2.57,4.13,5.56,4.13,2.78,0,4.88-1.15,4.88-3.79s-4.88-3.86-6.91-4.34c-6.5-1.56-12.53-2.98-12.53-10.91,0-7.11,8.61-10.23,14.57-10.23,7.18,0,13.28,2.57,13.75,10.1h-9.16Z"/>
          <path id="Vector_9" data-name="Vector 9" d="M570.11,24.98c-.13-2.3-2.3-3.32-4.61-3.32-2.78,0-4.06.81-4.06,3.05,0,5.35,19.43,2.3,19.43,15.04,0,7.45-9.08,11.18-15.38,11.18-7.93,0-14.84-3.12-14.97-10.91h9.42c.2,2.64,2.58,4.13,5.56,4.13,2.78,0,4.88-1.15,4.88-3.79s-4.88-3.86-6.91-4.34c-6.51-1.56-12.53-2.98-12.53-10.91,0-7.11,8.6-10.23,14.57-10.23,7.18,0,13.28,2.57,13.75,10.1h-9.17Z"/>
          <path id="Vector_10" data-name="Vector 10" d="M263.32,116.3v-48.91h18.36c8.74-.54,17.68,3.12,17.68,12.67,0,5.35-3.73,9.08-8.6,10.7v.13c6.17,1.29,10.77,5.56,10.77,12.74,0,9.69-12.19,13.21-19.7,12.67h-18.5ZM282.02,87.03c4.41,0,6.84-1.83,6.84-5.76s-2.44-5.76-6.84-5.76h-8.2v11.52h8.2ZM282.02,108.17c4.95,0,8.33-.88,8.33-6.51s-3.39-6.5-8.33-6.5h-8.2v13.01h8.2Z"/>
          <path id="Vector_11" data-name="Vector 11" d="M318.39,67.38v48.91h-10.16v-48.91h10.16Z"/>
          <path id="Vector_12" data-name="Vector 12" d="M349.29,112.08c-2.17,3.12-5.35,5.22-10.5,5.22-3.39,0-9.96-2.57-11.18-7.52-.54-2.1-.68-4.27-.68-5.42v-22.09h10.17v20.4c.05,3.66,1.08,7.86,6.1,7.86,3.18,0,5.96-2.91,6.1-7.86v-20.4h10.16v27.9c.07,2.03.2,4.07.41,6.1h-10.17l-.41-4.2Z"/>
          <path id="Vector_13" data-name="Vector 13" d="M377.46,101.99c0,4.41.61,8.54,5.83,8.54,3.52,0,5.28-1.29,6.23-4.4h9.15c-.88,8.4-7.46,11.18-15.38,11.18-11.65,0-16.33-6.57-16.33-17.95,0-10.23,5.96-18.09,16.33-18.09,6.37,0,11.65,2.17,14.5,8.13.95,1.9,1.42,3.93,1.69,6.1.27,2.1.27,4.27.27,6.5h-22.29ZM389.25,95.23c0-3.73-1.01-7.18-5.96-7.18-4.67,0-5.69,3.46-5.83,7.18h11.79Z"/>
          <path id="Vector_14" data-name="Vector 14" d="M432.53,81.33c-.41-4.95-3.05-7.39-8.13-7.39-3.86,0-7.79,2.03-7.79,6.3,0,5.29,4.74,5.89,8.94,6.91,7.45,1.9,18.43,4,18.43,13.82,0,12.13-10.57,16.33-21.07,16.33-11.18,0-19.09-4.33-18.77-16.67h10.71c-.41,5.42,2.71,9.08,8.2,9.08,4.2,0,9.76-1.29,9.76-6.51,0-5.76-6.98-6.16-11.18-7.25-6.84-1.69-16.19-4.81-16.19-13.48,0-11.18,10.3-16.13,20.33-16.13,9.49,0,16.87,5.15,16.87,14.97h-10.1v.03Z"/>
          <path id="Vector_15" data-name="Vector 15" d="M451.43,116.3v-48.91h10.09v18.9l.14.14c2.1-3.12,5.29-5.15,10.43-5.15,3.39,0,9.96,2.51,11.18,7.45.54,2.1.68,4.27.68,5.42v22.16h-10.16v-20.46c-.07-3.66-1.08-7.79-6.1-7.79-3.18,0-5.96,2.85-6.1,7.79v20.46h-10.16Z"/>
          <path id="Vector_16" data-name="Vector 16" d="M503.19,67.38v8.74h-10.84v-8.74h10.84ZM502.85,82.28v34h-10.16v-34h10.16Z"/>
          <path id="Vector_17" data-name="Vector 17" d="M520.53,101.99c0,4.41.61,8.54,5.83,8.54,3.52,0,5.28-1.29,6.23-4.4h9.15c-.88,8.4-7.45,11.18-15.38,11.18-11.65,0-16.33-6.57-16.33-17.95,0-10.23,5.96-18.09,16.33-18.09,6.37,0,11.65,2.17,14.5,8.13.95,1.9,1.42,3.93,1.7,6.1.27,2.1.27,4.27.27,6.5h-22.3ZM532.32,95.23c0-3.73-1.01-7.18-5.96-7.18-4.66,0-5.69,3.46-5.83,7.18h11.79Z"/>
          <path id="Vector_18" data-name="Vector 18" d="M559.35,67.38v48.91h-10.16v-48.91h10.16Z"/>
          <path id="Vector_19" data-name="Vector 19" d="M591.52,67.38h10.16v42.13c0,2.24.2,4.54.34,6.78h-10.17c-.14-1.63-.27-3.19-.27-4.81h-.14c-2.24,4-6.03,5.83-10.43,5.83-9.96,0-14.62-9.28-14.62-18.02s5.35-18.02,15.91-18.02c3.52,0,7.18,2.1,9.08,4.95h.14v-18.85ZM584.2,110.54c5.49,0,7.32-6.57,7.32-11.25s-1.83-11.25-7.32-11.25c-6.5,0-7.32,6.03-7.32,11.25s.81,11.25,7.32,11.25Z"/>
        </g>
        <g id="Group_3" data-name="Group 3">
          <path id="Vector_20" data-name="Vector 20" class="cls-2" d="M109.07,115.7c-3.15,0-5.43-2.26-5.43-5.42s2.27-5.39,5.43-5.39,5.39,2.27,5.39,5.39-2.26,5.42-5.39,5.42ZM109.07,103.86c-3.56,0-6.45,2.89-6.45,6.43s2.89,6.45,6.45,6.45,6.43-2.89,6.43-6.45-2.88-6.43-6.43-6.43Z"/>
          <path id="Vector_21" data-name="Vector 21" class="cls-2" d="M108.91,109.8h-1.31v-2.37h2.03c.88,0,1.74.13,1.74,1.16,0,1.39-1.45,1.22-2.47,1.22M112.4,108.62c0-1.33-.65-2.04-2.57-2.04h-3.18v7.35h.94v-3.26h1.57l2.07,3.26h1.06l-2.18-3.26c1.28-.11,2.27-.65,2.27-2.06"/>
          <path id="Vector_22" data-name="Vector 22" class="cls-2" d="M83.36,32.67V.54h-51.21v32.13H0v51.4h32.15v32.13h51.21v-32.13h32.15v-51.4h-32.15Z"/>
        </g>
        <g id="Group_4" data-name="Group 4">
          <path id="Vector_23" data-name="Vector 23" class="cls-2" d="M219.37,115.75c-3.09,0-5.32-2.21-5.32-5.32s2.24-5.29,5.32-5.29,5.28,2.21,5.28,5.29-2.21,5.32-5.28,5.32ZM219.37,104.13c-3.49,0-6.33,2.82-6.33,6.3s2.84,6.33,6.33,6.33,6.3-2.84,6.3-6.33-2.82-6.3-6.3-6.3Z"/>
          <path id="Vector_24" data-name="Vector 24" class="cls-2" d="M219.19,109.94h-1.28v-2.33h1.99c.88,0,1.72.14,1.72,1.15,0,1.35-1.42,1.18-2.43,1.18ZM222.61,108.77c0-1.29-.64-1.99-2.51-1.99h-3.12v7.21h.92v-3.21h1.55l2.03,3.21h1.04l-2.16-3.21c1.26-.1,2.24-.62,2.24-2.03"/>
          <path id="Vector_25" data-name="Vector 25" class="cls-2" d="M218.8.6c-12.43,6.27-24.83,9.63-39.37,9.69-14.54.04-26.94-3.48-39.38-9.75-8.17,16.07-9.46,42.19-2.4,63.99,6.81,21.02,20,40.16,41.78,52.2,21.78-12.03,34.97-31.18,41.78-52.2,7.06-21.82,5.76-47.86-2.4-63.94"/>
        </g>
        <path id="Vector_26" data-name="Vector 26" class="cls-1" d="M77.43,83.44v.04l-14.58-27.39c-1.06-2.34-.6-6.21,3.4-6.77l21.31-2.06c1.32,3.48,2.03,7.26,2.03,11.19,0,10.13-4.75,19.17-12.16,24.97"/>
        <path id="Vector_27" data-name="Vector 27" class="cls-1" d="M75.3,85.01h-.01c-5.01,3.28-11.01,5.21-17.45,5.21s-12.44-1.93-17.45-5.22l15.46-23.12c1.15-1.62,2.87-1.49,3.96,0l15.46,23.12h.03Z"/>
        <path id="Vector_28" data-name="Vector 28" class="cls-1" d="M26.09,58.47c0-3.94.71-7.72,2.03-11.19l21.29,2.06c4,.55,4.45,4.43,3.4,6.77l-14.6,27.39v-.04c-7.39-5.82-12.14-14.84-12.14-24.97"/>
        <path id="Vector_29" data-name="Vector 29" class="cls-2" d="M57.84,66.86c-.17,0-.33.07-.45.26l-10.67,16.34c3.39,1.52,7.16,2.35,11.12,2.35s7.72-.84,11.12-2.35l-10.68-16.34c-.13-.17-.28-.26-.44-.26Z"/>
        <path id="Vector_30" data-name="Vector 30" class="cls-2" d="M47.41,53.45l-16.13-1.49c-.5,2.09-.77,4.27-.77,6.5,0,6.82,2.48,13.04,6.58,17.82l11.31-21.58c.27-.67.18-1.16-.98-1.25"/>
        <path id="Vector_31" data-name="Vector 31" class="cls-1" d="M57.85,26.72c12.72,0,23.72,7.49,28.77,18.33h-22.6c-3.22-.07-4.65-1.96-4.71-3.49-.09-1.82.21-2.4,1.72-4.34,1.63-2.18.51-6.36-3.18-6.43-3.69.07-4.82,4.26-3.18,6.43,1.5,1.94,1.79,2.53,1.72,4.34-.06,1.53-1.48,3.42-4.71,3.49h-22.6c5.05-10.84,16.03-18.33,28.77-18.33Z"/>
        <path id="Vector_32" data-name="Vector 32" class="cls-2" d="M78.62,40.68c-3.42-3.99-7.99-6.99-13.18-8.5,1.62,2.68.3,6.19-1.22,7.84-.28.28-.14.58.11.65h14.29Z"/>
        <path id="Vector_33" data-name="Vector 33" class="cls-2" d="M68.26,53.45c-1.16.08-1.25.58-.98,1.25l11.29,21.58c4.11-4.8,6.6-11.01,6.6-17.82,0-2.23-.27-4.4-.78-6.5l-16.13,1.49Z"/>
        <path id="Vector_34" data-name="Vector 34" class="cls-2" d="M50.25,32.18c-5.21,1.5-9.76,4.5-13.18,8.5h14.29c.26-.07.4-.37.1-.65-1.52-1.66-2.81-5.16-1.21-7.84Z"/>
        <path id="Vector_35" data-name="Vector 35" class="cls-1" d="M212.98,62.05c-6.11,17.93-15.66,33.83-33.56,44.93h.03s-.03.01-.03.01c-17.9-11.11-27.45-27.01-33.56-44.96-5.43-15.95-6.75-34.6-.79-49.15,8.95,3.08,14.2,4.03,19.08,4.78,4.54.71,8.6,1.15,15.26,1.23h.03c6.64-.09,10.71-.52,15.25-1.23,4.87-.75,10.11-1.7,19.08-4.78,5.97,14.55,4.64,33.22-.78,49.15"/>
        <path id="Vector_36" data-name="Vector 36" class="cls-2" d="M194.97,21.85c-5.23.7-10.43,1.22-15.52,1.26h-.03c-5.12-.04-10.3-.57-15.53-1.26-5.23-.71-10.3-1.9-15.73-3.35-3.8,10.75-2.99,24.33-.06,36.4,5.49,22.75,19.22,40.05,31.34,47.68,12.11-7.62,25.85-24.92,31.34-47.68,2.92-12.07,3.72-25.65-.07-36.4-5.42,1.45-10.5,2.64-15.72,3.35"/>
        <path id="Vector_37" data-name="Vector 37" class="cls-1" d="M192.28,33.98c-.27.89-.48.88-1.06,1.43-1.22,1.11-2.84,2.24-4.41,3.76-1.01.96-1.99,1.53-2.71,2.7-.17.26-.54.98-.54.98-2.7-.54-5.43-.6-7.53-1.02l-.1-2.3s2.7-.03,2.96-1.65c0-.08-.06-.58-.35-.81-.37-.27-1.18-.57-1.36-.64,2.04.33,3.83,1.06,5.93,1.99.13-.21-.21-.99-.37-1.16-.28-.33-.61-.58-1.35-.75-1.28-.33-4.34-.71-4.34-.71,0,0,1.11-.04,2.6-.1.65-.1,1.32-.37,1.46-.58.16-.33-.06-.84-.5-1.32-.3-.33-.61-.62-.85-.96-.31-.44-.71-1.25-1.26-1.74-.68-.81-2.74-1.59-2.74-1.59,0,0-.17-1.38.17-2.04.26-.5,1.35-.55,1.7-.38,1.53.87,3.28,1.8,5.33,2.17.43.31.44.41.57,1.04.3,1.38-.24,3.39.04,4.36.14.31.44.3.68.17,1.91-1.02,3.21-2.81,5.15-3.63.91-.38,3.49.92,2.91,2.81"/>
        <path id="Vector_38" data-name="Vector 38" class="cls-1" d="M183.77,60.29s.24-4.07.27-6.03c1.08-.43,1.32-1.49.91-2.35-.23-.48-1.04-.82-1.52-.95-2.24-.57-4.28-.67-6.6-.92-2.03-.21-3.63-.48-5.49-.96-3.8-.98-7.02-2.72-8.71-6.19-2.09-4.28-.21-9.59,3.89-11.73,3.11-1.62,6.6-1.31,9.73-.11,1.09.43,1.67,1.36,2.34,2.28.3.41.77.58,1.02,1.04.16.26-.2.38-.34.41-.68.2-2.98.23-3.73.14-.94-.13-2.5-.07-3.43.13.98.55,2.04,1.25,3.02,1.63.6.23,1.06.23,1.62.5.23.11.88.3.88.61-.07.3-.61.41-1.01.54-.88.24-2.1.3-3.23.03-1.79-.41-2.62-1.46-3.73-.81-.74.44-.75,1.45-.51,2.47.4,1.59,2.06,2.24,3.46,2.71,4.88,1.57,10.1.68,14.87,3.14,1.84.95,3.93,2.87,4.31,4.91,1.63,8.53-8,9.53-8,9.53"/>
        <path id="Vector_39" data-name="Vector 39" class="cls-1" d="M176.06,51.78s.96.1,3.31.26c1.8.13,3.01.62,3.01.62l-.23,8.58c-1.92-.37-3.16-.57-4.95-.81-.58-3.11-1.33-4.17-2.58-6.45-.28-.52-.04-.72.04-.85.17-.31,1.42-.62,1.42-.62l-.03-.74h.01Z"/>
        <path id="Vector_40" data-name="Vector 40" class="cls-1" d="M189.1,70.47c-.33,1.39-1.22,2.5-2.68,3.38-1.53.92-3.14.99-3.14.99l.13-4.71s.35-.09.6-.38.3-.5.24-.91c-.04-.27-.26-.62-.68-.81-.47-.2-1.18-.27-1.48-.3-2.33-.28-4.45-.54-6.72-.91-4.11-.67-7.02-3.04-6.78-6.95.17-2.64,2.94-3.46,4.89-4.27.64,1.13,1.22,2.35,1.45,2.96.37,1.05.57,1.74.57,1.74,0,0-.88.16-.81.88.07.64.78.91,1.22.98,2.88.4,6.7.88,8.72,1.56,1.35.47,2.67,1.22,3.42,2.27,1.13,1.57,1.4,2.85,1.02,4.5"/>
        <path id="Vector_41" data-name="Vector 41" class="cls-1" d="M177.77,68.78c1.87.21,2.55.28,4.14.47l-.16,7.77-1.8-.98-1.79-.87-.4-6.4Z"/>
        <path id="Vector_42" data-name="Vector 42" class="cls-1" d="M185.01,87.22c-1.02.85-2.24,1.13-2.24,1.13l.13-3.32s.37-.34.27-.75c-.17-.67-2.54-2.26-3.8-2.74-1.29-.51-3.01-.99-4.24-1.53-2.85-1.23-3.89-3.75-2.72-6.47.43-1.01,1.56-1.7,2.2-2.07.68-.4,1.67-.71,1.67-.71l.3,3.89s-.37.14-.48.48c-.21.68.41,1.06.58,1.13,1.87.84,4.6,1.92,6.58,3.09,2.57,1.5,3.42,2.6,3.42,4.41,0,1.63-.7,2.67-1.65,3.46"/>
        <path id="Vector_43" data-name="Vector 43" class="cls-1" d="M181.35,95.64c0,.61-.24,1.09-1.4,1.12-.96,0-1.39-.33-1.42-1.33-.16-4.47-.35-12.87-.35-12.87,0,0,1.26.38,1.86.74.18.1.84.52,1.42,1.12.11.17.21.21.2.48-.07,3.26-.27,9.31-.28,10.74"/>
        <path id="Vector_44" data-name="Vector 44" class="cls-1" d="M176.41,91.95c-.17,1.18.31,1.67.2,2.23-.2.89-.77.62-1.11-.04-.47-.89-.78-1.35-.91-2.72-.21-2.18.88-3.23,1.38-3.73.54-.54,1.04-.81,1.04-.81l.17,3.67s-.6.23-.77,1.4Z"/>
        <path id="Vector_45" data-name="Vector 45" class="cls-2" d="M173.45,31.97c.61.43.48,1.19,1.35,1.04.45-.07.72-.35,1.12-.64.06-.03.51.03.64.07-.96-.98-2.89-.98-4.17-1.02.33.62.68.3,1.05.54"/>
      </g>
      <g id="Group_5" data-name="Group 5">
        <path id="Vector_46" data-name="Vector 46" d="M584.72,50.28c-1.83,0-3.15-1.32-3.15-3.15s1.32-3.14,3.15-3.14,3.13,1.32,3.13,3.14-1.3,3.15-3.13,3.15ZM584.72,43.4c-2.07,0-3.74,1.69-3.74,3.73s1.67,3.75,3.74,3.75,3.73-1.69,3.73-3.75-1.68-3.73-3.73-3.73Z"/>
        <path id="Vector_47" data-name="Vector 47" d="M584.61,46.85h-.75v-1.38h1.18c.51,0,1.02.07,1.02.67,0,.81-.84.71-1.43.71M586.66,46.17c0-.77-.39-1.19-1.49-1.19h-1.85v4.27h.54v-1.89h.92l1.21,1.89h.62l-1.28-1.89c.74-.07,1.32-.38,1.32-1.19Z"/>
      </g>
      <g id="Group_6" data-name="Group 6">
        <path id="Vector_48" data-name="Vector 48" d="M607.53,115.67c-1.83,0-3.15-1.32-3.15-3.15s1.32-3.14,3.15-3.14,3.13,1.32,3.13,3.14-1.3,3.15-3.13,3.15ZM607.53,108.79c-2.07,0-3.74,1.69-3.74,3.73s1.67,3.75,3.74,3.75,3.73-1.69,3.73-3.75-1.68-3.73-3.73-3.73Z"/>
        <path id="Vector_49" data-name="Vector 49" d="M607.41,112.23h-.75v-1.38h1.18c.51,0,1.02.07,1.02.67,0,.81-.84.71-1.43.71M609.45,111.55c0-.77-.39-1.19-1.49-1.19h-1.85v4.27h.54v-1.89h.92l1.21,1.89h.62l-1.28-1.89c.74-.07,1.32-.38,1.32-1.19Z"/>
      </g>
    </g>
  </g>
</svg>