<?xml version="1.0" encoding="UTF-8"?>
<svg id="Layer_2" data-name="Layer 2" xmlns="http://www.w3.org/2000/svg" viewBox="0 0 240.98 128.45">
  <defs>
    <style>
      .cls-1 {
        fill: #03cc54;
      }

      .cls-1, .cls-2 {
        fill-rule: evenodd;
      }

      .cls-2 {
        fill: #03f;
      }
    </style>
  </defs>
  <g id="Capa_1" data-name="Capa 1">
    <g>
      <path class="cls-2" d="M133.54,117.15c2.44,0,3.86,1.64,3.85,4.16v6.89h-2.48v-6.15c0-1.68-.84-2.65-2.32-2.65s-2.44,1-2.44,2.69v6.11h-2.48v-14.97h2.48v5.82c.7-1.03,1.7-1.91,3.38-1.91ZM145.09,117.15c3.45,0,5.19,2.71,5.19,5.82,0,.22-.02.45-.04.7h-7.96c.26,1.76,1.52,2.75,3.12,2.75,1.21,0,2.08-.45,2.93-1.29l1.46,1.29c-1.03,1.23-2.44,2.03-4.43,2.03-3.13,0-5.56-2.28-5.56-5.62v-.04c0-3.1,2.2-5.64,5.29-5.64h0ZM142.26,122.03h5.56c-.17-1.6-1.11-2.85-2.75-2.85-1.52,0-2.58,1.17-2.81,2.85h0ZM149.51,103.35c0,2.07-.75,2.87-.76,2.87h-22.18s-.75-.87-.75-2.91.75-2.15.75-2.15h1.13c1.88,0,3.76-1.88,3.76-3.76v-25.97c0-1.88-1.88-3.76-3.76-3.76h-1.13c-.48-.79-.75-1.39-.75-2.54,0-1.31.46-2.11.76-2.5,5.35,0,11.67-2.22,12.92-2.73,1.85-.75,3.4-.18,3.4,1.42,0,.59.02,5.53.02,5.53,3.38-4.98,8.93-8.36,16.16-8.36,9.78,0,16.54,5.26,16.54,16.07v22.85c0,1.88,1.88,3.76,3.76,3.76h1.13s.75.39.75,2.31-.75,2.75-.75,2.75h-22.18s-.75-1.03-.75-2.95.75-2.12.75-2.12h1.13c1.88,0,3.76-1.88,3.76-3.76v-22.39c0-6.2-3.76-9.02-8.83-9.02-5.92,0-10.52,4.61-10.52,12.31v19.09c0,1.88,1.88,3.76,3.76,3.76h1.13s.75.12.75,2.19h0ZM108.51,61.91h0s12.49-.01,12.49-.01c.32.46.74,1.69.74,2.83,0,1.45-.39,2.32-.75,2.94h-6.84c1.48,2.45,2.31,5.25,2.31,8.25,0,9.64-8.61,17.51-20.13,17.51-2.81,0-4.4-.28-6.37-.94l-3.46,4.69h17.69c11.7,0,16.38,5.33,16.38,13.19,0,11.05-12.36,18.07-25.65,18.07s-19.1-5.53-19.1-12.26c0-3.46,1.87-7.52,5.99-9.95h-5.59s-1.15-1.22-1.15-3.02,1-3.62,1-3.62l7.89-9.8c-4.5-3-7.77-7.86-7.77-13.86,0-9.74,8.52-17.51,20.13-17.51,4.62,0,8.83,1.3,12.18,3.49h0ZM96.33,87.63c5.15,0,8.52-4.4,8.52-11.7s-3.37-11.7-8.52-11.7-8.61,4.4-8.61,11.7,3.37,11.7,8.61,11.7h0ZM89.96,106.23c-2.71,1.4-4.59,4.71-4.58,7.99,0,4.87,4.12,8.14,11.42,8.14,7.77,0,12.07-4.58,12.07-9.08,0-3.55-2.15-7.05-8.43-7.05h-10.49ZM41.52,90.49c1.19.41,1.85,1.34,1.85,1.34-2.44,8.27-7.94,15.7-19.78,15.7-12.6,0-23.59-9.21-23.59-23.78,0-16.26,12.5-25.28,25.93-25.28,5.73,0,10.62,1.22,14.28,3.29,0,0,.27.17.44.39.17.22.22.55.22.55l.47,12.31s-.65.75-3.03.75-2.21-.75-2.21-.75l-.13-1.69c0-5.45-4.4-9.02-10.14-9.02-9.12,0-13.06,8.65-13.06,17.48,0,9.49,5.64,17.48,14.47,17.48,4.89,0,8.04-2.79,11.52-8.83,0,0,1.23-.46,2.74.06h0ZM58.36,55.13c-4.29,0-7.77-3.57-7.77-7.97s3.48-7.98,7.77-7.98,7.78,3.57,7.78,7.98-3.48,7.97-7.78,7.97ZM64.56,69.72v27.68c0,1.88,1.88,3.76,3.76,3.76h1.13s.75.47.75,2.3-.75,2.76-.75,2.76h-22.18s-.75-1.15-.75-2.92.75-2.14.75-2.14h1.13c1.88,0,3.76-1.88,3.76-3.76v-27.67c0-1.88-1.88-3.76-3.76-3.76h-1.13s-.75-.36-.75-2.14.75-2.92.75-2.92h22.18s.75.94.75,2.76-.75,2.29-.75,2.29h-1.13c-1.88,0-3.76,1.88-3.76,3.76ZM207.83,117.21c3.2,0,4.76,1.69,4.76,4.58v6.42h-2.46v-1.33c-.74.88-1.87,1.56-3.5,1.56-2.05,0-3.86-1.17-3.86-3.34v-.04c0-2.4,1.87-3.55,4.39-3.55,1.31,0,2.15.18,2.99.45v-.21c0-1.5-.95-2.32-2.67-2.32-1.21,0-2.11.26-3.1.67l-.67-1.99c1.19-.54,2.36-.9,4.12-.9h0ZM210.19,124.28h0v-.61c-.63-.25-1.52-.43-2.48-.43-1.56,0-2.48.63-2.48,1.68v.04c0,1.03.92,1.6,2.09,1.6,1.64,0,2.87-.92,2.87-2.28h0ZM218.02,119.81c.67-1.61,1.93-2.73,3.84-2.64v2.63h-.14c-2.18,0-3.69,1.41-3.69,4.28v4.12h-2.48v-10.83h2.48v2.44ZM236.58,99.46c0,1.46-.76,2.15-.75,2.14l-12.97,5.54s-.99.41-2.28.13c-1.44-.32-1.48-1.59-1.48-1.59v-5.59c-3.48,4.51-7.9,7.43-14.85,7.43-12.22,0-22.18-8.93-22.18-24.06,0-16.16,11.56-25,23.68-25,8.08,0,12.57,3.86,15.23,7h0s.54.6,1,0l3.99-5.21s.43-.47.99-.47h2.86c1.04,0,1.11.97,1.11.97v33.05c0,1.88,1.88,3.76,3.76,3.76h1.13s.75.44.75,1.9h0ZM206.7,101.33c8.37,0,11.84-8.27,11.84-18.33,0-10.06-3.48-18.32-11.84-18.32s-11.84,8.27-11.84,18.32,3.48,18.33,11.84,18.33ZM236.3,119.24c.26.06.45.14.59.25.2.16.3.39.3.69s-.12.57-.36.77c-.24.2-.57.31-1,.31s-.79-.1-1.04-.3c-.25-.2-.38-.48-.38-.83h.68c.02.15.06.27.12.35.11.13.31.21.59.21.17,0,.3-.02.41-.05.2-.07.3-.2.3-.39,0-.11-.05-.2-.15-.26-.1-.06-.26-.11-.46-.16l-.36-.08c-.36-.08-.6-.17-.73-.26-.23-.16-.34-.4-.34-.73,0-.3.11-.55.33-.76.22-.2.55-.3.97-.3.36,0,.66.09.92.28.25.19.38.46.4.82h-.68c0-.2-.1-.35-.26-.43-.11-.06-.25-.08-.41-.08-.18,0-.33.04-.44.11-.11.07-.16.17-.16.31,0,.12.05.21.16.27.07.04.22.08.44.14l.58.14ZM239.95,117.78h1.03v3.39h-.66v-2.84l-.64,2.84h-.69l-.64-2.84v2.84h-.66v-3.39h1.03l.62,2.66.61-2.66ZM157.1,117.21c3.2,0,4.75,1.69,4.75,4.58v6.42h-2.46v-1.33c-.74.88-1.87,1.56-3.5,1.56-2.05,0-3.86-1.17-3.86-3.34v-.04c0-2.4,1.87-3.55,4.39-3.55,1.31,0,2.16.18,3,.45v-.21c0-1.5-.94-2.32-2.67-2.32-1.21,0-2.11.26-3.09.67l-.67-1.99c1.19-.54,2.36-.9,4.12-.9h0ZM159.46,124.28h0v-.61c-.63-.25-1.52-.43-2.48-.43-1.56,0-2.48.63-2.48,1.68v.04c0,1.03.92,1.6,2.09,1.6,1.64,0,2.87-.92,2.87-2.28h0ZM228.33,117.15c3.45,0,5.19,2.71,5.19,5.82,0,.22-.02.45-.04.7h-7.96c.26,1.76,1.52,2.75,3.12,2.75,1.21,0,2.07-.45,2.93-1.29l1.46,1.29c-1.03,1.23-2.44,2.03-4.43,2.03-3.13,0-5.56-2.28-5.56-5.62v-.04c0-3.1,2.2-5.64,5.29-5.64h0ZM225.5,122.03h5.56c-.17-1.6-1.11-2.85-2.75-2.85-1.52,0-2.58,1.17-2.81,2.85h0ZM196.92,126.29c1.17,0,2.03-.55,2.81-1.35l1.5,1.48c-1.07,1.19-2.32,2.03-4.43,2.03-3.22,0-5.6-2.52-5.6-5.6v-.04c0-3.08,2.38-5.66,5.62-5.66,2.05,0,3.33.76,4.33,1.87l-1.54,1.66c-.76-.8-1.56-1.35-2.81-1.35-1.8,0-3.12,1.56-3.12,3.45v.04c0,1.93,1.33,3.49,3.24,3.49ZM167.43,113.23v14.97h-2.48v-14.97h2.48ZM171.19,114.4h2.48v2.97h2.91v2.13h-2.91v5.31c0,.96.49,1.35,1.33,1.35.55,0,1.04-.12,1.54-.37v2.03c-.62.35-1.31.55-2.24.55-1.83,0-3.12-.79-3.12-3.18v-5.7h-1.37v-2.13h1.37v-2.97ZM184.94,117.15c2.44,0,3.86,1.64,3.86,4.16v6.89h-2.48v-6.15c0-1.68-.84-2.65-2.32-2.65s-2.44,1-2.44,2.69v6.11h-2.48v-14.97h2.48v5.82c.7-1.03,1.7-1.91,3.38-1.91h0Z"/>
      <path class="cls-1" d="M52.61,19.95c0-5.01,2.28-9.48,5.82-12.48,3.54,3.01,5.78,7.49,5.77,12.51-.01,5.01-2.27,9.48-5.82,12.48-3.54-3.01-5.78-7.49-5.77-12.51ZM70.23,7.15c-1.46,3.51-1.19,7.31.42,10.44,3.36-1.07,6.24-3.55,7.7-7.06,1.46-3.51,1.19-7.31-.42-10.44-3.36,1.07-6.24,3.55-7.71,7.06ZM38.45,10.45c1.45,3.51,4.32,6.01,7.68,7.09,1.62-3.13,1.91-6.93.46-10.44-1.45-3.51-4.32-6.01-7.68-7.09-1.62,3.13-1.91,6.93-.46,10.45ZM18.31,35.25c3.51,1.46,7.31,1.19,10.44-.42-1.07-3.36-3.55-6.24-7.06-7.7-3.51-1.46-7.31-1.19-10.44.41,1.07,3.36,3.55,6.25,7.06,7.71ZM95.03,27.29c-3.51,1.45-6.01,4.32-7.09,7.68,3.13,1.62,6.93,1.91,10.45.46,3.51-1.45,6.01-4.32,7.09-7.68-3.13-1.62-6.93-1.91-10.44-.46h0ZM85.52,41.45c-5.01,0-9.49,2.24-12.51,5.78,3,3.55,7.47,5.81,12.48,5.82,5.01,0,9.49-2.24,12.51-5.78-3-3.55-7.47-5.81-12.48-5.82ZM73.52,23.88c-3.55,3.54-5.13,8.3-4.76,12.93,4.63.39,9.39-1.17,12.95-4.71,3.55-3.54,5.13-8.3,4.76-12.93-4.63-.39-9.39,1.17-12.95,4.71ZM31.24,41.45c-5.01.01-9.48,2.27-12.48,5.82,3.01,3.54,7.49,5.78,12.51,5.78,5.01-.01,9.48-2.27,12.48-5.82-3.01-3.54-7.49-5.79-12.51-5.78ZM43.25,23.88c-3.55-3.54-8.31-5.1-12.95-4.71-.37,4.63,1.21,9.39,4.76,12.93,3.55,3.54,8.32,5.1,12.95,4.71.38-4.63-1.21-9.39-4.76-12.93Z"/>
    </g>
  </g>
</svg>