<?xml version="1.0" encoding="UTF-8"?>
<svg id="Layer_2" data-name="Layer 2" xmlns="http://www.w3.org/2000/svg" viewBox="0 0 336.02 80.87">
  <defs>
    <style>
      .cls-1 {
        fill: #4f0877;
      }
    </style>
  </defs>
  <g id="Capa_1" data-name="Capa 1">
    <path class="cls-1" d="M325.94,74.54c0-.73.11-1.34.39-1.96s.62-1.18,1.06-1.62c.45-.45,1.01-.84,1.62-1.06.62-.28,1.29-.39,1.96-.39.73,0,1.34.11,1.96.39s1.18.62,1.62,1.06c.45.45.84,1.01,1.06,1.62.28.62.39,1.29.39,1.96,0,.73-.11,1.34-.39,1.96s-.62,1.18-1.06,1.62c-.45.45-1.01.84-1.62,1.12-.62.28-1.29.39-1.96.39s-1.34-.11-1.96-.39-1.18-.62-1.62-1.12c-.45-.45-.84-1.01-1.06-1.62-.28-.62-.39-1.29-.39-1.96M327.22,74.54c0,.56.11,1.06.28,1.51.22.5.45.9.78,1.23.34.34.73.62,1.18.84s.95.34,1.46.34,1.01-.11,1.46-.34.84-.5,1.18-.84.62-.78.78-1.23c.17-.5.28-1.01.28-1.51,0-.56-.11-1.06-.28-1.51-.17-.5-.45-.9-.78-1.23-.34-.34-.73-.62-1.18-.84s-.95-.34-1.46-.34-1.01.11-1.46.34-.84.5-1.18.84-.62.78-.78,1.23c-.17.45-.28.95-.28,1.51M329.02,71.8h1.68c.34,0,.62,0,.9.06s.56.11.78.22c.22.11.39.28.56.5.11.22.22.45.22.78,0,.22-.06.45-.11.67-.06.17-.17.34-.28.5-.11.11-.22.22-.39.34s-.28.11-.45.17l1.34,2.13h-1.46l-1.23-2.07h-.34v2.07h-1.29v-5.38h.06ZM330.36,74.04h.9c.11,0,.17-.06.28-.06.11-.06.17-.11.22-.17.06-.06.11-.17.11-.34,0-.11-.06-.22-.11-.34-.06-.06-.11-.11-.22-.17-.11-.06-.17-.06-.28-.06h-.9v1.12ZM108.14,1.4h-11.37v11.37h0v21.95h0v11.42h0v21.84h0v11.37h51.02v-11.37h-39.65v-21.84h28.28v-11.37h-28.28V12.82h39.65V1.46l-39.65-.06h0ZM226.08,1.34h-11.37v33.38h-39.65V1.34h-11.37v33.38h0v11.42h0v33.21h11.37v-33.21h39.65v33.21h11.37v-33.21h0v-11.37h0V1.34h0ZM80.48,34.72h-39.99v11.42h28.45c-2.63,13.27-14.39,23.35-28.51,23.35-16.02,0-29.07-13.05-29.07-29.07s13.05-29.07,29.07-29.07c9.63,0,18.2,4.7,23.47,11.98h13.16C70.62,9.58,56.62,0,40.43,0,18.09,0,0,18.09,0,40.43s18.14,40.43,40.49,40.43c20.39,0,37.24-15.12,40.04-34.72.28-1.85.39-3.7.39-5.6v-.22c0-1.9-.17-3.75-.45-5.6M310.48,57.63l-4.93-11.37-14.5-33.49-4.93-11.37h-14.78l-4.93,11.37-14.5,33.49-4.93,11.37-9.41,21.73h12.43l9.41-21.73h38.87l9.41,21.73h12.43l-9.63-21.73ZM264.17,46.26l14.5-33.38,14.5,33.38h-29.01Z"/>
  </g>
</svg>