<?xml version="1.0" encoding="UTF-8"?>
<svg id="Layer_2" data-name="Layer 2" xmlns="http://www.w3.org/2000/svg" xmlns:xlink="http://www.w3.org/1999/xlink" viewBox="0 0 465.82 105.56">
  <defs>
    <style>
      .cls-1 {
        fill: #212324;
      }

      .cls-1, .cls-2 {
        fill-rule: evenodd;
      }

      .cls-2 {
        fill: url(#linear-gradient);
      }
    </style>
    <linearGradient id="linear-gradient" x1="47.06" y1="1587.56" x2="47.06" y2="1493.44" gradientTransform="translate(0 1587.56) scale(1 -1)" gradientUnits="userSpaceOnUse">
      <stop offset="0" stop-color="#ffac2f"/>
      <stop offset=".58" stop-color="#ff8400"/>
      <stop offset="1" stop-color="#f44544"/>
    </linearGradient>
  </defs>
  <g id="Capa_1" data-name="Capa 1">
    <g>
      <path class="cls-1" d="M128.86,77.14v5.44h27.88v-5.44h-.65c-4.46,0-5.55-1.63-5.55-6.43v-27.55c2.07-2.29,5.66-3.7,9.04-3.7,5.01,0,8.38,2.5,8.38,9.26v22c0,4.57-.76,6.43-5.44,6.43h-.54v5.44h27.11v-5.44h-.54c-5.23,0-6.43-1.96-6.43-7.19v-25.15c0-9.91-5.34-15.9-15.03-15.9-7.4,0-13.18,3.7-16.01,9.04h-.54V14.85c0-4.14,0-8.38.11-11.98h-4.57c-4.79,1.42-14.37,4.03-19.6,4.9v4.9h3.38c4.25,0,6.53,1.52,6.53,6.64v51.4c0,4.25-1.52,6.32-6.97,6.43h-.54ZM239.56,67.42V19.31c0-5.12-2.29-6.64-6.53-6.64h-3.37v-4.9c5.23-.87,14.81-3.48,19.6-4.9h4.57c-.11,3.59-.11,7.84-.11,11.98v55.86c0,4.36,1.63,6.43,7.08,6.43h.54v5.44h-28.39c-1.62.95-3.42,1.52-5.37,1.52-5.01,0-9.58-3.27-9.8-9.91v-.22h-.54c-2.07,5.66-6.75,9.8-13.5,9.8-7.84,0-14.26-5.66-14.26-13.07,0-9.36,7.62-13.18,17.97-15.9l9.15-2.4v-8.71c0-5.55-2.94-9.04-7.84-9.04s-7.4,2.61-7.4,5.88c0,.88.17,1.58.35,2.33h0c.2.83.41,1.7.41,2.9,0,3.16-2.72,5.66-6.21,5.66-3.92,0-6.97-2.94-6.97-7.51,0-7.95,7.73-15.35,21.13-15.35,11.76,0,20.25,5.01,20.25,17.2v.44l-.33,23.85c0,3.27,1.89,4.36,4.17,4.36,2.17,0,5.38-.54,5.41-6.99ZM216.59,57.75v11c-1.42,2.29-3.92,4.36-7.41,4.36-3.7,0-6.53-2.5-6.53-6.1,0-4.36,3.48-6.32,9.26-7.95l4.68-1.31ZM281.74,84.21c12.63,0,20.04-10.34,21.02-22.32h-4.57c-1.2,4.57-5.66,8.71-12.2,8.71-9.58,0-15.9-8.06-15.9-19.06,0-9.58,5.33-15.46,12.2-15.46,3.59,0,5.34,1.85,6.1,3.92.38.99.49,2.03.6,3.01.05.43.09.84.16,1.24.54,3.05,2.83,5.44,6.21,5.44,4.57,0,7.19-3.16,7.19-7.3,0-2.39-.73-4.65-2.07-6.62,3.72.65,5.1,3.56,6.83,7.49l17.1,38.44-1.09,2.72c-2.07,5.23-5.23,7.73-9.8,7.73-1.1,0-2.08-.15-3.09-.31-1.08-.17-2.2-.34-3.55-.34-4.46,0-7.73,2.29-7.73,6.42,0,4.46,3.7,7.62,10.56,7.62,9.91,0,15.57-5.55,20.25-17.42l17.64-44.75c1.85-4.79,3.59-7.62,8.17-7.73v-5.66h-20.36v5.66h1.42c2.94,0,4.35,1.09,4.35,3.27,0,1.09-.33,2.5-.98,4.14l-8.71,23.3-9.15-22.76c-.65-1.52-.98-2.94-.98-4.03,0-2.5,1.52-3.92,4.68-3.92h1.31v-5.66h-34.68c-2.46-.91-5.29-1.42-8.41-1.42-14.26,0-26.24,11.11-26.24,28.86,0,14.48,9.47,26.79,23.74,26.79ZM378.47,84.21c14.37,0,27.22-11.32,27.22-27.88s-12.85-27.88-27.22-27.88-27.33,11.32-27.33,27.88,12.74,27.88,27.33,27.88ZM378.47,76.59c-7.62,0-11.43-7.84-11.43-20.25s3.59-20.15,11.43-20.15,11.43,7.73,11.43,20.15-3.7,20.25-11.43,20.25ZM405.02,82.58v-5.44h.22c5.66,0,7.3-1.96,7.3-6.43v-26.02c0-4.68-2.18-6.21-6.53-6.21h-1.96v-4.79c3.76-.77,10.06-2.41,14.87-3.66,1.32-.34,2.52-.66,3.53-.91h4.25v8.82h.54c2.83-5.34,8.6-9.04,15.9-9.04,9.8,0,15.14,5.99,15.14,15.9v25.15c0,5.23,1.31,7.19,6.53,7.19h1.01v5.44h-27.58v-5.44h.54c4.57,0,5.33-1.85,5.33-6.43v-21.89c0-6.97-3.48-9.36-8.38-9.36-3.38,0-6.97,1.52-9.04,3.7v27.55c0,4.79,1.09,6.43,5.55,6.43h.65v5.44h-27.88Z"/>
      <path class="cls-2" d="M89.75,45.64c1.45-.72,2.91-1.29,4.37-1.71C92.5,19.4,72.05,0,47.06,0S1.6,19.42,0,43.96c1.42.41,2.84.97,4.26,1.68,4.94,2.46,9.7,2.46,14.64,0,6.87-3.43,13.92-3.43,20.79,0,4.94,2.46,9.7,2.46,14.64,0,6.87-3.43,13.92-3.43,20.79,0,4.94,2.46,9.7,2.46,14.64,0ZM92.82,51.78c.41-.2.81-.39,1.22-.56-.28,3.15-.86,6.22-1.73,9.16-.86.32-1.71.69-2.56,1.12-4.94,2.46-9.7,2.46-14.64,0-6.87-3.43-13.92-3.43-20.79,0-4.94,2.46-9.7,2.46-14.64,0-6.87-3.43-13.92-3.43-20.79,0-4.94,2.46-9.7,2.46-14.64,0-.81-.4-1.62-.76-2.43-1.07-.87-2.94-1.46-6.01-1.74-9.16.36.16.73.32,1.1.51,6.87,3.43,13.92,3.43,20.79,0,4.94-2.46,9.7-2.46,14.64,0,6.87,3.43,13.92,3.43,20.79,0,4.94-2.46,9.7-2.46,14.64,0,6.87,3.43,13.91,3.43,20.79,0ZM5.5,69.32c1.93,3.58,4.31,6.88,7.07,9.83,2.1-.15,4.19-.75,6.33-1.81,6.87-3.43,13.92-3.43,20.79,0,4.94,2.46,9.7,2.46,14.64,0,6.87-3.43,13.92-3.43,20.79,0,2.17,1.08,4.3,1.69,6.44,1.82,2.77-2.96,5.16-6.28,7.1-9.88-5.53,1.63-11.12,1.08-16.61-1.66-4.94-2.46-9.7-2.46-14.64,0-6.87,3.43-13.92,3.43-20.79,0-4.94-2.46-9.7-2.46-14.64,0-5.44,2.71-10.99,3.28-16.47,1.7ZM18.87,84.79c7.86,5.86,17.62,9.33,28.19,9.33s20.3-3.46,28.16-9.3c-1.06-.36-2.12-.81-3.18-1.34-4.94-2.46-9.7-2.46-14.64,0-6.87,3.43-13.92,3.43-20.79,0-4.94-2.46-9.7-2.46-14.64,0-1.03.51-2.07.95-3.1,1.31Z"/>
    </g>
  </g>
</svg>