<?xml version="1.0" encoding="UTF-8"?>
<svg id="Layer_2" data-name="Layer 2" xmlns="http://www.w3.org/2000/svg" viewBox="0 0 396.6 100.71">
  <defs>
    <style>
      .cls-1 {
        fill: #9e948e;
      }

      .cls-1, .cls-2 {
        fill-rule: evenodd;
      }

      .cls-2 {
        fill: #468588;
      }
    </style>
  </defs>
  <g id="Capa_1" data-name="Capa 1">
    <g>
      <path class="cls-1" d="M152.23,35.12v17.9h-15.52v-17.9h-6.43v42.79h6.43v-19.38h15.52v19.38h6.34v-42.79h-6.34ZM178.22,52.66c5.33,0,6.8,5.33,6.52,8.45v.09h-13.59c.09-3.12,1.75-8.54,7.07-8.54ZM164.9,62.94c0,8.91,5.05,15.61,16.07,15.61,3.58,0,6.34-.74,7.81-1.29v-4.77c-1.56.55-4.04,1.28-6.98,1.28-7.71,0-10.29-4.96-10.56-8.54h19.01c.18-1.01.46-3.22.46-4.41,0-7.53-5.05-12.86-12.49-12.86-6.89,0-13.32,5.05-13.32,14.97h0ZM350.68,52.66c5.33,0,6.88,5.33,6.61,8.45v.09h-13.59c.09-3.12,1.74-8.54,6.98-8.54ZM337.46,63.03c0,8.82,4.96,15.52,15.98,15.52,3.67,0,6.43-.74,7.9-1.29v-4.77c-1.65.55-4.04,1.28-7.07,1.28-7.62,0-10.19-4.96-10.56-8.54h19.1c.19-1.01.37-3.22.37-4.41,0-7.53-5.05-12.86-12.4-12.86s-13.32,5.05-13.32,15.06h0ZM201.27,69.56c0-3.67,3.31-6.34,11.94-6.15v10.19c-1.1.18-2.85.37-4.78.37-7.16,0-7.16-3.4-7.16-4.41h0ZM197.78,50.64v5.05c1.84-1.19,5.6-2.94,9.73-2.94,5.78,0,5.69,3.77,5.69,5.51v1.1c-11.48-.09-18.09,3.67-18.09,10.29,0,4.78,3.49,8.91,13.13,8.91,4.32,0,9.73-.83,11.11-1.29v-19.83c0-4.04-1.38-9.46-11.02-9.46-4.78,0-8.54,1.56-10.56,2.66h0ZM233.59,35.12h-5.97v42.79h6.24v-42.79h-.28ZM369.51,43.47v24.61c0,6.98,2.57,10.29,9.74,10.29,1.93,0,4.5-.37,5.14-.55v-4.96c-1.28.28-3.12.55-4.04.55h-.09c-3.86,0-4.59-2.3-4.59-5.05v-14.69h8.17v-4.96h-8.17v-9l-6.15,3.77h0ZM242.14,43.66v24.61c0,7.07,2.57,10.38,9.73,10.38,1.93,0,4.5-.46,5.14-.64,0-.55-.09-3.67,0-4.87-1.38.28-3.12.55-4.04.55h-.09c-3.86,0-4.59-2.39-4.59-5.05v-14.69h8.17v-4.96h-8.17v-9.09l-6.15,3.76h0ZM324.97,35.12v33.06l-14.23-33.06h-7.8v42.79h6.24v-32.78l14.14,32.78h7.9v-42.79h-6.24ZM262.43,35.12v42.79h6.15v-17.45c0-4.68,3.4-6.98,6.34-6.98,3.4,0,6.43,2.2,6.43,6.98v17.45h6.15v-18.18c0-6.52-4.13-11.76-10.84-11.76-4.23,0-7.07,2.48-7.99,3.31v-16.16h-6.24s0,0,0,0Z"/>
      <path class="cls-2" d="M75.6,85.36c-15.35,10.03-31.41,15.35-44.81,15.35-21.12,0-30.79-11.53-30.79-25.82S9.85,41.97,26.62,26.71v58.65h16.06v-22.98h18.37v22.98h14.55ZM106.12,20.68c0-3.37-2.66-5.41-6.12-5.41-3.1,0-5.41,2.04-6.12,2.84l.71-2.75h-5.86l-4.7,20.85h5.86l1.42-5.94c.71-3.11,2.04-10.03,6.21-10.03,1.51,0,2.4.89,2.4,2.31,0,1.33-.36,2.66-.62,3.9l-2.13,9.76h5.86l2.13-9.49c.44-1.95.97-3.99.97-6.03h0ZM116.86,25.91c0,17.13-13.31,39.04-35.49,55.46-1.4,1.03-2.82,2.04-4.26,3.02V25.82h-16.06v22.98h-18.37v-22.98h-15.09c2.55-2.27,5.21-4.4,7.99-6.39C52.44,6.92,71.16,0,86.24,0c22.98,0,30.61,13.58,30.61,25.91h0Z"/>
      <path class="cls-1" d="M388.33,42.19c0-2.2,1.47-3.77,3.4-3.77s3.49,1.56,3.49,3.77-1.56,3.85-3.49,3.85-3.4-1.56-3.4-3.85ZM386.86,42.19c0,2.76,2.2,4.87,4.87,4.87s4.87-2.11,4.87-4.87-2.2-4.78-4.87-4.78-4.87,2.11-4.87,4.78ZM389.8,44.95h1.19v-2.3h.55l1.28,2.3h1.19l-1.47-2.39c.83-.09,1.47-.46,1.47-1.47,0-1.19-.83-1.56-2.2-1.56h-2.02v5.42h0ZM391,41.73v-1.28h.83c.46,0,1.01,0,1.01.55,0,.64-.37.73-.92.73h-.92,0Z"/>
    </g>
  </g>
</svg>