<?xml version="1.0" encoding="UTF-8"?>
<svg id="Layer_2" data-name="Layer 2" xmlns="http://www.w3.org/2000/svg" viewBox="0 0 711.01 72.25">
  <defs>
    <style>
      .cls-1 {
        fill: #231f20;
      }

      .cls-2 {
        fill: #00a2e2;
      }
    </style>
  </defs>
  <g id="Capa_1" data-name="Capa 1">
    <g>
      <path d="M97.74,19.84h-10.69c.29,5.55.37,6.13.37,8.45.07,1.87.15,10.95.15,12.89v4.78l-.07,12.05c0,2.75-.51,11.83-.59,13.19h10.54c-.73-5.4-.73-11.75-.73-17.67,0-7.79.07-25.9,1.07-33.68h-.04Z"/>
      <path d="M110.05,19.84h10.62c-.81,5.55-.81,18.48-.81,26.04,0,11.17.15,19.25.73,25.31h-10.62c.81-8.93.81-21.27.81-34.05,0-4.7,0-10.03-.73-17.3Z"/>
      <path d="M158.61,19.21c6.13,0,11.53,1.07,17.52,3.75l-2.24,7.35h-.73c-.88-1.8-3.53-7.05-14.29-7.05-12.49,0-19.17,8.23-19.17,22.37,0,5.69,1.07,11.09,4.55,15.65,2.68,3.53,6.72,6.8,13.55,6.8,3.53,0,7.64-.73,10.62-2.68.22-5.25.22-5.84.22-6.8,0-3.67-.22-7.35-.44-11.02h10.03c-.44,2.68-.59,10.54-.59,12.56,0,2.83.07,4.7.22,6.8-6.35,3.38-14.51,5.25-21.71,5.25-14.58,0-26.74-9.07-26.74-25.9,0-15.06,9.22-27.11,29.2-27.11v.04Z"/>
      <path d="M223.26,45.95c-4.04-.15-8.08-.29-12.12-.29-4.26,0-8.52.15-12.82.29v7.49c0,9.66.29,13.04.66,17.74h-10.47c.59-11.39.66-22.7.66-34.05,0-5.84-.22-11.53-.73-17.3h10.54c-.37,4.11-.66,7.35-.66,21.34,3.75.15,7.57.29,11.31.29,4.55,0,9.07-.15,13.63-.29,0-1.95-.07-11.02-.15-12.89,0-2.31-.07-2.9-.37-8.45h10.69c-.95,7.79-1.07,25.9-1.07,33.68,0,5.91,0,12.27.73,17.67h-10.54c.07-1.36.59-10.4.59-13.19l.07-12.05h.04Z"/>
      <path d="M255.22,24.54c4.96,10.1,7.05,14.07,14.14,26.81l4.04,7.2,2.75-4.89c7.05-12.34,10.32-18.59,17.96-33.83h3.23l.59,6.21c.81,8.85,1.8,17.08,3.01,26.04.59,4.48,2.17,15.35,3.01,19.1h-10.47l-.22-2.75c-.15-1.51-.51-8.15-.66-9.51-.37-3.45-2.17-18.59-2.39-21.71-5.03,8.52-13.41,23.8-17.82,33.98h-2.9c-2.83-5.69-4.7-8.85-10.32-19.69-1.14-2.17-6.43-11.61-7.49-13.55-1.36,10.47-2.61,22-3.16,33.24h-6.58l.44-2.31c1.8-9.29,6.28-40.37,7.2-49.04h3.38l2.31,4.7h-.07Z"/>
      <path d="M341.39,62.89l-3.16-7.93c-3.23-.15-6.35-.29-9.59-.29-3.01,0-5.99.15-9,.29-2.39,5.77-4.78,11.97-5.99,16.24h-6.98l8.67-19.32c7.57-16.93,11.9-26.67,13.7-32.8h4.89c3.6,10.25,8.08,20.75,10.8,27.04,2.83,6.5,7.79,17.82,11.17,25.09h-11.39l-3.16-8.3h.04ZM329.05,31.88l-7.64,18.4c2.61.07,5.18.29,7.79.29,2.31,0,4.55-.15,6.91-.29l-7.05-18.4Z"/>
      <path d="M384.81,48.74c1.14,1.58,2.75,4.04,3.89,5.62,5.91,8.3,7.93,10.95,12.64,16.86h-12.75c-1.14-1.73-2.76-4.48-3.89-6.21-3.82-5.91-8.45-12.49-12.49-18.18h-1.8v10.62c0,2.17.3,11.83.3,13.77h-10.17c.59-14.77.66-16.38.66-30.86,0-9.81,0-10.87-.51-20.53h19.84c4.85,0,8.52.59,11.75,3.67,2.24,2.17,3.45,5.25,3.45,8.38,0,8.3-6.21,12.56-13.04,13.85l2.1,3.01h.04ZM370.45,43.27c1.43.07,3.23.22,5.18.22,7.49,0,10.25-5.47,10.25-10.32,0-3.16-.51-5.84-3.16-7.79-2.02-1.51-4.48-1.87-6.98-1.87-1.43,0-4.19.29-5.33.37v19.39h.04Z"/>
      <path d="M407.29,19.84h10.47c-.51,3.67-.51,9.15-.59,11.83-.07,3.75-.07,8.01-.07,11.9,5.55-4.85,8.52-8.01,12.82-12.64,3.31-3.6,7.35-7.93,9.59-11.09h8.52c-3.82,3.23-9.07,8.23-12.2,11.31-3.75,3.67-4.96,4.78-10.39,10.8l3.97,5.25c3.82,5.03,14.58,19.25,19.83,24.02h-13.04c-5.33-7.49-11.17-15.72-19.1-24.5,0,8.23,0,16.53.66,24.5h-10.47c.66-12.64.66-13.48.66-34.05,0-8.52-.07-9.81-.66-17.3v-.04Z"/>
      <path d="M52.75,19.84c.51,5.77.73,11.46.73,17.3v1.32c2.9.55,5.95,1.1,9.15,1.62,0-13.08.29-16.24.66-20.24h-10.54Z"/>
      <path d="M62.63,47.16c-3.16-.4-6.21-.81-9.15-1.21-.04,8.41-.22,16.82-.66,25.27h10.47c-.37-4.7-.66-8.08-.66-17.74v-6.32Z"/>
      <path d="M457.25,70.97c-1.95,0-3.34-1.4-3.34-3.34s1.4-3.34,3.34-3.34,3.3,1.4,3.3,3.34-1.4,3.34-3.3,3.34ZM457.25,63.66c-2.21,0-3.97,1.8-3.97,3.97s1.8,3.97,3.97,3.97,3.97-1.76,3.97-3.97-1.76-3.97-3.97-3.97Z"/>
      <path d="M457.13,67.33h-.81v-1.47h1.25c.55,0,1.06.07,1.06.7,0,.84-.88.73-1.51.73M459.3,66.56c0-.81-.4-1.25-1.58-1.25h-1.95v4.52h.59v-2.02h.99l1.28,2.02h.66l-1.36-2.02c.81-.07,1.4-.4,1.4-1.25"/>
      <path class="cls-2" d="M222.41,2.24C188.03-.04,149.68-.48,114.35.99c-32.66,1.36-60.76,4.19-81.22,8.19C12.41,13.26,1.28,18.15.11,23.73c-.7,3.31,1.98,6.46,7.97,9.4,12.97,6.35,41.18,11.61,79.45,14.88h.07v-2.9c-30.05-3.27-51.68-7.79-62.56-13.11-3.38-1.65-7.27-4.15-6.72-6.83,1.65-7.9,37.43-17.82,112.07-20.94,30.01-1.25,61.75-1.14,91.9.33.66,0,1.18-.48,1.21-1.1,0-.62-.44-1.18-1.1-1.21Z"/>
      <path class="cls-2" d="M508.19,40.88s-.22.04-.29.15l-6.58,10.06c2.1.92,4.41,1.47,6.87,1.47s4.74-.51,6.87-1.47l-6.57-10.06s-.18-.15-.26-.15"/>
      <path class="cls-2" d="M501.76,32.62l-9.95-.92c-.3,1.29-.48,2.61-.48,4,0,4.19,1.54,8.01,4.08,10.98l6.98-13.3c.15-.4.11-.7-.63-.77Z"/>
      <path class="cls-2" d="M503.53,19.54c-3.2.92-6.02,2.75-8.12,5.22h8.78s.26-.22.07-.4c-.92-1.03-1.72-3.2-.73-4.81Z"/>
      <path class="cls-2" d="M521.01,24.76c-2.1-2.46-4.92-4.3-8.12-5.22.99,1.65.18,3.82-.73,4.81-.19.18-.08.37.07.4h8.82-.04Z"/>
      <path class="cls-2" d="M514.62,32.62c-.74.04-.77.37-.59.77l6.95,13.3c2.53-2.94,4.08-6.76,4.08-10.98,0-1.36-.15-2.72-.48-4l-9.95.92Z"/>
      <path class="cls-2" d="M520.28,51.1l-9-16.82c-.66-1.43-.37-3.82,2.09-4.15l13.11-1.29c.81,2.13,1.25,4.48,1.25,6.91,0,6.24-2.94,11.79-7.49,15.39M518.92,52.09c-3.08,2.02-6.76,3.2-10.73,3.2s-7.67-1.18-10.76-3.2l9.52-14.25c.7-.99,1.76-.92,2.42,0l9.51,14.25h.04ZM488.62,35.74c0-2.42.44-4.74,1.25-6.91l13.11,1.29c2.46.33,2.75,2.72,2.09,4.15l-9,16.86c-4.56-3.6-7.5-9.18-7.5-15.39M508.12,16.2c7.86,0,14.62,4.63,17.74,11.28h-13.92c-1.98-.04-2.87-1.21-2.9-2.17-.04-1.14.15-1.47,1.06-2.68.99-1.36.3-3.93-1.95-3.97-2.28.04-2.98,2.61-1.95,3.97.92,1.21,1.1,1.54,1.07,2.68,0,.96-.92,2.09-2.9,2.17h-13.92c3.12-6.69,9.88-11.28,17.74-11.28M523.92,19.87V.04h-31.56v19.8h-19.8v31.66h19.8v19.8h31.56v-19.8h19.8v-31.66h-19.8v.04ZM535.82,71c-1.95,0-3.34-1.4-3.34-3.34s1.4-3.34,3.34-3.34,3.31,1.4,3.31,3.34-1.4,3.34-3.31,3.34ZM535.82,63.69c-2.21,0-3.97,1.8-3.97,3.97s1.8,3.97,3.97,3.97,3.97-1.76,3.97-3.97-1.76-3.97-3.97-3.97ZM535.71,67.37h-.81v-1.47h1.25c.55,0,1.07.07,1.07.7,0,.84-.88.73-1.51.73M537.87,66.6c0-.81-.4-1.25-1.58-1.25h-1.95v4.52h.59v-2.02h.99l1.29,2.02h.66l-1.36-2.02c.81-.07,1.4-.4,1.4-1.25"/>
      <path class="cls-2" d="M603.81,37.91c-3.78,11.06-9.66,20.83-20.68,27.66-11.02-6.83-16.9-16.64-20.68-27.7-3.34-9.81-4.15-21.3-.48-30.27,5.51,1.91,8.74,2.46,11.75,2.94,2.79.44,5.29.7,9.4.77,4.12-.04,6.58-.33,9.4-.77,3.02-.48,6.25-1.03,11.75-2.94,3.68,8.96,2.87,20.46-.47,30.27M607.37.04c-7.68,3.86-15.28,5.95-24.25,5.95s-16.6-2.13-24.24-5.99c-5.03,9.88-5.84,25.97-1.47,39.41,4.19,12.93,12.34,24.72,25.75,32.14,13.41-7.42,21.56-19.21,25.75-32.14,4.37-13.44,3.56-29.46-1.47-39.38"/>
      <path class="cls-2" d="M603.11,70.97c-1.91,0-3.27-1.36-3.27-3.27s1.36-3.27,3.27-3.27,3.27,1.36,3.27,3.27-1.36,3.27-3.27,3.27ZM603.11,63.8c-2.17,0-3.89,1.73-3.89,3.86s1.76,3.89,3.89,3.89,3.89-1.73,3.89-3.89-1.72-3.86-3.89-3.86Z"/>
      <path class="cls-2" d="M603,67.4h-.77v-1.43h1.21c.55,0,1.06.07,1.06.7,0,.84-.88.73-1.51.73ZM605.09,66.67c0-.81-.4-1.21-1.54-1.21h-1.91v4.44h.55v-1.98h.96l1.25,1.98h.62l-1.32-1.98c.77-.07,1.4-.37,1.4-1.25Z"/>
      <path class="cls-2" d="M579.42,19.39c.37.26.29.73.84.62.26-.04.44-.22.7-.4,0,0,.33,0,.4.04-.59-.59-1.76-.59-2.57-.62.19.37.4.18.66.33"/>
      <path class="cls-2" d="M591.02,20.64c-.15.55-.29.55-.66.88-.73.7-1.76,1.4-2.72,2.31-.63.59-1.21.96-1.66,1.65-.11.15-.33.62-.33.62-1.65-.33-3.34-.37-4.63-.62l-.07-1.43s1.65,0,1.84-1.03c0-.04,0-.37-.22-.48-.22-.18-.73-.37-.85-.4,1.25.18,2.35.66,3.64,1.21.07-.15-.11-.62-.22-.73-.18-.18-.36-.37-.84-.44-.77-.22-2.68-.44-2.68-.44,0,0,.7,0,1.62-.07.4-.07.81-.22.92-.37.08-.22,0-.51-.33-.81-.19-.18-.37-.37-.51-.59-.19-.26-.44-.77-.77-1.07-.4-.48-1.69-.99-1.69-.99,0,0-.11-.84.11-1.25.15-.29.85-.33,1.06-.22.96.51,2.02,1.1,3.27,1.32.26.18.26.26.36.62.19.84-.15,2.09,0,2.68.08.18.26.18.4.11,1.18-.62,1.98-1.73,3.16-2.24.55-.22,2.17.55,1.8,1.73M585.77,36.81s.15-2.5.15-3.71c.66-.26.81-.92.55-1.43-.15-.29-.62-.51-.92-.59-1.4-.33-2.64-.4-4.08-.55-1.25-.15-2.24-.29-3.38-.59-2.35-.59-4.34-1.69-5.36-3.82-1.29-2.64-.15-5.91,2.39-7.24,1.91-.99,4.08-.81,5.99-.07.66.26,1.03.84,1.43,1.4.18.26.48.37.62.62.11.15-.11.22-.22.26-.44.11-1.84.15-2.32.07-.59-.07-1.54-.04-2.13.07.59.33,1.25.77,1.87.99.36.15.66.15.99.29.15.07.55.18.55.37-.04.18-.37.26-.62.33-.55.15-1.29.18-1.98,0-1.1-.26-1.62-.88-2.32-.51-.44.26-.48.88-.33,1.51.26.99,1.25,1.4,2.13,1.65,3.02.96,6.21.4,9.15,1.95,1.14.59,2.42,1.76,2.65,3.01.99,5.25-4.93,5.88-4.93,5.88M580.92,31.44s.59.07,2.06.15c1.1.07,1.87.4,1.87.4l-.15,5.29c-1.18-.22-1.95-.37-3.05-.48-.36-1.91-.81-2.57-1.58-3.97-.18-.33,0-.44,0-.51.11-.18.88-.37.88-.37v-.44l-.04-.07ZM588.97,42.98c-.22.84-.77,1.54-1.65,2.09-.96.55-1.95.59-1.95.59l.07-2.9s.22-.04.37-.22c.15-.18.18-.29.15-.55,0-.15-.15-.37-.4-.48-.29-.11-.73-.18-.92-.18-1.43-.18-2.75-.33-4.15-.55-2.53-.4-4.34-1.87-4.19-4.3.11-1.62,1.8-2.13,3.02-2.64.4.7.73,1.43.88,1.84.22.66.37,1.07.37,1.07,0,0-.55.11-.48.55.04.4.48.55.74.59,1.76.26,4.11.55,5.36.96.84.29,1.65.77,2.09,1.4.7.99.88,1.76.62,2.75M581.92,41.95c1.14.15,1.58.18,2.57.29l-.11,4.78-1.1-.59-1.1-.51-.26-3.93v-.04ZM586.36,53.3c-.62.51-1.4.7-1.4.7l.07-2.06s.22-.22.15-.44c-.11-.4-1.55-1.4-2.35-1.69-.81-.29-1.84-.62-2.61-.96-1.76-.77-2.38-2.31-1.69-4,.26-.62.96-1.03,1.36-1.29.4-.26,1.03-.44,1.03-.44l.18,2.39s-.22.07-.29.29c-.15.4.26.66.36.7,1.14.51,2.83,1.18,4.04,1.91,1.58.92,2.09,1.62,2.09,2.72,0,.99-.44,1.65-1.03,2.13M584.05,58.44c0,.37-.15.66-.88.7-.59,0-.84-.18-.88-.81-.11-2.75-.22-7.93-.22-7.93,0,0,.77.22,1.14.44.11.07.52.33.88.7.07.11.15.15.11.29-.04,2.02-.18,5.73-.18,6.61M580.96,56.16c-.11.73.18,1.03.11,1.36-.11.55-.48.4-.7,0-.3-.55-.48-.84-.55-1.69-.15-1.36.55-1.98.84-2.31.33-.33.66-.51.66-.51l.11,2.28s-.37.15-.48.84M592.38,12.97c-3.23.44-6.43.73-9.55.77-3.16,0-6.35-.33-9.59-.77-3.23-.44-6.35-1.18-9.7-2.06-2.35,6.61-1.83,14.99-.04,22.41,3.38,14,11.83,24.65,19.32,29.35,7.46-4.7,15.94-15.35,19.32-29.35,1.8-7.46,2.28-15.79-.04-22.41-3.34.88-6.46,1.62-9.7,2.06"/>
      <path class="cls-2" d="M703.06,37.91c-3.78,11.06-9.66,20.83-20.68,27.66-11.02-6.83-16.9-16.64-20.68-27.7-3.34-9.81-4.15-21.3-.48-30.27,5.51,1.91,8.74,2.46,11.75,2.94,2.79.44,5.29.7,9.4.77,4.11-.04,6.57-.33,9.4-.77,3.01-.48,6.25-1.03,11.75-2.94,3.67,8.96,2.87,20.46-.48,30.27M706.62.04c-7.67,3.86-15.28,5.95-24.24,5.95s-16.6-2.13-24.25-5.99c-5.03,9.88-5.84,25.97-1.47,39.41,4.19,12.93,12.34,24.72,25.75,32.14,13.41-7.42,21.56-19.21,25.75-32.14,4.37-13.44,3.57-29.46-1.47-39.38"/>
      <path class="cls-2" d="M702.36,70.97c-1.91,0-3.27-1.36-3.27-3.27s1.36-3.27,3.27-3.27,3.27,1.36,3.27,3.27-1.36,3.27-3.27,3.27ZM702.36,63.8c-2.17,0-3.89,1.73-3.89,3.86s1.76,3.89,3.89,3.89,3.89-1.73,3.89-3.89-1.72-3.86-3.89-3.86Z"/>
      <path class="cls-2" d="M702.25,67.4h-.77v-1.43h1.21c.55,0,1.06.07,1.06.7,0,.84-.88.73-1.51.73ZM704.35,66.67c0-.81-.4-1.21-1.55-1.21h-1.91v4.44h.55v-1.98h.96l1.25,1.98h.62l-1.32-1.98c.77-.07,1.4-.37,1.4-1.25Z"/>
      <path class="cls-2" d="M678.7,19.39c.37.26.3.73.85.62.26-.04.44-.22.7-.4,0,0,.33,0,.4.04-.59-.59-1.76-.59-2.57-.62.18.37.4.18.66.33"/>
      <path class="cls-2" d="M690.28,20.64c-.15.55-.3.55-.66.88-.73.7-1.76,1.4-2.72,2.31-.62.59-1.21.96-1.65,1.65-.11.15-.33.62-.33.62-1.65-.33-3.34-.37-4.63-.62l-.07-1.43s1.66,0,1.84-1.03c0-.04,0-.37-.22-.48-.22-.18-.74-.37-.85-.4,1.25.18,2.35.66,3.63,1.21.07-.15-.11-.62-.22-.73-.19-.18-.37-.37-.85-.44-.77-.22-2.68-.44-2.68-.44,0,0,.7,0,1.62-.07.4-.07.81-.22.92-.37.07-.22,0-.51-.33-.81-.18-.18-.37-.37-.51-.59-.18-.26-.44-.77-.77-1.07-.4-.48-1.69-.99-1.69-.99,0,0-.11-.84.11-1.25.15-.29.85-.33,1.06-.22.96.51,2.02,1.1,3.27,1.32.26.18.26.26.37.62.18.84-.15,2.09,0,2.68.07.18.26.18.4.11,1.17-.62,1.98-1.73,3.16-2.24.55-.22,2.17.55,1.8,1.73M685.02,36.81s.15-2.5.15-3.71c.66-.26.81-.92.55-1.43-.15-.29-.63-.51-.92-.59-1.4-.33-2.65-.4-4.08-.55-1.25-.15-2.24-.29-3.38-.59-2.35-.59-4.33-1.69-5.36-3.82-1.29-2.64-.15-5.91,2.38-7.24,1.91-.99,4.08-.81,5.99-.07.66.26,1.03.84,1.43,1.4.18.26.48.37.62.62.11.15-.11.22-.22.26-.44.11-1.83.15-2.31.07-.59-.07-1.55-.04-2.13.07.59.33,1.25.77,1.87.99.37.15.66.15.99.29.15.07.55.18.55.37-.04.18-.36.26-.62.33-.55.15-1.29.18-1.98,0-1.1-.26-1.62-.88-2.32-.51-.44.26-.48.88-.33,1.51.26.99,1.25,1.4,2.13,1.65,3.01.96,6.21.4,9.15,1.95,1.14.59,2.42,1.76,2.64,3.01.99,5.25-4.92,5.88-4.92,5.88M680.17,31.44s.59.07,2.06.15c1.1.07,1.87.4,1.87.4l-.15,5.29c-1.17-.22-1.95-.37-3.05-.48-.37-1.91-.81-2.57-1.58-3.97-.19-.33,0-.44,0-.51.11-.18.88-.37.88-.37v-.44l-.04-.07ZM688.22,42.98c-.22.84-.77,1.54-1.66,2.09-.96.55-1.95.59-1.95.59l.07-2.9s.22-.04.37-.22c.15-.18.19-.29.15-.55,0-.15-.15-.37-.4-.48-.3-.11-.74-.18-.92-.18-1.43-.18-2.76-.33-4.15-.55-2.53-.4-4.34-1.87-4.19-4.3.11-1.62,1.8-2.13,3.01-2.64.4.7.73,1.43.88,1.84.22.66.36,1.07.36,1.07,0,0-.55.11-.47.55.04.4.47.55.73.59,1.76.26,4.11.55,5.36.96.85.29,1.65.77,2.09,1.4.7.99.88,1.76.62,2.75M681.17,41.95c1.14.15,1.58.18,2.57.29l-.11,4.78-1.1-.59-1.1-.51-.26-3.93v-.04ZM685.61,53.3c-.62.51-1.4.7-1.4.7l.08-2.06s.22-.22.15-.44c-.11-.4-1.54-1.4-2.35-1.69s-1.84-.62-2.61-.96c-1.76-.77-2.39-2.31-1.69-4,.26-.62.96-1.03,1.36-1.29.4-.26,1.03-.44,1.03-.44l.19,2.39s-.22.07-.3.29c-.15.4.26.66.37.7,1.14.51,2.83,1.18,4.04,1.91,1.58.92,2.09,1.62,2.09,2.72,0,.99-.44,1.65-1.03,2.13M683.3,58.44c0,.37-.15.66-.88.7-.59,0-.85-.18-.88-.81-.11-2.75-.22-7.93-.22-7.93,0,0,.77.22,1.14.44.11.07.51.33.88.7.07.11.15.15.11.29-.04,2.02-.18,5.73-.18,6.61M680.21,56.16c-.11.73.19,1.03.11,1.36-.11.55-.48.4-.7,0-.29-.55-.48-.84-.55-1.69-.15-1.36.55-1.98.85-2.31.33-.33.66-.51.66-.51l.11,2.28s-.36.15-.48.84M691.64,12.97c-3.23.44-6.43.73-9.55.77-3.16,0-6.35-.33-9.59-.77-3.23-.44-6.35-1.18-9.7-2.06-2.35,6.61-1.84,14.99-.04,22.41,3.38,14,11.83,24.65,19.32,29.35,7.46-4.7,15.94-15.35,19.32-29.35,1.8-7.46,2.28-15.79-.04-22.41-3.34.88-6.46,1.62-9.69,2.06"/>
      <rect class="cls-1" x="630.32" y=".11" width="2.73" height="72.14"/>
    </g>
  </g>
</svg>