<?xml version="1.0" encoding="UTF-8"?>
<svg id="Layer_2" data-name="Layer 2" xmlns="http://www.w3.org/2000/svg" viewBox="0 0 497.08 96.53">
  <defs>
    <style>
      .cls-1 {
        fill: #4e8416;
      }
    </style>
  </defs>
  <g id="Capa_1" data-name="Capa 1">
    <g>
      <g>
        <path class="cls-1" d="M488.56,78.9c-4.7-.03-8.55,3.72-8.64,8.41-.1,4.74,3.67,8.66,8.41,8.76,4.74.1,8.66-3.67,8.76-8.41h0s0-.09,0-.09c.04-4.75-3.78-8.63-8.53-8.67ZM488.98,94.02c-3.76.25-7.02-2.59-7.27-6.36,0-.08,0-.16,0-.24-.05-3.84,3.01-6.99,6.85-7.05,3.58.02,6.54,2.8,6.78,6.37.25,3.76-2.59,7.02-6.36,7.27Z"/>
        <path class="cls-1" d="M490.78,89.53l-.56-.99c1.23-.43,2.03-1.63,1.94-2.94,0-2.05-1.51-2.74-3.83-2.74h0s-3.09,0-3.09,0v9.25c0,.1.22.21.58.21h.75c.36,0,.55-.11.55-.21v-3.38h1.24l.83,1.44c.38.67.81,1.31,1.27,1.93.1.11.26.23.83.23h.55c.48,0,.78-.09.67-.26-.62-.81-1.19-1.66-1.71-2.54ZM488.49,87.26h-1.38v-2.85h1.17c.97,0,2.06.19,2.06,1.34,0,.88-.53,1.51-1.85,1.51Z"/>
      </g>
      <path class="cls-1" d="M131.09,22.89c-1.48.02-2.68,1.22-2.68,2.71v55.05c-4.15.95-8.39,1.43-12.65,1.42-9.49,0-12.92-3.53-12.92-13.89V25.6c.06-1.43-1.05-2.64-2.48-2.7-.03,0-.06,0-.09,0h-14.5v45.4c0,21.31,11.25,28.24,29.47,28.24,10.21-.22,20.35-1.75,30.18-4.53V22.89h-14.33Z"/>
      <path class="cls-1" d="M352.51,95.71c1.48-.02,2.68-1.22,2.68-2.71v-55.55c4.15-.95,8.39-1.42,12.65-1.42,9.49,0,12.93,3.53,12.93,13.89v43.07c-.07,1.43,1.04,2.64,2.46,2.7.03,0,.07,0,.1,0h14.5v-45.89c0-21.31-11.25-28.24-29.47-28.24-10.21.23-20.35,1.75-30.18,4.53v69.6h14.33Z"/>
      <path class="cls-1" d="M294.7,21.68h0c-18.77,0-30.61,10.18-30.61,31.95v10.92c0,24.12,12.81,31.95,26.69,31.95,6.83,0,13.86-4.77,16.16-7.83v4.51c.05,1.39,1.17,2.49,2.56,2.53h14.46V25.84c-9.54-2.61-19.37-4.01-29.26-4.17ZM306.94,78.02c-3.14,2.64-5.58,4.35-12.24,4.56-9.51,0-13.61-5.81-13.61-18.21v-10.09c0-14.28,5.26-18.2,13.61-18.2,4.1-.1,8.2.19,12.24.87v41.06Z"/>
      <path class="cls-1" d="M440.36,21.68h0c-18.77,0-30.61,10.18-30.61,31.95v10.92c0,24.12,12.81,31.95,26.69,31.95,6.84,0,13.87-4.77,16.17-7.83v4.51c.05,1.39,1.17,2.49,2.56,2.53h14.47V25.84c-9.54-2.61-19.38-4.01-29.27-4.17ZM452.61,78.02c-3.14,2.64-5.59,4.35-12.24,4.56-9.52,0-13.6-5.81-13.6-18.21v-10.09c0-14.28,5.26-18.2,13.6-18.2,4.1-.1,8.2.19,12.24.87v41.06Z"/>
      <path class="cls-1" d="M0,95.7h15.27c1.39-.08,2.5-1.19,2.58-2.58v-40.3h28.18c4.36-.06,7.98,3.36,8.16,7.72v32.58c.02,1.4,1.14,2.53,2.53,2.58h15.29V0h-15.29c-1.34.02-2.44,1.07-2.53,2.41v35.95h-29.33c-3.8,0-6.91-3.02-7.01-6.82V2.41c-.11-1.35-1.23-2.39-2.58-2.41H0v95.7Z"/>
      <path class="cls-1" d="M226.18,21.61c-6.79.04-13.43,1.97-19.18,5.56-5.23-3.93-12.37-5.56-21.19-5.56-8.92.07-17.77,1.69-26.14,4.79v69.32h14.44c1.44-.02,2.59-1.21,2.57-2.65,0,0,0,0,0,0v-.07s0-55.71,0-55.71c2.72-.8,5.54-1.22,8.37-1.26,9.99,0,12.41,4.01,12.41,13.9v43.07c0,1.45,1.13,2.65,2.58,2.71h11.9c1.41.02,2.57-1.11,2.59-2.52,0-.07,0-.13,0-.2v-53.55c2.82-2.27,6.34-3.47,9.96-3.41,7.71,0,10.84,3.47,10.84,12.92v44.05c-.03,1.45,1.11,2.66,2.56,2.71h14.42v-49.09c0-18.61-11.61-25.01-26.13-25.01"/>
    </g>
  </g>
</svg>