<?xml version="1.0" encoding="UTF-8"?>
<svg id="Layer_2" data-name="Layer 2" xmlns="http://www.w3.org/2000/svg" viewBox="0 0 1120.71 301.24">
  <defs>
    <style>
      .cls-1 {
        fill: #367ca8;
        fill-rule: evenodd;
      }
    </style>
  </defs>
  <g id="Capa_1" data-name="Capa 1">
    <g>
      <path class="cls-1" d="M202.95,91.05c-3.67-3.05-7.95-6.11-12.22-7.33l-7.33,143.6,35.44-98.99c3.67-15.29-4.88-28.12-15.88-37.28h0ZM144.29,82.49l20.78,142.99,20.78-142.99c-12.22-4.27-28.1-4.88-41.55,0ZM127.18,91.05c-11.61,9.17-19.55,22-16.5,36.67l35.44,98.99-6.72-142.99c-4.28,1.22-9.17,4.28-12.22,7.33h0ZM55.08,104.49c23.83,41.55,48.27,86.76,71.49,126.48-7.95-34.82-16.5-92.87-28.71-109.37-14.06-19.55-42.78-17.1-42.78-17.1ZM12.92,125.27l97.15,113.04L50.19,105.1c-15.88.61-29.33,8.56-37.27,20.16ZM216.39,155.82l-15.88,77.59c20.78-36.04,41.55-71.48,61.71-108.14-19.56,1.83-39.11,9.16-45.83,30.55ZM267.72,125.27l-51.33,114.87,90.44-98.37c-10.39-11-23.84-15.88-39.11-16.5ZM.09,176.59c31.78,24.44,63.54,49.5,95.32,73.93L9.87,129.54C1.92,142.99-.52,158.87.09,176.59ZM317.82,155.82c-1.88-3.83-4.35-7.34-7.33-10.39l-78.21,106.31c30.64-22.78,60.79-46.21,90.44-70.27.61-9.16-.61-18.32-4.89-25.65ZM.7,226.09l82.49,37.87C55.69,236.47,28.19,210.19.7,183.31v42.78h0ZM322.71,228.53v-39.11l-78.21,76.39c26.88-12.24,51.33-24.46,78.21-37.28ZM.09,263.96c25.05,5.5,52.55,12.23,75.16,17.12L.09,231.58v32.38ZM322.71,265.8v-29.94c-23.22,15.27-47.66,30.55-69.05,45.82l69.05-15.88ZM.09,301.24h73.32L.09,270.08v31.16ZM322.71,301.24v-28.72c-23.83,10.39-44.61,18.95-67.21,28.72h67.21Z"/>
      <path class="cls-1" d="M297.66,87.38c1.22-43.38-63.54-43.99-62.32,0-.61,40.33,64.16,42.16,62.32,0ZM89.29,64.78c1.84-43.99-65.99-42.16-63.54,0-2.44,43.99,67.82,44.61,63.54,0ZM165.06,73.33c25.66.61,35.44-17.72,36.05-35.44,1.22-26.88-15.88-37.88-36.05-37.88s-36.05,11.61-35.44,37.88c.61,14.67,6.72,34.83,35.44,35.44ZM532.9,174.76h14.05v-81.27h-14.05v81.27ZM506.02,151.54l7.95,23.22h14.66l-28.11-81.27h-17.71l-23.83,69.05-23.22-29.33,31.16-39.71h-16.5l-28.72,38.49v-38.49h-14.05v81.27h14.05v-39.72l29.94,39.72h16.5l7.95-23.22h29.95ZM490.74,106.32l11.61,33.61h-22.61l11-33.61h0ZM634.94,278.63l-14.05-59.27h-25.06v81.88h14.06v-69.66l17.72,69.66h14.66l17.72-69.66v69.66h13.44v-81.88h-23.82l-14.67,59.27ZM708.88,219.36l-28.11,81.88h14.05l7.33-23.82h29.94l7.95,23.82h14.66l-28.11-81.88h-17.71ZM705.82,266.42l11-34.22,11.61,34.22h-22.61ZM812.14,282.29l-32.38-62.93h-18.95v81.88h13.44v-61.71l32.38,61.71h18.95v-81.88h-13.44v62.93h0ZM1079.77,289.02h-33.61v-22.61h24.44v-12.23h-24.44v-22.61h30.55v-12.22h-44.61v81.88h47.67v-12.22ZM950.84,219.36h-2.44v63.54l-32.38-63.54h-18.95v69.66h-42.77v-22.61h25.05v-12.23h-25.05v-22.61h30.55v-12.22h-44.61v81.88h70.27v-62.32l32.39,62.32h18.93v-69.66h25.06v69.66h14.05v-69.66h24.45l-.61-12.22h-73.94ZM575.67,260.3c4.29-4.27,7.95-9.78,7.95-17.72,0-7.33-3.66-13.44-7.95-17.1-4.88-4.29-11.61-6.12-23.82-6.12h-23.22v69.66h-43.38v-22.61h25.05v-12.23h-25.05v-22.61h30.55v-12.22h-44.61v81.88h71.49v-34.82h6.72c6.73,10.39,20.78,34.82,20.78,34.82h16.5l-22.01-36.05c4.89-.61,7.95-2.44,10.99-4.88ZM542.68,254.81v-23.23h11.61c11.01,0,15.28,4.29,15.28,11,0,7.95-4.27,12.23-15.28,12.23h-11.61ZM689.33,140.54h7.32c6.12,9.78,20.16,34.22,20.16,34.22h16.5l-21.99-35.45c4.88-1.22,8.56-3.05,11-5.5,4.27-3.67,7.95-9.78,7.95-17.11,0-7.94-3.06-13.44-7.95-17.11-4.9-4.28-11.61-6.11-23.22-6.11h-23.84v69.66h-43.38v-23.22h25.06v-11.61h-25.06v-23.22h31.16v-11.61h-44.6v81.27h70.88v-34.23h0ZM689.33,127.71v-22.61h12.22c10.39,0,14.66,4.28,14.66,11.61,0,7.95-4.27,11.61-14.66,11.61h-12.22v-.61ZM454.69,225.48c-4.89-4.29-11.61-6.12-23.22-6.12h-23.83v81.88h14.05v-33.61h9.78c11.61,0,18.33-1.83,23.22-6.12,4.27-4.27,7.94-10.39,7.94-18.33.09-6.78-2.82-13.26-7.94-17.71h0ZM433.3,255.42h-11.61v-23.84h11.61c11,0,15.28,4.9,15.28,11.61,0,7.33-4.89,12.23-15.28,12.23ZM609.28,151.54c0-11.61-7.33-18.94-21.39-24.44-11-3.67-16.5-6.72-16.5-13.44,0-4.89,4.9-10.39,15.28-10.39,6.71,0,14.05,2.44,17.1,4.28v-11.61c-3.05-1.83-10.39-3.67-17.1-3.67-17.72,0-29.33,9.78-29.33,22.61s9.17,18.94,22.61,23.83c10.39,3.67,15.27,7.33,15.27,14.05s-6.1,11.61-15.88,11.61c-7.33,0-17.12-2.45-21.99-6.12v12.83c4.27,2.44,12.83,4.9,21.39,4.9,20.78,0,30.55-11.61,30.55-24.44h0ZM1089.55,284.12c0-7.93,6.12-14.05,14.05-14.05s14.06,6.12,14.06,14.05c.12,7.64-5.97,13.94-13.61,14.06-.15,0-.3,0-.45,0-7.93,0-14.05-6.11-14.05-14.06ZM1103.6,301.24c9.17,0,17.12-7.33,17.12-17.12s-7.95-17.1-17.12-17.1-17.1,7.32-17.1,17.1,7.94,17.12,17.1,17.12ZM1099.94,285.35h3.66l4.9,8.56h3.66l-6.12-8.56c3.06-.61,5.5-1.83,5.5-5.49s-2.44-5.5-7.33-5.5h-7.32v19.55h3.05v-8.56h0ZM1099.94,282.91v-6.1h4.27c1.83,0,4.29.61,4.29,3.05,0,3.05-2.46,3.05-4.9,3.05h-3.66s0,0,0,0Z"/>
    </g>
  </g>
</svg>