<?xml version="1.0" encoding="UTF-8"?>
<svg id="Layer_2" data-name="Layer 2" xmlns="http://www.w3.org/2000/svg" viewBox="0 0 461.7 161.19">
  <defs>
    <style>
      .cls-1 {
        fill: #221f1f;
      }

      .cls-2 {
        fill: #0e86c8;
      }
    </style>
  </defs>
  <g id="Capa_1" data-name="Capa 1">
    <g>
      <path class="cls-1" d="M311.47,93.32s-3.42-2.59-3.42-11.6V.06h14.57v68.86c0,8.19-1.12,18.81,4.93,24.4h-16.08Z"/>
      <path class="cls-1" d="M285.56,93.32s-3.42-2.69-3.42-11.6V.06h14.57v68.86c0,8.19-1.12,18.81,4.93,24.4h-16.08Z"/>
      <path class="cls-1" d="M125.06,63.46c-1.83,0-3.59.22-5.26.71-1.67.47-3.14,1.18-4.38,2.16-1.26.98-2.26,2.2-3.02,3.69-.75,1.49-1.12,3.22-1.12,5.22,0,1.55.29,2.85.86,3.89s1.35,1.88,2.32,2.53c.96.65,2.06,1.12,3.26,1.39,1.22.29,2.49.43,3.81.43,2.18,0,4.42-.37,6.73-1.08,2.3-.71,4.28-1.79,5.89-3.28l.12-15.17c-1.49-.2-3.02-.35-4.59-.43-1.55-.06-3.1-.1-4.65-.1M135.94,90.89c-1.12.77-2.32,1.43-3.63,1.98s-2.67.98-4.08,1.32-2.83.59-4.26.75c-1.43.14-2.81.22-4.14.22-2.94,0-5.79-.37-8.56-1.1-2.75-.73-5.2-1.88-7.34-3.42-2.14-1.57-3.87-3.55-5.16-5.93-1.3-2.38-1.96-5.24-1.96-8.52,0-3.93.77-7.42,2.28-10.48,1.51-3.06,3.55-5.61,6.09-7.71,2.53-2.1,5.46-3.69,8.74-4.77s6.73-1.61,10.31-1.61c1.63,0,3.28.04,4.99.16,1.71.1,3.38.26,4.99.49v-2.41c0-2.04-.2-3.71-.61-5.01-.41-1.32-1.04-2.36-1.92-3.12-.88-.75-2-1.28-3.4-1.59-1.39-.31-3.04-.45-4.97-.45-3.34,0-6.65.12-9.89.65-5.95.98-10.33,4.2-10.33,4.2v-11.25c3.44-2.32,6.67-3.63,11.33-4.61,4-.84,7.28-.84,11.23-.84,3.04,0,5.91.43,8.62,1.26s5.1,2.1,7.15,3.79,3.69,3.79,4.87,6.28c1.2,2.51,1.79,5.42,1.79,8.74,0,4.97-.04,9.95-.12,14.92s-.12,9.93-.12,14.9c0,2.81.29,5.46.86,7.93.57,2.49,1.45,5.44,3.69,7.6h-14.7l-1.85-2.38.06-.02Z"/>
      <path class="cls-1" d="M358.74,63.46c-1.83,0-3.59.22-5.26.71-1.67.47-3.14,1.18-4.4,2.16-1.26.98-2.26,2.2-3.02,3.69-.75,1.49-1.12,3.22-1.12,5.22,0,1.55.29,2.85.86,3.89s1.35,1.88,2.3,2.53,2.06,1.12,3.26,1.39c1.22.29,2.49.43,3.81.43,2.18,0,4.42-.37,6.73-1.08s4.28-1.79,5.89-3.28l.12-15.17c-1.49-.2-3.02-.35-4.59-.43-1.57-.06-3.12-.1-4.65-.1M369.58,90.89c-1.12.77-2.32,1.43-3.63,1.98s-2.65.98-4.06,1.32-2.83.59-4.26.75c-1.43.14-2.81.22-4.14.22-2.96,0-5.81-.37-8.56-1.1-2.75-.73-5.2-1.88-7.34-3.42-2.14-1.57-3.85-3.55-5.16-5.93s-1.96-5.24-1.96-8.52c0-3.93.75-7.42,2.28-10.48s3.55-5.61,6.09-7.71,5.46-3.69,8.74-4.77c3.3-1.08,6.73-1.61,10.31-1.61,1.63,0,3.28.04,5.01.16,1.71.1,3.36.26,4.99.49v-2.41c0-2.04-.2-3.71-.61-5.01-.41-1.32-1.04-2.36-1.92-3.12-.88-.75-2.02-1.28-3.4-1.59s-3.04-.45-4.97-.45c-3.34,0-6.65.12-9.89.65-5.95.98-10.33,4.2-10.33,4.2v-11.25c3.42-2.32,6.67-3.63,11.33-4.61,4-.84,7.26-.84,11.25-.84,3.04,0,5.91.43,8.62,1.26s5.1,2.1,7.15,3.79c2.04,1.69,3.67,3.79,4.87,6.28,1.2,2.51,1.79,5.42,1.79,8.74,0,4.97-.04,9.95-.12,14.92s-.12,9.93-.12,14.9c0,2.81.29,5.46.88,7.93.57,2.49,1.32,5.01,2.28,7.6h-13.27l-1.85-2.38-.04-.02Z"/>
      <path class="cls-1" d="M71.28,0c-12.37,16.43-23.14,40.26-26.97,59.38C41.42,41.28,30.7,16.43,18.33,0H0v93.3h15.21V21.57c6.73,10.93,15.23,30.94,21.08,57.42h16c5.44-23.89,15.15-46.7,21.81-57.42v71.73h15.43V0s-18.24,0-18.24,0Z"/>
      <path class="cls-1" d="M184.54,39.5c11.48,0,12.56,9.66,12.62,12.62.04,1.79-.22,6.26-3.57,9.27-2.16,1.96-5.22,2.94-9.05,2.94-9.7,0-13.15-6.32-13.15-12.25,0-7.54,5.28-12.6,13.15-12.6M211.44,91.08c-3.51-2.94-9.91-4.85-11.8-5.46l-.1-.04c-6.09-1.94-19.98-5.28-22.75-5.93,1.53-1.92,2.85-3.34,3.75-4.24h.14c2.3.29,4,.29,4.87.29,15.17,0,25.77-9.5,25.77-23.07,0-3.18-.59-7.28-2.87-11.03l7.75-1.37v-13.47c-9.32,3.06-17.96,2.04-29.74,1.12-5.42-.43-19.87,0-26.56,12.92-1.81,3.53-2.75,7.62-2.75,11.82,0,8.64,4.1,15.72,11.07,19.28.06.02.12.06.16.08-1.9,2.1-7.75,9.97-11.23,16.35l28.76,7.6c8.07,2.38,17.75,4.59,17.75,11.23,0,4.67-4.06,10.7-15.37,10.7-12.56,0-14.88-6.46-14.88-9.99,0-2.61.88-4.22,2.77-6.26l-15.08-4.02c-.96,2.2-2.26,5.99-2.04,11.31.26,5.83,2.71,11.13,7.6,14.86,5.28,4.04,11.88,5.87,21,5.87,20.91,0,30.45-12.29,30.45-23.73,0-6.18-2.24-11.17-6.62-14.84"/>
      <path class="cls-1" d="M429.26,53.08c0-11.97-4.36-14.53-13.25-13.13-5.59.9-9.64,3.4-9.64,3.4v49.94h-14.06v-50.86c0-7.58-2.41-12.43-3.65-14.06h14.35l1.71,3.18s9.3-3.71,17.88-3.67c14.33.06,20.75,8.87,20.75,26.64v38.77h-14.11v-40.24l.02.02Z"/>
      <path class="cls-1" d="M246.99,39.79c7.85,0,12.15,5.2,12.15,16.47v.63h-24.81c0-11.54,4.69-17.1,12.66-17.1M272.96,67.92c.39-2.08.61-5.85.61-7.6,0-21.87-9.48-32.43-26.46-32.43s-27.84,12.17-27.84,32.55c0,22.18,11.52,34.71,32.02,34.71,6.83,0,12.96-1.85,19.53-4.77v-11.78s-7.93,4.04-16.14,4.04-17.88-1.16-19.51-14.74h37.79v.02Z"/>
      <path class="cls-2" d="M231.46,160.79c-3.02,0-4.55-1.47-4.55-4.4v-43.34c0-2.94,1.55-4.42,4.55-4.42h3.81v21.83h16.41v-17.41c0-2.94,1.53-4.42,4.53-4.42h3.91v52.18h-3.91c-3.02,0-4.53-1.47-4.53-4.4v-17.47h-16.41v21.89h-3.81v-.04Z"/>
      <path class="cls-2" d="M279.2,148.9c0,1.2.29,2.06,1.04,2.63.57.61,1.24.84,2.04.84h13.39c3.02,0,4.46,1.49,4.46,4.36v4.08h-17.92c-2.83,0-5.36-.88-7.58-2.67-2.51-2.22-3.81-5.26-3.81-9.21v-28.39c0-3.95,1.28-6.97,3.81-9.11,2.12-1.88,4.63-2.79,7.58-2.79h17.92v4.1c0,2.98-1.45,4.46-4.46,4.46h-13.39c-.79,0-1.47.24-2.04.73-.75.57-1.04,1.49-1.04,2.63v9.95h20.93v4.1c0,2.85-1.45,4.34-4.46,4.34h-16.47v10.01-.04Z"/>
      <path class="cls-2" d="M332.03,112.48l13.76,48.31h-5.2c-1.04,0-1.94-.31-2.83-.88-.86-.57-1.41-1.32-1.65-2.28l-2.83-10.19h-16.08l-3.73,13.35h-4.71c-1.24,0-2.12-.49-2.69-1.55-.41-.73-.41-1.63-.14-2.71l12.58-44.07c.75-2.61,2.91-3.95,6.75-3.95,1.53,0,2.91.22,4.16.84,1.37.73,2.26,1.71,2.65,3.12M330.85,138.98l-5.61-19.98-5.61,19.98h11.21Z"/>
      <path class="cls-2" d="M360.12,150.13c0,1.51.71,2.24,2.3,2.24h10.46c3.02,0,4.48,1.49,4.48,4.36v4.08h-15.37c-3.4,0-5.93-.79-7.64-2.53-1.69-1.73-2.59-4.18-2.59-7.54v-37.69c0-2.94,1.55-4.42,4.55-4.42h3.81v41.5Z"/>
      <path class="cls-2" d="M373.92,113.03c0-2.94,1.47-4.42,4.48-4.42h24.83v4.1c0,2.98-1.51,4.46-4.53,4.46h-5.93v43.62h-3.91c-3,0-4.44-1.47-4.44-4.4v-39.22h-10.5v-4.14h0Z"/>
      <path class="cls-2" d="M414.69,160.79c-3,0-4.53-1.47-4.53-4.4v-43.34c0-2.94,1.55-4.42,4.53-4.42h3.83v21.83h16.41v-17.41c0-2.94,1.53-4.42,4.53-4.42h3.91v52.18h-3.91c-3.02,0-4.53-1.47-4.53-4.4v-17.47h-16.41v21.89h-3.83v-.04Z"/>
      <path class="cls-2" d="M461.7,156.41c0,2.67-2.14,4.78-4.87,4.78s-4.9-2.12-4.9-4.78,2.17-4.76,4.93-4.76,4.84,2.09,4.84,4.76ZM453.15,156.41c0,2.12,1.6,3.8,3.71,3.8,2.06.03,3.62-1.68,3.62-3.77s-1.57-3.83-3.68-3.83-3.65,1.71-3.65,3.8ZM456.08,158.87h-1.1v-4.76c.43-.06,1.04-.15,1.83-.15.9,0,1.3.15,1.62.38.29.2.49.55.49,1.02,0,.58-.43.96-.98,1.13v.06c.46.15.69.52.84,1.16.14.72.26.99.35,1.16h-1.16c-.14-.17-.23-.58-.38-1.16-.08-.49-.38-.72-.98-.72h-.52v1.89ZM456.11,156.21h.52c.61,0,1.1-.2,1.1-.7,0-.44-.32-.72-1.02-.72-.29,0-.49.03-.61.06v1.36Z"/>
    </g>
  </g>
</svg>