<?xml version="1.0" encoding="UTF-8"?>
<svg id="Layer_2" data-name="Layer 2" xmlns="http://www.w3.org/2000/svg" viewBox="0 0 506.61 253.73">
  <defs>
    <style>
      .cls-1 {
        fill: none;
      }

      .cls-2 {
        fill: #023f88;
      }

      .cls-3 {
        fill: #c0223d;
      }

      .cls-4 {
        fill: #c4122f;
      }
    </style>
  </defs>
  <g id="Capa_1" data-name="Capa 1">
    <g>
      <path class="cls-2" d="M377.6,149.36l70.03,46.58-30.79-73.42,64.66-53.85h-79.2L377.63,0l-22.71,68.66h-12.25L317.99,0l-22.92,68.66h-11.24L259.16,0l-22.47,67.52,12.48,6.24,10.62-40.22,13.26,48.18h53.13l-47.3,34.71,22.3,46.26-42.03-28.68v15.34l70.03,46.58-30.79-73.42,48.97-40.78h37.63l-47.31,34.71,22.3,46.26-42-28.67-.04,15.34,70.03,46.58-30.79-73.42,48.97-40.78h38.49l-47.29,34.7,22.3,46.26-42-28.68-.04,15.34ZM309.36,68.66l9.27-35.1,9.65,35.1h-18.92ZM369.02,68.66l9.27-35.1,9.65,35.1h-18.92Z"/>
      <polygon class="cls-1" points="25.05 58.19 25.37 58.04 25.05 58.19 25.05 58.19"/>
      <polygon class="cls-1" points="15 100.22 14.68 100.38 14.68 100.38 15 100.22"/>
      <polygon class="cls-1" points="5.05 141.84 4.73 141.99 4.73 141.99 5.05 141.84"/>
      <path class="cls-4" d="M238.57,60.6c-11.52-4.71-27.83-9.42-47.14-9.42-17.93,0-38.44,4.12-59.66,16-23.87,13.35-42.73,17.85-57.37,17.85-9.15,0-16.67-1.74-22.94-4.3-7.76-3.19-14.67-8.13-20.21-14.43-1.69-1.91-3.22-3.94-4.6-6.08-.48-.76-.83-1.35-1.04-1.74-.1-.19-.18-.33-.22-.42l-.02-.05-.32.16-4.74,14.52c2.36,2.88,4.95,5.57,7.75,8.02,5.54,4.87,11.85,8.77,18.67,11.57,7.7,3.15,16.92,5.23,27.64,5.23h.04c17.24,0,38.22-5.31,63.46-19.44,19.31-10.79,37.52-14.41,53.56-14.41,17.25,0,32.01,4.24,42.41,8.5,4.14,1.69,8.17,3.63,12.07,5.83.69.4,1.31.75,1.84,1.07l3.33-12.48c-4.05-2.23-8.23-4.22-12.51-5.97Z"/>
      <path class="cls-3" d="M25.37,58.04h0l-.3.15v.02l.3-.18Z"/>
      <path class="cls-4" d="M228.2,102.78c-11.52-4.71-27.83-9.42-47.14-9.42-17.93,0-38.44,4.12-59.66,16-23.87,13.35-42.73,17.85-57.37,17.85-9.13,0-16.67-1.74-22.94-4.3-7.76-3.19-14.67-8.13-20.21-14.43-1.69-1.9-3.23-3.93-4.61-6.07-.48-.76-.83-1.35-1.04-1.74-.11-.19-.18-.33-.22-.42l-.04-.07-.3.15v.02l.32-.16-.32.16-4.73,14.5c2.36,2.88,4.95,5.57,7.75,8.02,5.54,4.86,11.84,8.77,18.66,11.56,7.7,3.15,16.92,5.23,27.64,5.23h.02c17.24,0,38.22-5.31,63.46-19.44,19.31-10.79,37.52-14.41,53.56-14.41,17.25,0,32.01,4.24,42.42,8.5,4.14,1.69,8.17,3.63,12.07,5.83.69.4,1.31.75,1.83,1.07l3.33-12.48c-4.05-2.22-8.22-4.21-12.5-5.96Z"/>
      <path class="cls-4" d="M218.25,144.4c-11.52-4.7-27.83-9.42-47.14-9.42-17.93,0-38.44,4.12-59.66,16-23.87,13.35-42.73,17.85-57.37,17.85-9.13,0-16.67-1.74-22.94-4.3-7.76-3.19-14.67-8.13-20.21-14.43-1.69-1.91-3.23-3.94-4.61-6.08-.48-.76-.83-1.35-1.04-1.74-.11-.19-.18-.33-.22-.42l-.04-.07-.3.15v.02l.32-.16-.32.16-4.74,14.53c2.36,2.88,4.95,5.57,7.75,8.02,5.54,4.85,11.85,8.75,18.67,11.53,7.69,3.15,16.91,5.23,27.63,5.23h.03c17.23,0,38.22-5.31,63.46-19.44,19.31-10.8,37.52-14.41,53.56-14.41,17.25,0,32.01,4.24,42.41,8.5,4.14,1.69,8.17,3.63,12.07,5.83.69.4,1.31.75,1.83,1.07l3.33-12.48c-4.05-2.22-8.22-4.21-12.5-5.95Z"/>
      <polygon class="cls-4" points="18.97 253.69 10.36 253.69 10.36 227.85 3.24 227.85 3.24 220.56 26.09 220.56 26.09 227.85 18.97 227.85 18.97 253.69"/>
      <path class="cls-4" d="M110.49,253.27h-10.7l-8.15-12.75h-.09v12.75h-8.61v-33.14h12.87c6.55,0,11.51,3.12,11.51,10.19,0,4.58-2.55,8.53-7.25,9.36l10.42,13.58ZM91.55,234.99h.83c2.81,0,5.98-.53,5.98-4.13s-3.16-4.13-5.98-4.13h-.83v8.26Z"/>
      <rect class="cls-4" x="159.61" y="220.14" width="8.61" height="33.14"/>
      <path class="cls-4" d="M245.52,230.84c-1.8-2.34-4.6-3.7-7.56-3.65-5.27,0-8.83,4.04-8.83,9.18s3.6,9.01,8.96,9.01c2.87-.04,5.58-1.32,7.43-3.52v10.33c-2.86.88-4.92,1.54-7.6,1.54-4.61-.01-9.05-1.75-12.44-4.88-3.65-3.3-5.32-7.6-5.32-12.52-.02-4.52,1.73-8.88,4.88-12.13,3.33-3.38,7.87-5.31,12.61-5.36,2.71.02,5.38.59,7.86,1.66v10.33Z"/>
      <path class="cls-4" d="M309.33,247.93l-2.28,5.75h-9.15l12.74-33.14h9.4l12.48,33.14h-9.17l-2.16-5.75h-11.86ZM315.33,230.79h-.09l-3.56,10.54h7.16l-3.52-10.54Z"/>
      <path class="cls-4" d="M410.82,253.27h-10.72l-8.13-12.75h-.07v12.75h-8.61v-33.14h12.87c6.55,0,11.51,3.12,11.51,10.19,0,4.58-2.55,8.53-7.25,9.36l10.4,13.58ZM391.9,234.99h.83c2.81,0,5.98-.53,5.98-4.13s-3.16-4.13-5.98-4.13h-.83v8.26Z"/>
      <polygon class="cls-4" points="471.55 227.43 471.55 232.97 481.26 232.97 481.26 240.26 471.55 240.26 471.55 245.98 481.78 245.98 481.78 253.27 462.93 253.27 462.93 220.14 481.78 220.14 481.78 227.43 471.55 227.43"/>
      <path class="cls-4" d="M498.18,219.76c1.46,0,2.89.38,4.16,1.09,1.33.71,2.43,1.79,3.15,3.12,1.49,2.61,1.49,5.81,0,8.42-.72,1.32-1.8,2.4-3.12,3.13-2.6,1.48-5.79,1.48-8.39,0-1.32-.72-2.4-1.81-3.13-3.13-1.5-2.61-1.5-5.81,0-8.42.73-1.32,1.83-2.41,3.16-3.12,1.27-.71,2.7-1.08,4.16-1.09M498.18,221.16c-1.21,0-2.4.32-3.46.91-1.11.6-2.03,1.5-2.63,2.6-1.26,2.17-1.26,4.85,0,7.02.6,1.1,1.5,2.02,2.59,2.63,2.17,1.24,4.83,1.24,6.99,0,1.1-.6,2-1.51,2.6-2.6,1.25-2.17,1.25-4.85,0-7.02-.61-1.11-1.52-2.01-2.63-2.6-1.06-.59-2.24-.9-3.45-.91M494.5,232.89v-9.09h3.1c.78-.04,1.56.05,2.31.25.47.16.87.47,1.14.88.27.39.42.86.42,1.33,0,.65-.25,1.27-.71,1.73-.5.51-1.17.8-1.89.83.28.11.54.28.77.48.51.55.96,1.15,1.34,1.8l1.11,1.78h-1.79l-.8-1.43c-.63-1.12-1.14-1.83-1.53-2.11-.35-.23-.76-.34-1.17-.31h-.86v3.86h-1.43ZM495.96,227.78h1.78c.85,0,1.43-.13,1.74-.38.51-.43.61-1.17.24-1.73-.15-.22-.37-.38-.62-.47-.48-.13-.97-.19-1.47-.16h-1.66v2.74Z"/>
    </g>
  </g>
</svg>