<?xml version="1.0" encoding="UTF-8"?>
<svg id="Layer_2" data-name="Layer 2" xmlns="http://www.w3.org/2000/svg" viewBox="0 0 460.6 119.06">
  <defs>
    <style>
      .cls-1 {
        fill: #04285e;
      }

      .cls-2 {
        fill: #d20037;
      }
    </style>
  </defs>
  <g id="Capa_1" data-name="Capa 1">
    <g>
      <path class="cls-1" d="M447.9,100.38c0,2.95-2.44,5.39-5.39,5.39s-5.39-2.44-5.39-5.39,2.44-5.39,5.39-5.39,5.39,2.44,5.39,5.39M442.5,94.03c-3.47,0-6.35,2.88-6.35,6.35s2.88,6.35,6.35,6.35,6.35-2.88,6.35-6.35-2.88-6.35-6.35-6.35"/>
      <polygon class="cls-1" points="322.92 36.49 311.84 89.82 311.77 90.11 312.06 90.11 352.91 90.11 353.13 90.11 353.21 89.96 355.27 80.07 355.35 79.77 355.05 79.77 325.73 79.77 325.95 80.07 328.76 67.07 328.46 67.29 355.2 67.29 355.42 67.29 355.42 67.07 357.34 57.91 357.42 57.61 357.12 57.61 330.46 57.61 330.68 57.91 333.04 46.53 332.82 46.75 361.7 46.75 361.85 46.75 361.92 46.53 363.92 36.64 363.99 36.34 363.69 36.34 323.14 36.34 322.92 36.34 322.92 36.49"/>
      <polygon class="cls-1" points="261.47 89.08 300.39 20.39 302.46 16.69 298.25 16.69 288.5 16.69 287.03 16.69 286.29 18.02 257.11 71.28 250.98 18.91 250.69 16.69 248.54 16.69 239.16 16.69 236.28 16.69 236.73 19.5 246.55 88.26 246.84 90.33 248.99 90.33 259.33 90.33 260.73 90.33 261.47 89.08"/>
      <polygon class="cls-1" points="286.43 89 325.36 20.02 327.43 16.32 323.22 16.32 313.47 16.32 311.99 16.32 311.25 17.65 282.08 71.13 275.87 18.54 275.65 16.32 273.44 16.32 264.13 16.32 261.25 16.32 261.69 19.13 271.51 88.12 271.81 90.26 273.95 90.26 284.29 90.26 285.7 90.26 286.43 89"/>
      <polygon class="cls-1" points="429.73 46.24 420.64 89.45 420.57 90.04 421.16 90.04 432.9 90.04 433.34 90.04 433.34 89.67 442.43 46.46 441.99 46.83 457.94 46.83 458.31 46.83 458.38 46.46 460.45 36.56 460.6 35.97 460.01 35.97 415.62 35.97 415.25 35.97 415.18 36.41 413.11 46.24 412.96 46.83 413.55 46.83 430.24 46.83 429.73 46.24"/>
      <path class="cls-1" d="M264.87,97.94l-3.69,18.61-.07.3h2.81l.07-.22,1.55-7.76h5.98c.22,0,.44.07.74.15.22.07.37.22.52.52.15.22.3.59.3,1.11.07.52,0,1.11-.07,1.92-.15.96-.3,1.85-.22,2.51,0,.66.07,1.26.22,1.62l.07.15h3.03l-.15-.37c-.15-.37-.22-.66-.3-1.03v-1.11c0-.37.07-.81.15-1.18s.15-.81.15-1.26c.07-.52.07-.96,0-1.4s-.15-.89-.3-1.26c-.15-.37-.37-.74-.66-1.03-.15-.15-.3-.3-.44-.37.37-.07.74-.3,1.03-.44.52-.3.96-.74,1.26-1.18.37-.44.66-1.03.89-1.55.22-.59.3-1.26.3-1.85,0-.96-.15-1.77-.52-2.44s-.81-1.18-1.4-1.55-1.18-.66-1.92-.81-1.48-.22-2.22-.22h-6.94l-.15.15ZM266.05,106.29l1.18-5.98h4.65c.44,0,.89.07,1.26.15s.74.22,1.03.37c.3.22.52.44.66.74.15.3.3.74.3,1.26,0,.3-.07.66-.15,1.11-.07.37-.3.74-.59,1.11s-.66.59-1.26.89c-.52.22-1.26.37-2.14.37h-4.95Z"/>
      <path class="cls-1" d="M396.27,61.16l-8.05-6.87c-2.88-2.44-4.21-4.65-3.91-6.28.22-1.4,1.03-2.59,2.44-3.47,1.4-.89,3.25-1.4,5.39-1.4,2.66,0,9.01,3.18,12.19,5.39l1.11.74.37-1.33,2.14-8.27.15-.66-.52-.37c-4.28-3.03-9.38-4.51-15.07-4.51s-10.93,1.33-15.14,3.84c-4.28,2.59-6.87,6.06-7.61,10.19-.81,4.51,1.11,8.72,5.76,12.41,3.77,3.03,6.57,5.39,8.35,7.09,3.47,3.25,5.1,6.06,4.73,8.27-.37,1.85-1.4,3.4-3.18,4.51-1.85,1.18-4.14,1.77-6.72,1.77-3.69,0-11.15-3.47-14.85-6.35l-1.18-.89-.3,1.48-1.92,8.64-.15.59.52.37c4.95,3.47,10.86,5.24,17.51,5.24s11.89-1.48,16.4-4.36c3.1-1.92,7.53-7.68,8.2-11.37.89-5.17-1.33-10.05-6.65-14.4"/>
      <polygon class="cls-1" points="209.03 97.87 205.33 116.48 205.26 116.77 205.63 116.77 207.92 116.77 208.14 116.77 208.14 116.63 209.84 108.28 218.56 108.28 216.86 116.48 216.86 116.77 217.15 116.77 219.44 116.77 219.66 116.77 219.74 116.63 223.36 98.01 223.43 97.72 223.14 97.72 220.85 97.72 220.62 97.72 220.55 97.87 219 105.7 210.36 105.7 211.91 98.01 211.91 97.72 211.61 97.72 209.25 97.72 209.1 97.72 209.03 97.87"/>
      <polygon class="cls-1" points="219.59 38.11 209.4 86.64 208.66 90.26 212.28 90.26 218.78 90.26 221.14 90.26 221.66 87.9 231.85 39.37 232.59 35.82 228.97 35.82 222.47 35.82 220.11 35.82 219.59 38.11"/>
      <polygon class="cls-1" points="180.67 26.15 182.36 18.39 183.1 15.36 180 15.36 123.79 15.36 121.8 15.36 121.43 17.36 119.73 25.11 119.14 28.07 122.17 28.07 142.55 28.07 130.07 87.45 129.48 90.41 132.51 90.41 141.74 90.41 143.73 90.41 144.18 88.41 156.81 28.07 178.23 28.07 180.22 28.07 180.67 26.15"/>
      <path class="cls-1" d="M252.61,97.87l-10.56,18.61-.22.37h3.18l.07-.15,3.03-5.47h7.02l.81,5.39v.22h2.95l-.07-.3-3.18-18.61v-.22h-2.95l-.07.15ZM249.36,108.65l4.21-7.76,1.18,7.76h-5.39Z"/>
      <polygon class="cls-1" points="283.11 97.94 279.42 116.55 279.34 116.85 279.64 116.85 291.9 116.85 292.05 116.85 292.12 116.63 292.57 114.56 292.64 114.26 292.34 114.26 282.74 114.26 283.92 108.28 292.86 108.28 293.01 108.28 293.08 108.13 293.45 105.99 293.53 105.7 293.23 105.7 284.44 105.7 285.47 100.3 295.08 100.3 295.3 100.3 295.3 100.08 295.67 98.01 295.74 97.72 295.45 97.72 283.33 97.72 283.18 97.72 283.11 97.94"/>
      <polygon class="cls-1" points="127.48 97.94 123.79 116.55 123.72 116.85 124.01 116.85 126.38 116.85 126.6 116.85 126.6 116.63 128.3 108.28 136.94 108.28 135.31 116.55 135.24 116.85 135.54 116.85 137.9 116.85 138.12 116.85 138.12 116.63 141.81 98.01 141.89 97.72 141.59 97.72 139.23 97.72 139.08 97.72 139.01 97.94 137.46 105.7 128.81 105.7 130.37 98.01 130.37 97.72 130.07 97.72 127.71 97.72 127.56 97.72 127.48 97.94"/>
      <polygon class="cls-1" points="146.61 97.94 142.92 116.55 142.85 116.85 143.14 116.85 155.33 116.85 155.55 116.85 155.63 116.63 156.07 114.56 156.14 114.26 155.85 114.26 146.25 114.26 147.43 108.28 156.36 108.28 156.51 108.28 156.59 108.13 156.96 105.99 157.03 105.7 156.73 105.7 147.94 105.7 148.98 100.3 158.58 100.3 158.8 100.3 158.8 100.08 159.17 98.01 159.25 97.72 158.95 97.72 146.84 97.72 146.69 97.72 146.61 97.94"/>
      <path class="cls-1" d="M168.33,97.87l-10.56,18.61-.22.37h3.18l.07-.15,3.03-5.47h7.02l.81,5.39v.22h2.95l-.07-.3-3.18-18.61v-.22h-2.95l-.07.15ZM165.15,108.65l4.21-7.76,1.18,7.76h-5.39Z"/>
      <polygon class="cls-1" points="180.74 97.94 177.05 116.55 176.97 116.85 177.27 116.85 188.94 116.85 189.09 116.85 189.16 116.63 189.6 114.56 189.6 114.26 189.31 114.26 180.37 114.26 183.55 98.01 183.62 97.72 183.32 97.72 180.96 97.72 180.74 97.72 180.74 97.94"/>
      <polygon class="cls-1" points="205.7 100.08 206.15 98.01 206.22 97.72 205.93 97.72 191.74 97.72 191.52 97.72 191.52 97.94 191.08 100.01 191.08 100.3 191.37 100.3 196.91 100.3 193.74 116.55 193.66 116.85 193.96 116.85 196.25 116.85 196.47 116.85 196.55 116.63 199.8 100.3 205.48 100.3 205.7 100.3 205.7 100.08"/>
      <path class="cls-1" d="M240.2,110.13h-2.51v.15c-.37,1.4-.96,2.51-1.85,3.32-.89.74-1.99,1.11-3.4,1.11-.81,0-1.55-.15-2.22-.44-.59-.3-1.11-.66-1.55-1.18s-.74-1.11-.89-1.85c-.22-.74-.3-1.55-.3-2.36,0-1.11.15-2.22.44-3.25s.74-2.07,1.33-2.88,1.33-1.55,2.22-2.07c.89-.52,1.92-.81,3.1-.81,1.26,0,2.22.37,2.95,1.03s1.11,1.7,1.11,3.1v.22h2.81v-.22c0-1.11-.15-2.07-.52-2.95-.37-.81-.81-1.55-1.48-2.07-.59-.52-1.33-.96-2.22-1.26-.81-.3-1.77-.44-2.73-.44-1.48,0-2.88.3-4.14.96-1.18.59-2.29,1.48-3.1,2.59-.81,1.03-1.48,2.29-1.92,3.69-.44,1.4-.66,2.88-.66,4.36,0,2.66.66,4.73,1.99,6.13,1.33,1.48,3.25,2.22,5.76,2.22,2.22,0,3.99-.59,5.32-1.85,1.33-1.26,2.22-2.95,2.66-5.1l.07-.3h-.3v.15Z"/>
      <path class="cls-1" d="M313.1,97.87l-10.56,18.61-.22.37h3.18l.07-.15,3.03-5.61-.22.15h7.39l-.22-.22.81,5.61v.22h2.95l-.07-.3-3.18-18.61v-.22h-2.95v.15ZM309.63,109.02l4.73-8.72-.22.15h.07l-.22-.22,1.26,8.72.22-.3h-6.06l.22.37Z"/>
      <polygon class="cls-1" points="325.43 97.94 321.74 116.55 321.67 116.85 321.96 116.85 333.63 116.85 333.85 116.85 333.85 116.63 334.3 114.56 334.37 114.26 334 114.26 324.77 114.26 324.99 114.56 328.24 98.01 328.31 97.72 328.02 97.72 325.66 97.72 325.51 97.72 325.43 97.94"/>
      <polygon class="cls-1" points="340.43 97.94 336.81 116.55 336.73 116.85 337.03 116.85 348.63 116.85 348.85 116.85 348.85 116.63 349.29 114.56 349.36 114.26 349.07 114.26 339.84 114.26 340.06 114.56 343.31 98.01 343.38 97.72 343.01 97.72 340.72 97.72 340.5 97.72 340.43 97.94"/>
      <polygon class="cls-1" points="355.5 97.94 351.8 116.55 351.73 116.85 352.02 116.85 354.39 116.85 354.53 116.85 354.61 116.63 358.3 98.01 358.38 97.72 358.08 97.72 355.72 97.72 355.5 97.72 355.5 97.94"/>
      <path class="cls-1" d="M368.57,97.87l-10.56,18.61-.22.37h3.18l.07-.15,3.1-5.61-.22.15h7.39l-.22-.22.81,5.61v.22h2.95l-.07-.3-3.18-18.61-.07-.22h-2.88l-.07.15ZM365.17,109.02l4.73-8.72-.22.15h.07l-.22-.22,1.33,8.72.22-.3h-6.13l.22.37Z"/>
      <path class="cls-1" d="M186.94,89.96h13.59l-.37-.96s-8.2-23.86-8.12-23.86c10.49-.74,15.51-10.93,15.58-11.08,2.07-5.17,2.22-9.45.22-12.7-2.81-4.8-8.94-5.54-9.23-5.61h-29.99l-.15.59-10.56,52.96-.15.89h12.78l.15-.59,8.94-44.76h13.37-.15c1.55.37,2.66,1.11,3.25,2.14.89,1.7.22,3.77.22,3.77l-.07.15v.15-.15c-.07.37-1.99,9.6-16.03,7.53l-1.11-.15.22,1.03,6.87,30.06.15.59h.59Z"/>
      <polygon class="cls-1" points="380.98 97.94 377.28 116.55 377.21 116.85 377.51 116.85 379.8 116.85 379.94 116.85 380.02 116.63 382.82 102.08 388.81 116.7 388.88 116.85 389.03 116.85 391.54 116.85 391.76 116.85 391.76 116.63 395.45 98.01 395.53 97.72 395.23 97.72 393.02 97.72 392.8 97.72 392.72 97.94 389.99 112.56 383.93 97.87 383.93 97.72 383.71 97.72 381.2 97.72 381.05 97.72 380.98 97.94"/>
      <path class="cls-1" d="M412.66,110.05h-2.51l-.07.15c-.37,1.4-.96,2.51-1.85,3.32-.89.74-1.99,1.11-3.32,1.11-.81,0-1.62-.15-2.22-.44s-1.11-.66-1.55-1.18c-.37-.52-.74-1.11-.89-1.85-.22-.74-.3-1.55-.3-2.36,0-1.11.15-2.22.44-3.25.3-1.11.74-2.07,1.33-2.88s1.33-1.55,2.22-2.07c.89-.52,1.92-.81,3.1-.81s2.22.37,2.95,1.03,1.11,1.7,1.11,3.1v.22h2.73v-.22c0-1.11-.15-2.07-.52-2.95-.37-.81-.89-1.55-1.48-2.07-.66-.59-1.4-.96-2.22-1.26-.81-.3-1.77-.37-2.73-.37-1.55,0-2.95.3-4.14.96-1.26.59-2.29,1.48-3.1,2.59-.89,1.03-1.48,2.29-1.92,3.69s-.66,2.88-.66,4.43c0,2.66.66,4.73,1.99,6.13,1.33,1.48,3.25,2.22,5.76,2.22,2.22,0,3.99-.59,5.32-1.85s2.22-2.95,2.66-5.02l.07-.3h-.22v-.07Z"/>
      <polygon class="cls-1" points="419.24 97.94 415.47 116.55 415.47 116.85 415.77 116.85 427.95 116.85 428.17 116.85 428.17 116.63 428.62 114.56 428.69 114.26 428.4 114.26 418.5 114.26 418.72 114.56 420.05 108.13 419.75 108.28 428.91 108.28 429.13 108.28 429.13 108.13 429.5 105.99 429.58 105.7 429.28 105.7 420.2 105.7 420.42 105.99 421.6 100.08 421.38 100.3 431.13 100.3 431.35 100.3 431.35 100.08 431.79 98.01 431.79 97.72 431.57 97.72 419.46 97.72 419.24 97.72 419.24 97.94"/>
      <polygon class="cls-1" points="37.3 49.56 19.13 49.56 33.83 60.27 37.3 49.56"/>
      <polygon class="cls-2" points="41.73 35.97 31.98 35.97 39.89 41.66 41.73 35.97"/>
      <path class="cls-1" d="M445.61,103.41c-.07-.07-.15-.22-.15-.3-.07-.15-.07-.3-.07-.44s-.07-.3-.07-.52v-.52c0-.22-.07-.37-.07-.52s-.07-.37-.15-.52c-.07-.15-.22-.3-.37-.37h-.07c.07,0,.3-.15.52-.52s.3-.74.3-1.26c0-.59-.22-1.11-.66-1.48-.44-.37-.96-.52-1.7-.52h-3.55v7.39h1.4v-2.95h1.99c.22,0,.37,0,.44.07s.15.15.22.22c.07.07.15.22.15.3,0,.15.07.3.07.44.07.15.07.37.07.52v.96c0,.15.07.3.22.37l.07.07h1.62l-.22-.44ZM444.13,99.2c-.07.15-.22.3-.37.37s-.3.15-.52.22c-.22,0-.37.07-.59.07h-1.92v-2.44h2.29c.44,0,.74.15.96.37s.3.52.3.89c0,.15-.07.3-.15.52"/>
      <polygon class="cls-2" points="46.61 30.14 35.53 64.04 0 64.04 28.73 85.01 17.65 119.06 46.68 98.01 75.63 119.06 64.48 85.09 93.43 64.04 57.69 64.04 46.61 30.14"/>
      <polygon class="cls-2" points="51.48 35.97 53.84 43.21 56.21 35.97 51.48 35.97"/>
      <polygon class="cls-1" points="55.32 47.79 59.68 61.23 96.54 61.23 112.64 49.56 76.89 49.56 65.74 15.73 55.32 47.79"/>
      <polygon class="cls-2" points="101.63 61.6 87.16 72.09 88.93 77.33 112.34 94.39 101.63 61.6"/>
      <polygon class="cls-1" points="84.79 73.86 68.62 85.53 94.84 104.59 84.79 73.86"/>
      <polygon class="cls-2" points="81.47 0 72.61 27.4 78.88 46.75 116.41 46.75 131.25 35.97 93.29 35.97 81.47 0"/>
      <polygon class="cls-1" points="419.24 97.87 415.54 116.48 415.47 116.77 415.77 116.77 427.95 116.77 428.17 116.77 428.25 116.55 428.69 114.49 428.77 114.12 428.47 114.12 418.87 114.12 420.05 108.21 428.91 108.21 429.13 108.21 429.21 107.99 429.58 105.92 429.65 105.62 429.36 105.62 420.57 105.62 421.6 100.23 431.2 100.23 431.42 100.23 431.42 100.01 431.79 97.94 431.87 97.64 431.57 97.64 419.46 97.64 419.31 97.64 419.24 97.87"/>
      <path class="cls-1" d="M313.1,97.94l-10.56,18.61-.22.37h3.18l.07-.15,3.03-5.47h7.02l.81,5.39v.22h2.95l-.07-.3-3.18-18.61-.07-.22h-2.95v.15ZM309.85,108.72l4.21-7.76,1.18,7.76h-5.39Z"/>
      <path class="cls-1" d="M368.57,97.87l-10.56,18.61-.22.37h3.18l.07-.15,3.03-5.47h7.02l.81,5.39v.22h2.95l-.07-.3-3.18-18.61-.07-.22h-2.95v.15ZM365.32,108.65l4.21-7.76,1.18,7.76h-5.39Z"/>
      <polygon class="cls-1" points="325.43 97.94 321.74 116.55 321.67 116.85 321.96 116.85 333.63 116.85 333.78 116.85 333.85 116.63 334.3 114.49 334.3 114.19 334 114.19 325.06 114.19 328.24 98.01 328.31 97.72 328.02 97.72 325.66 97.72 325.43 97.72 325.43 97.94"/>
      <polygon class="cls-1" points="340.5 97.87 336.81 116.48 336.73 116.77 337.03 116.77 348.63 116.77 348.85 116.77 348.92 116.55 349.29 114.49 349.36 114.19 349.07 114.19 340.13 114.19 343.31 97.94 343.31 97.64 343.01 97.64 340.72 97.64 340.5 97.64 340.5 97.87"/>
    </g>
  </g>
</svg>