<?xml version="1.0" encoding="UTF-8"?>
<svg id="Layer_2" data-name="Layer 2" xmlns="http://www.w3.org/2000/svg" viewBox="0 0 377.26 118.38">
  <defs>
    <style>
      .cls-1 {
        fill: #293682;
      }
    </style>
  </defs>
  <g id="Capa_1" data-name="Capa 1">
    <g>
      <g>
        <path class="cls-1" d="M18.95,112.95c3.75,1.28,7.7,1.97,11.95,1.97,17.97,0,30.51-13.03,30.51-37.81V3.26l6.81-3.26v78.39c0,25.28-13.03,39.99-31.5,39.99-6.42,0-12.44-1.97-17.77-5.43M11.16,105.45c4.15,1.38,8.29,2.27,11.95,2.27,15.1,0,25.18-9.48,25.18-30.9V8.89l6.71-3.16v71.68c0,22.41-11.35,33.87-27.15,33.87-5.83,0-11.75-2.17-16.69-5.83M6.42,98.73c3.65,1.08,7.01,1.78,9.97,1.78,11.75,0,18.96-6.42,18.96-23.3V14.61l6.62-3.16v64.77c0,18.96-8.69,27.55-21.13,27.55-5.23,0-10.17-1.78-14.42-5.04M29.12,78.99V17.18L0,30.31v50.16c0,9.58,6.02,15.99,14.91,15.99s14.22-6.52,14.22-17.48"/>
        <path class="cls-1" d="M105.72,17.07v23.04c0,8.51,5.03,15.16,14.66,15.16,8.26,0,14.47-6.09,14.47-15.34v-22.23c0-2.42,1.62-4.41,4.35-4.6l.87-.06v-2.17h-14.47v2.17l.93.06c2.67.19,4.35,2.11,4.35,4.6v21.55c0,7.02-3.66,11.3-9.38,11.3s-9.19-4.53-9.19-11.37v-22.11c0-2.42,1.3-3.79,4.04-3.97l.87-.06v-2.17h-16.46v2.17l.93.06c2.67.19,4.04,1.49,4.04,3.97"/>
        <path class="cls-1" d="M125.26,66.23l.93.06c2.3.13,4.04,1.06,4.04,3.67v13.54h-16.27v-13.54c0-2.61,1.74-3.48,4.04-3.67l.87-.06v-2.17h-16.46v2.17l.93.06c2.3.13,4.04,1.06,4.04,3.67v31.68c0,2.61-1.74,3.54-4.04,3.66l-.93.06v2.17h16.46v-2.17l-.87-.06c-2.3-.19-4.04-1.05-4.04-3.66v-14.78h16.27v14.78c0,2.61-1.74,3.54-4.04,3.66l-.93.06v2.17h16.46v-2.17l-.87-.06c-2.3-.19-4.04-1.05-4.04-3.66v-31.68c0-2.61,1.74-3.48,4.04-3.67l.87-.06v-2.17h-16.46"/>
        <path class="cls-1" d="M140.01,23.6v2.05l1.24.06c1.92.13,3.11,1.06,3.11,3.67v19.13c0,2.61-1.31,3.54-3.42,3.67l-.93.06v2.11h14.72v-2.11l-.87-.06c-2.11-.13-3.42-1.06-3.42-3.67v-10.19c.13-7.45,3.35-11.93,7.14-11.93,2.92,0,4.84,1.99,4.84,5.84v16.27c0,2.61-1.3,3.54-3.42,3.67l-.93.06v2.11h14.72v-2.11l-.87-.06c-2.11-.13-3.42-1.06-3.42-3.67v-16.96c0-4.84-2.98-8.88-8.88-8.88-4.16,0-7.76,2.48-9.19,6.89v-6.77"/>
        <path class="cls-1" d="M224.98,54.96c6.27,0,9.81-4.29,11.24-9.13l-2.67-.75c-1.24,3.35-3.42,5.96-7.76,5.96-5.03,0-8.45-4.78-8.45-12.36h19.32v-1.8c0-8.01-4.72-14.47-12.3-14.47-8.13,0-13.54,7.76-13.54,16.27s5.22,16.27,14.16,16.27M224.3,25.96c3.42,0,5.59,3.17,5.84,9.69h-12.67c.62-6.02,3.11-9.69,6.83-9.69"/>
        <path class="cls-1" d="M194.42,47.39c0,4.84,2.92,7.58,7.58,7.58,4.35,0,7.21-3.17,8.51-7.7l-2.24-.62c-.87,2.61-2.3,4.22-4.29,4.22-2.61,0-3.48-1.93-3.48-4.16v-20.12h8.51v-3.23h-8.51v-9.56h-3.11c-1.18,7.21-4.84,9.81-8.7,10.62v2.17h5.71"/>
        <path class="cls-1" d="M181.38,17.76c2.11,0,3.97-1.8,3.97-4.16,0-2.24-1.86-4.04-3.97-4.04s-3.97,1.8-3.97,4.04c0,2.36,1.8,4.16,3.97,4.16"/>
        <path class="cls-1" d="M178.52,29.37v19.13c0,2.61-1.3,3.54-3.42,3.67l-.93.06v2.11h14.72v-2.11l-.87-.06c-2.11-.12-3.42-1.06-3.42-3.67v-25.71l-10.75.81v2.05l1.55.06c1.92.06,3.11,1.06,3.11,3.67"/>
        <path class="cls-1" d="M252.49,54.96c4.1,0,7.27-2.11,8.64-5.71v5.09h10.37v-2.11l-.87-.06c-2.11-.12-3.42-1.06-3.42-3.67V10.06l-10.56.93v2.05l1.37.06c1.92.06,3.11,1.05,3.11,3.66v11.18c-1.37-3.48-4.54-5.53-8.64-5.53-8.14,0-12.73,7.76-12.73,16.27s4.59,16.27,12.73,16.27M253.55,25.96c4.6,0,7.58,4.97,7.58,12.73s-2.98,12.73-7.58,12.73c-4.35,0-7.21-4.91-7.21-12.73s2.86-12.73,7.21-12.73"/>
        <path class="cls-1" d="M344.96,75.73c-3.6,0-6.71,2.36-8.07,6.58v-6.33l-10.44.81v2.05l1.24.06c1.93.13,3.11,1.06,3.11,3.67v19.13c0,2.61-1.31,3.54-3.42,3.67l-.93.06v2.11h14.72v-2.11l-.87-.06c-2.11-.13-3.42-1.06-3.42-3.67v-10.43c.12-7.76,3.48-12.61,7.58-12.61.93,0,1.55.25,2.05.81-1.05.56-1.74,1.62-1.74,2.92,0,1.8,1.49,3.29,3.29,3.29s3.29-1.49,3.29-3.6c0-3.91-2.92-6.34-6.4-6.34"/>
        <path class="cls-1" d="M364.96,75.61c-8.13,0-13.54,7.76-13.54,16.27s5.22,16.27,14.16,16.27c6.27,0,9.81-4.29,11.24-9.13l-2.67-.75c-1.24,3.35-3.42,5.96-7.76,5.96-5.03,0-8.45-4.78-8.45-12.36h19.32v-1.8c0-8.01-4.72-14.47-12.3-14.47M358.06,88.84c.62-6.02,3.11-9.69,6.83-9.69,3.42,0,5.59,3.17,5.84,9.69"/>
        <path class="cls-1" d="M321.17,102.38v-16.21c0-6.64-4.16-10.56-11.18-10.56-6.02,0-11.37,3.98-11.37,8.51,0,1.93,1.43,3.42,3.29,3.42s3.29-1.49,3.29-3.29c0-1.24-.68-2.36-1.68-2.92,1.12-1.55,3.1-2.48,5.53-2.48,3.79,0,6.09,2.86,6.09,7.64v1.43l-9.19,3.79c-6.15,2.55-8.26,4.78-8.26,8.82,0,4.66,3.35,7.64,8.64,7.64,3.97,0,7.27-2.42,8.76-6.09v.93c0,3.17,2.24,5.09,5.96,5.09,1.49,0,2.67-.19,3.91-.56v-2.11c-2.61.31-3.79-.68-3.79-3.04M315.08,95.36c-.31,5.47-3.04,9.13-6.83,9.13-2.73,0-4.47-1.86-4.47-4.72,0-2.54,1.37-4.53,3.98-5.65l7.39-3.29"/>
        <path class="cls-1" d="M233.96,99.83c-.87,2.61-2.3,4.22-4.29,4.22-2.61,0-3.48-1.92-3.48-4.16v-20.13h8.51v-3.23h-8.51v-9.57h-3.11c-1.18,7.21-4.84,9.81-8.7,10.62v2.17h5.71v20.81c0,4.85,2.92,7.58,7.58,7.58,4.35,0,7.21-3.17,8.51-7.7"/>
        <path class="cls-1" d="M194.58,102.38v-16.21c0-6.64-4.16-10.56-11.18-10.56-6.02,0-11.37,3.98-11.37,8.51,0,1.93,1.43,3.42,3.29,3.42s3.29-1.49,3.29-3.29c0-1.24-.68-2.36-1.68-2.92,1.12-1.55,3.1-2.48,5.53-2.48,3.79,0,6.09,2.86,6.09,7.64v1.43l-9.19,3.79c-6.15,2.55-8.26,4.78-8.26,8.82,0,4.66,3.35,7.64,8.64,7.64,3.97,0,7.27-2.42,8.76-6.09v.93c0,3.17,2.24,5.09,5.96,5.09,1.49,0,2.67-.19,3.91-.56v-2.11c-2.61.31-3.79-.68-3.79-3.04M188.49,95.36c-.31,5.47-3.04,9.13-6.83,9.13-2.73,0-4.47-1.86-4.47-4.72,0-2.54,1.37-4.53,3.98-5.65l7.39-3.29"/>
        <path class="cls-1" d="M285.33,104.24c-5.03,0-8.45-4.78-8.45-12.36s3.35-12.61,8.39-12.61c2.24,0,3.97.74,5.03,2.11-.93.62-1.55,1.68-1.55,2.86,0,1.8,1.49,3.29,3.29,3.29s3.29-1.49,3.29-3.6c0-3.73-3.73-8.32-10.37-8.32-9.26,0-14.6,7.76-14.6,16.27s5.22,16.27,14.16,16.27c6.15,0,9.63-4.1,10.99-8.76l-2.67-.81c-1.18,3.17-3.29,5.65-7.51,5.65"/>
        <path class="cls-1" d="M210.29,101.7v-38.45l-10.56.93v2.05l1.37.06c1.93.06,3.11,1.06,3.11,3.67v31.74c0,2.61-1.3,3.54-3.42,3.67l-.93.06v2.11h14.72v-2.11l-.87-.06c-2.11-.13-3.42-1.06-3.42-3.67"/>
        <path class="cls-1" d="M264.71,101.7v-16.96c0-4.84-2.98-8.88-8.88-8.88-4.16,0-7.76,2.48-9.19,6.89v-19.5l-10.56.93v2.05l1.37.06c1.92.06,3.11,1.06,3.11,3.67v31.74c0,2.61-1.3,3.54-3.42,3.67l-.93.06v2.11h14.72v-2.11l-.87-.06c-2.11-.13-3.42-1.06-3.42-3.67v-10.19c.12-7.45,3.36-11.93,7.14-11.93,2.92,0,4.84,1.99,4.84,5.84v16.27c0,2.61-1.3,3.54-3.42,3.67l-.93.06v2.11h14.72v-2.11l-.87-.06c-2.11-.13-3.42-1.06-3.42-3.67"/>
        <path class="cls-1" d="M156.44,75.61c-8.14,0-13.54,7.76-13.54,16.27s5.22,16.27,14.16,16.27c6.27,0,9.81-4.29,11.24-9.13l-2.67-.75c-1.24,3.35-3.42,5.96-7.76,5.96-5.03,0-8.45-4.78-8.45-12.36h19.32v-1.8c0-8.01-4.72-14.47-12.3-14.47M149.55,88.84c.62-6.02,3.11-9.69,6.83-9.69,3.42,0,5.59,3.17,5.84,9.69"/>
      </g>
      <g>
        <path class="cls-1" d="M18.95,112.95c3.75,1.28,7.7,1.97,11.95,1.97,17.97,0,30.51-13.03,30.51-37.81V3.26l6.81-3.26v78.39c0,25.28-13.03,39.99-31.5,39.99-6.42,0-12.44-1.97-17.77-5.43M11.16,105.45c4.15,1.38,8.29,2.27,11.95,2.27,15.1,0,25.18-9.48,25.18-30.9V8.89l6.71-3.16v71.68c0,22.41-11.35,33.87-27.15,33.87-5.83,0-11.75-2.17-16.69-5.83M6.42,98.73c3.65,1.08,7.01,1.78,9.97,1.78,11.75,0,18.96-6.42,18.96-23.3V14.61l6.62-3.16v64.77c0,18.96-8.69,27.55-21.13,27.55-5.23,0-10.17-1.78-14.42-5.04M29.12,78.99V17.18L0,30.31v50.16c0,9.58,6.02,15.99,14.91,15.99s14.22-6.52,14.22-17.48"/>
        <path class="cls-1" d="M105.72,17.07v23.04c0,8.51,5.03,15.16,14.66,15.16,8.26,0,14.47-6.09,14.47-15.34v-22.23c0-2.42,1.62-4.41,4.35-4.6l.87-.06v-2.17h-14.47v2.17l.93.06c2.67.19,4.35,2.11,4.35,4.6v21.55c0,7.02-3.66,11.3-9.38,11.3s-9.19-4.53-9.19-11.37v-22.11c0-2.42,1.3-3.79,4.04-3.97l.87-.06v-2.17h-16.46v2.17l.93.06c2.67.19,4.04,1.49,4.04,3.97"/>
        <path class="cls-1" d="M125.26,66.23l.93.06c2.3.13,4.04,1.06,4.04,3.67v13.54h-16.27v-13.54c0-2.61,1.74-3.48,4.04-3.67l.87-.06v-2.17h-16.46v2.17l.93.06c2.3.13,4.04,1.06,4.04,3.67v31.68c0,2.61-1.74,3.54-4.04,3.66l-.93.06v2.17h16.46v-2.17l-.87-.06c-2.3-.19-4.04-1.05-4.04-3.66v-14.78h16.27v14.78c0,2.61-1.74,3.54-4.04,3.66l-.93.06v2.17h16.46v-2.17l-.87-.06c-2.3-.19-4.04-1.05-4.04-3.66v-31.68c0-2.61,1.74-3.48,4.04-3.67l.87-.06v-2.17h-16.46"/>
        <path class="cls-1" d="M140.01,23.6v2.05l1.24.06c1.92.13,3.11,1.06,3.11,3.67v19.13c0,2.61-1.31,3.54-3.42,3.67l-.93.06v2.11h14.72v-2.11l-.87-.06c-2.11-.13-3.42-1.06-3.42-3.67v-10.19c.13-7.45,3.35-11.93,7.14-11.93,2.92,0,4.84,1.99,4.84,5.84v16.27c0,2.61-1.3,3.54-3.42,3.67l-.93.06v2.11h14.72v-2.11l-.87-.06c-2.11-.13-3.42-1.06-3.42-3.67v-16.96c0-4.84-2.98-8.88-8.88-8.88-4.16,0-7.76,2.48-9.19,6.89v-6.77"/>
        <path class="cls-1" d="M224.98,54.96c6.27,0,9.81-4.29,11.24-9.13l-2.67-.75c-1.24,3.35-3.42,5.96-7.76,5.96-5.03,0-8.45-4.78-8.45-12.36h19.32v-1.8c0-8.01-4.72-14.47-12.3-14.47-8.13,0-13.54,7.76-13.54,16.27s5.22,16.27,14.16,16.27M224.3,25.96c3.42,0,5.59,3.17,5.84,9.69h-12.67c.62-6.02,3.11-9.69,6.83-9.69"/>
        <path class="cls-1" d="M194.42,47.39c0,4.84,2.92,7.58,7.58,7.58,4.35,0,7.21-3.17,8.51-7.7l-2.24-.62c-.87,2.61-2.3,4.22-4.29,4.22-2.61,0-3.48-1.93-3.48-4.16v-20.12h8.51v-3.23h-8.51v-9.56h-3.11c-1.18,7.21-4.84,9.81-8.7,10.62v2.17h5.71"/>
        <path class="cls-1" d="M181.38,17.76c2.11,0,3.97-1.8,3.97-4.16,0-2.24-1.86-4.04-3.97-4.04s-3.97,1.8-3.97,4.04c0,2.36,1.8,4.16,3.97,4.16"/>
        <path class="cls-1" d="M178.52,29.37v19.13c0,2.61-1.3,3.54-3.42,3.67l-.93.06v2.11h14.72v-2.11l-.87-.06c-2.11-.12-3.42-1.06-3.42-3.67v-25.71l-10.75.81v2.05l1.55.06c1.92.06,3.11,1.06,3.11,3.67"/>
        <path class="cls-1" d="M252.49,54.96c4.1,0,7.27-2.11,8.64-5.71v5.09h10.37v-2.11l-.87-.06c-2.11-.12-3.42-1.06-3.42-3.67V10.06l-10.56.93v2.05l1.37.06c1.92.06,3.11,1.05,3.11,3.66v11.18c-1.37-3.48-4.54-5.53-8.64-5.53-8.14,0-12.73,7.76-12.73,16.27s4.59,16.27,12.73,16.27M253.55,25.96c4.6,0,7.58,4.97,7.58,12.73s-2.98,12.73-7.58,12.73c-4.35,0-7.21-4.91-7.21-12.73s2.86-12.73,7.21-12.73"/>
        <path class="cls-1" d="M344.96,75.73c-3.6,0-6.71,2.36-8.07,6.58v-6.33l-10.44.81v2.05l1.24.06c1.93.13,3.11,1.06,3.11,3.67v19.13c0,2.61-1.31,3.54-3.42,3.67l-.93.06v2.11h14.72v-2.11l-.87-.06c-2.11-.13-3.42-1.06-3.42-3.67v-10.43c.12-7.76,3.48-12.61,7.58-12.61.93,0,1.55.25,2.05.81-1.05.56-1.74,1.62-1.74,2.92,0,1.8,1.49,3.29,3.29,3.29s3.29-1.49,3.29-3.6c0-3.91-2.92-6.34-6.4-6.34"/>
        <path class="cls-1" d="M364.96,75.61c-8.13,0-13.54,7.76-13.54,16.27s5.22,16.27,14.16,16.27c6.27,0,9.81-4.29,11.24-9.13l-2.67-.75c-1.24,3.35-3.42,5.96-7.76,5.96-5.03,0-8.45-4.78-8.45-12.36h19.32v-1.8c0-8.01-4.72-14.47-12.3-14.47M358.06,88.84c.62-6.02,3.11-9.69,6.83-9.69,3.42,0,5.59,3.17,5.84,9.69"/>
        <path class="cls-1" d="M321.17,102.38v-16.21c0-6.64-4.16-10.56-11.18-10.56-6.02,0-11.37,3.98-11.37,8.51,0,1.93,1.43,3.42,3.29,3.42s3.29-1.49,3.29-3.29c0-1.24-.68-2.36-1.68-2.92,1.12-1.55,3.1-2.48,5.53-2.48,3.79,0,6.09,2.86,6.09,7.64v1.43l-9.19,3.79c-6.15,2.55-8.26,4.78-8.26,8.82,0,4.66,3.35,7.64,8.64,7.64,3.97,0,7.27-2.42,8.76-6.09v.93c0,3.17,2.24,5.09,5.96,5.09,1.49,0,2.67-.19,3.91-.56v-2.11c-2.61.31-3.79-.68-3.79-3.04M315.08,95.36c-.31,5.47-3.04,9.13-6.83,9.13-2.73,0-4.47-1.86-4.47-4.72,0-2.54,1.37-4.53,3.98-5.65l7.39-3.29"/>
        <path class="cls-1" d="M233.96,99.83c-.87,2.61-2.3,4.22-4.29,4.22-2.61,0-3.48-1.92-3.48-4.16v-20.13h8.51v-3.23h-8.51v-9.57h-3.11c-1.18,7.21-4.84,9.81-8.7,10.62v2.17h5.71v20.81c0,4.85,2.92,7.58,7.58,7.58,4.35,0,7.21-3.17,8.51-7.7"/>
        <path class="cls-1" d="M194.58,102.38v-16.21c0-6.64-4.16-10.56-11.18-10.56-6.02,0-11.37,3.98-11.37,8.51,0,1.93,1.43,3.42,3.29,3.42s3.29-1.49,3.29-3.29c0-1.24-.68-2.36-1.68-2.92,1.12-1.55,3.1-2.48,5.53-2.48,3.79,0,6.09,2.86,6.09,7.64v1.43l-9.19,3.79c-6.15,2.55-8.26,4.78-8.26,8.82,0,4.66,3.35,7.64,8.64,7.64,3.97,0,7.27-2.42,8.76-6.09v.93c0,3.17,2.24,5.09,5.96,5.09,1.49,0,2.67-.19,3.91-.56v-2.11c-2.61.31-3.79-.68-3.79-3.04M188.49,95.36c-.31,5.47-3.04,9.13-6.83,9.13-2.73,0-4.47-1.86-4.47-4.72,0-2.54,1.37-4.53,3.98-5.65l7.39-3.29"/>
        <path class="cls-1" d="M285.33,104.24c-5.03,0-8.45-4.78-8.45-12.36s3.35-12.61,8.39-12.61c2.24,0,3.97.74,5.03,2.11-.93.62-1.55,1.68-1.55,2.86,0,1.8,1.49,3.29,3.29,3.29s3.29-1.49,3.29-3.6c0-3.73-3.73-8.32-10.37-8.32-9.26,0-14.6,7.76-14.6,16.27s5.22,16.27,14.16,16.27c6.15,0,9.63-4.1,10.99-8.76l-2.67-.81c-1.18,3.17-3.29,5.65-7.51,5.65"/>
        <path class="cls-1" d="M210.29,101.7v-38.45l-10.56.93v2.05l1.37.06c1.93.06,3.11,1.06,3.11,3.67v31.74c0,2.61-1.3,3.54-3.42,3.67l-.93.06v2.11h14.72v-2.11l-.87-.06c-2.11-.13-3.42-1.06-3.42-3.67"/>
        <path class="cls-1" d="M264.71,101.7v-16.96c0-4.84-2.98-8.88-8.88-8.88-4.16,0-7.76,2.48-9.19,6.89v-19.5l-10.56.93v2.05l1.37.06c1.92.06,3.11,1.06,3.11,3.67v31.74c0,2.61-1.3,3.54-3.42,3.67l-.93.06v2.11h14.72v-2.11l-.87-.06c-2.11-.13-3.42-1.06-3.42-3.67v-10.19c.12-7.45,3.36-11.93,7.14-11.93,2.92,0,4.84,1.99,4.84,5.84v16.27c0,2.61-1.3,3.54-3.42,3.67l-.93.06v2.11h14.72v-2.11l-.87-.06c-2.11-.13-3.42-1.06-3.42-3.67"/>
        <path class="cls-1" d="M156.44,75.61c-8.14,0-13.54,7.76-13.54,16.27s5.22,16.27,14.16,16.27c6.27,0,9.81-4.29,11.24-9.13l-2.67-.75c-1.24,3.35-3.42,5.96-7.76,5.96-5.03,0-8.45-4.78-8.45-12.36h19.32v-1.8c0-8.01-4.72-14.47-12.3-14.47M149.55,88.84c.62-6.02,3.11-9.69,6.83-9.69,3.42,0,5.59,3.17,5.84,9.69"/>
      </g>
      <g>
        <path class="cls-1" d="M18.95,112.95c3.75,1.28,7.7,1.97,11.95,1.97,17.97,0,30.51-13.03,30.51-37.81V3.26l6.81-3.26v78.39c0,25.28-13.03,39.99-31.5,39.99-6.42,0-12.44-1.97-17.77-5.43M11.16,105.45c4.15,1.38,8.29,2.27,11.95,2.27,15.1,0,25.18-9.48,25.18-30.9V8.89l6.71-3.16v71.68c0,22.41-11.35,33.87-27.15,33.87-5.83,0-11.75-2.17-16.69-5.83M6.42,98.73c3.65,1.08,7.01,1.78,9.97,1.78,11.75,0,18.96-6.42,18.96-23.3V14.61l6.62-3.16v64.77c0,18.96-8.69,27.55-21.13,27.55-5.23,0-10.17-1.78-14.42-5.04M29.12,78.99V17.18L0,30.31v50.16c0,9.58,6.02,15.99,14.91,15.99s14.22-6.52,14.22-17.48"/>
        <path class="cls-1" d="M105.72,17.07v23.04c0,8.51,5.03,15.16,14.66,15.16,8.26,0,14.47-6.09,14.47-15.34v-22.23c0-2.42,1.62-4.41,4.35-4.6l.87-.06v-2.17h-14.47v2.17l.93.06c2.67.19,4.35,2.11,4.35,4.6v21.55c0,7.02-3.66,11.3-9.38,11.3s-9.19-4.53-9.19-11.37v-22.11c0-2.42,1.3-3.79,4.04-3.97l.87-.06v-2.17h-16.46v2.17l.93.06c2.67.19,4.04,1.49,4.04,3.97"/>
        <path class="cls-1" d="M125.26,66.23l.93.06c2.3.13,4.04,1.06,4.04,3.67v13.54h-16.27v-13.54c0-2.61,1.74-3.48,4.04-3.67l.87-.06v-2.17h-16.46v2.17l.93.06c2.3.13,4.04,1.06,4.04,3.67v31.68c0,2.61-1.74,3.54-4.04,3.66l-.93.06v2.17h16.46v-2.17l-.87-.06c-2.3-.19-4.04-1.05-4.04-3.66v-14.78h16.27v14.78c0,2.61-1.74,3.54-4.04,3.66l-.93.06v2.17h16.46v-2.17l-.87-.06c-2.3-.19-4.04-1.05-4.04-3.66v-31.68c0-2.61,1.74-3.48,4.04-3.67l.87-.06v-2.17h-16.46"/>
        <path class="cls-1" d="M140.01,23.6v2.05l1.24.06c1.92.13,3.11,1.06,3.11,3.67v19.13c0,2.61-1.31,3.54-3.42,3.67l-.93.06v2.11h14.72v-2.11l-.87-.06c-2.11-.13-3.42-1.06-3.42-3.67v-10.19c.13-7.45,3.35-11.93,7.14-11.93,2.92,0,4.84,1.99,4.84,5.84v16.27c0,2.61-1.3,3.54-3.42,3.67l-.93.06v2.11h14.72v-2.11l-.87-.06c-2.11-.13-3.42-1.06-3.42-3.67v-16.96c0-4.84-2.98-8.88-8.88-8.88-4.16,0-7.76,2.48-9.19,6.89v-6.77"/>
        <path class="cls-1" d="M224.98,54.96c6.27,0,9.81-4.29,11.24-9.13l-2.67-.75c-1.24,3.35-3.42,5.96-7.76,5.96-5.03,0-8.45-4.78-8.45-12.36h19.32v-1.8c0-8.01-4.72-14.47-12.3-14.47-8.13,0-13.54,7.76-13.54,16.27s5.22,16.27,14.16,16.27M224.3,25.96c3.42,0,5.59,3.17,5.84,9.69h-12.67c.62-6.02,3.11-9.69,6.83-9.69"/>
        <path class="cls-1" d="M194.42,47.39c0,4.84,2.92,7.58,7.58,7.58,4.35,0,7.21-3.17,8.51-7.7l-2.24-.62c-.87,2.61-2.3,4.22-4.29,4.22-2.61,0-3.48-1.93-3.48-4.16v-20.12h8.51v-3.23h-8.51v-9.56h-3.11c-1.18,7.21-4.84,9.81-8.7,10.62v2.17h5.71"/>
        <path class="cls-1" d="M181.38,17.76c2.11,0,3.97-1.8,3.97-4.16,0-2.24-1.86-4.04-3.97-4.04s-3.97,1.8-3.97,4.04c0,2.36,1.8,4.16,3.97,4.16"/>
        <path class="cls-1" d="M178.52,29.37v19.13c0,2.61-1.3,3.54-3.42,3.67l-.93.06v2.11h14.72v-2.11l-.87-.06c-2.11-.12-3.42-1.06-3.42-3.67v-25.71l-10.75.81v2.05l1.55.06c1.92.06,3.11,1.06,3.11,3.67"/>
        <path class="cls-1" d="M252.49,54.96c4.1,0,7.27-2.11,8.64-5.71v5.09h10.37v-2.11l-.87-.06c-2.11-.12-3.42-1.06-3.42-3.67V10.06l-10.56.93v2.05l1.37.06c1.92.06,3.11,1.05,3.11,3.66v11.18c-1.37-3.48-4.54-5.53-8.64-5.53-8.14,0-12.73,7.76-12.73,16.27s4.59,16.27,12.73,16.27M253.55,25.96c4.6,0,7.58,4.97,7.58,12.73s-2.98,12.73-7.58,12.73c-4.35,0-7.21-4.91-7.21-12.73s2.86-12.73,7.21-12.73"/>
        <path class="cls-1" d="M344.96,75.73c-3.6,0-6.71,2.36-8.07,6.58v-6.33l-10.44.81v2.05l1.24.06c1.93.13,3.11,1.06,3.11,3.67v19.13c0,2.61-1.31,3.54-3.42,3.67l-.93.06v2.11h14.72v-2.11l-.87-.06c-2.11-.13-3.42-1.06-3.42-3.67v-10.43c.12-7.76,3.48-12.61,7.58-12.61.93,0,1.55.25,2.05.81-1.05.56-1.74,1.62-1.74,2.92,0,1.8,1.49,3.29,3.29,3.29s3.29-1.49,3.29-3.6c0-3.91-2.92-6.34-6.4-6.34"/>
        <path class="cls-1" d="M364.96,75.61c-8.13,0-13.54,7.76-13.54,16.27s5.22,16.27,14.16,16.27c6.27,0,9.81-4.29,11.24-9.13l-2.67-.75c-1.24,3.35-3.42,5.96-7.76,5.96-5.03,0-8.45-4.78-8.45-12.36h19.32v-1.8c0-8.01-4.72-14.47-12.3-14.47M358.06,88.84c.62-6.02,3.11-9.69,6.83-9.69,3.42,0,5.59,3.17,5.84,9.69"/>
        <path class="cls-1" d="M321.17,102.38v-16.21c0-6.64-4.16-10.56-11.18-10.56-6.02,0-11.37,3.98-11.37,8.51,0,1.93,1.43,3.42,3.29,3.42s3.29-1.49,3.29-3.29c0-1.24-.68-2.36-1.68-2.92,1.12-1.55,3.1-2.48,5.53-2.48,3.79,0,6.09,2.86,6.09,7.64v1.43l-9.19,3.79c-6.15,2.55-8.26,4.78-8.26,8.82,0,4.66,3.35,7.64,8.64,7.64,3.97,0,7.27-2.42,8.76-6.09v.93c0,3.17,2.24,5.09,5.96,5.09,1.49,0,2.67-.19,3.91-.56v-2.11c-2.61.31-3.79-.68-3.79-3.04M315.08,95.36c-.31,5.47-3.04,9.13-6.83,9.13-2.73,0-4.47-1.86-4.47-4.72,0-2.54,1.37-4.53,3.98-5.65l7.39-3.29"/>
        <path class="cls-1" d="M233.96,99.83c-.87,2.61-2.3,4.22-4.29,4.22-2.61,0-3.48-1.92-3.48-4.16v-20.13h8.51v-3.23h-8.51v-9.57h-3.11c-1.18,7.21-4.84,9.81-8.7,10.62v2.17h5.71v20.81c0,4.85,2.92,7.58,7.58,7.58,4.35,0,7.21-3.17,8.51-7.7"/>
        <path class="cls-1" d="M194.58,102.38v-16.21c0-6.64-4.16-10.56-11.18-10.56-6.02,0-11.37,3.98-11.37,8.51,0,1.93,1.43,3.42,3.29,3.42s3.29-1.49,3.29-3.29c0-1.24-.68-2.36-1.68-2.92,1.12-1.55,3.1-2.48,5.53-2.48,3.79,0,6.09,2.86,6.09,7.64v1.43l-9.19,3.79c-6.15,2.55-8.26,4.78-8.26,8.82,0,4.66,3.35,7.64,8.64,7.64,3.97,0,7.27-2.42,8.76-6.09v.93c0,3.17,2.24,5.09,5.96,5.09,1.49,0,2.67-.19,3.91-.56v-2.11c-2.61.31-3.79-.68-3.79-3.04M188.49,95.36c-.31,5.47-3.04,9.13-6.83,9.13-2.73,0-4.47-1.86-4.47-4.72,0-2.54,1.37-4.53,3.98-5.65l7.39-3.29"/>
        <path class="cls-1" d="M285.33,104.24c-5.03,0-8.45-4.78-8.45-12.36s3.35-12.61,8.39-12.61c2.24,0,3.97.74,5.03,2.11-.93.62-1.55,1.68-1.55,2.86,0,1.8,1.49,3.29,3.29,3.29s3.29-1.49,3.29-3.6c0-3.73-3.73-8.32-10.37-8.32-9.26,0-14.6,7.76-14.6,16.27s5.22,16.27,14.16,16.27c6.15,0,9.63-4.1,10.99-8.76l-2.67-.81c-1.18,3.17-3.29,5.65-7.51,5.65"/>
        <path class="cls-1" d="M210.29,101.7v-38.45l-10.56.93v2.05l1.37.06c1.93.06,3.11,1.06,3.11,3.67v31.74c0,2.61-1.3,3.54-3.42,3.67l-.93.06v2.11h14.72v-2.11l-.87-.06c-2.11-.13-3.42-1.06-3.42-3.67"/>
        <path class="cls-1" d="M264.71,101.7v-16.96c0-4.84-2.98-8.88-8.88-8.88-4.16,0-7.76,2.48-9.19,6.89v-19.5l-10.56.93v2.05l1.37.06c1.92.06,3.11,1.06,3.11,3.67v31.74c0,2.61-1.3,3.54-3.42,3.67l-.93.06v2.11h14.72v-2.11l-.87-.06c-2.11-.13-3.42-1.06-3.42-3.67v-10.19c.12-7.45,3.36-11.93,7.14-11.93,2.92,0,4.84,1.99,4.84,5.84v16.27c0,2.61-1.3,3.54-3.42,3.67l-.93.06v2.11h14.72v-2.11l-.87-.06c-2.11-.13-3.42-1.06-3.42-3.67"/>
        <path class="cls-1" d="M156.44,75.61c-8.14,0-13.54,7.76-13.54,16.27s5.22,16.27,14.16,16.27c6.27,0,9.81-4.29,11.24-9.13l-2.67-.75c-1.24,3.35-3.42,5.96-7.76,5.96-5.03,0-8.45-4.78-8.45-12.36h19.32v-1.8c0-8.01-4.72-14.47-12.3-14.47M149.55,88.84c.62-6.02,3.11-9.69,6.83-9.69,3.42,0,5.59,3.17,5.84,9.69"/>
      </g>
      <g>
        <path class="cls-1" d="M18.95,112.95c3.75,1.28,7.7,1.97,11.95,1.97,17.97,0,30.51-13.03,30.51-37.81V3.26l6.81-3.26v78.39c0,25.28-13.03,39.99-31.5,39.99-6.42,0-12.44-1.97-17.77-5.43M11.16,105.45c4.15,1.38,8.29,2.27,11.95,2.27,15.1,0,25.18-9.48,25.18-30.9V8.89l6.71-3.16v71.68c0,22.41-11.35,33.87-27.15,33.87-5.83,0-11.75-2.17-16.69-5.83M6.42,98.73c3.65,1.08,7.01,1.78,9.97,1.78,11.75,0,18.96-6.42,18.96-23.3V14.61l6.62-3.16v64.77c0,18.96-8.69,27.55-21.13,27.55-5.23,0-10.17-1.78-14.42-5.04M29.12,78.99V17.18L0,30.31v50.16c0,9.58,6.02,15.99,14.91,15.99s14.22-6.52,14.22-17.48"/>
        <path class="cls-1" d="M105.72,17.07v23.04c0,8.51,5.03,15.16,14.66,15.16,8.26,0,14.47-6.09,14.47-15.34v-22.23c0-2.42,1.62-4.41,4.35-4.6l.87-.06v-2.17h-14.47v2.17l.93.06c2.67.19,4.35,2.11,4.35,4.6v21.55c0,7.02-3.66,11.3-9.38,11.3s-9.19-4.53-9.19-11.37v-22.11c0-2.42,1.3-3.79,4.04-3.97l.87-.06v-2.17h-16.46v2.17l.93.06c2.67.19,4.04,1.49,4.04,3.97"/>
        <path class="cls-1" d="M125.26,66.23l.93.06c2.3.13,4.04,1.06,4.04,3.67v13.54h-16.27v-13.54c0-2.61,1.74-3.48,4.04-3.67l.87-.06v-2.17h-16.46v2.17l.93.06c2.3.13,4.04,1.06,4.04,3.67v31.68c0,2.61-1.74,3.54-4.04,3.66l-.93.06v2.17h16.46v-2.17l-.87-.06c-2.3-.19-4.04-1.05-4.04-3.66v-14.78h16.27v14.78c0,2.61-1.74,3.54-4.04,3.66l-.93.06v2.17h16.46v-2.17l-.87-.06c-2.3-.19-4.04-1.05-4.04-3.66v-31.68c0-2.61,1.74-3.48,4.04-3.67l.87-.06v-2.17h-16.46"/>
        <path class="cls-1" d="M140.01,23.6v2.05l1.24.06c1.92.13,3.11,1.06,3.11,3.67v19.13c0,2.61-1.31,3.54-3.42,3.67l-.93.06v2.11h14.72v-2.11l-.87-.06c-2.11-.13-3.42-1.06-3.42-3.67v-10.19c.13-7.45,3.35-11.93,7.14-11.93,2.92,0,4.84,1.99,4.84,5.84v16.27c0,2.61-1.3,3.54-3.42,3.67l-.93.06v2.11h14.72v-2.11l-.87-.06c-2.11-.13-3.42-1.06-3.42-3.67v-16.96c0-4.84-2.98-8.88-8.88-8.88-4.16,0-7.76,2.48-9.19,6.89v-6.77"/>
        <path class="cls-1" d="M224.98,54.96c6.27,0,9.81-4.29,11.24-9.13l-2.67-.75c-1.24,3.35-3.42,5.96-7.76,5.96-5.03,0-8.45-4.78-8.45-12.36h19.32v-1.8c0-8.01-4.72-14.47-12.3-14.47-8.13,0-13.54,7.76-13.54,16.27s5.22,16.27,14.16,16.27M224.3,25.96c3.42,0,5.59,3.17,5.84,9.69h-12.67c.62-6.02,3.11-9.69,6.83-9.69"/>
        <path class="cls-1" d="M194.42,47.39c0,4.84,2.92,7.58,7.58,7.58,4.35,0,7.21-3.17,8.51-7.7l-2.24-.62c-.87,2.61-2.3,4.22-4.29,4.22-2.61,0-3.48-1.93-3.48-4.16v-20.12h8.51v-3.23h-8.51v-9.56h-3.11c-1.18,7.21-4.84,9.81-8.7,10.62v2.17h5.71"/>
        <path class="cls-1" d="M181.38,17.76c2.11,0,3.97-1.8,3.97-4.16,0-2.24-1.86-4.04-3.97-4.04s-3.97,1.8-3.97,4.04c0,2.36,1.8,4.16,3.97,4.16"/>
        <path class="cls-1" d="M178.52,29.37v19.13c0,2.61-1.3,3.54-3.42,3.67l-.93.06v2.11h14.72v-2.11l-.87-.06c-2.11-.12-3.42-1.06-3.42-3.67v-25.71l-10.75.81v2.05l1.55.06c1.92.06,3.11,1.06,3.11,3.67"/>
        <path class="cls-1" d="M252.49,54.96c4.1,0,7.27-2.11,8.64-5.71v5.09h10.37v-2.11l-.87-.06c-2.11-.12-3.42-1.06-3.42-3.67V10.06l-10.56.93v2.05l1.37.06c1.92.06,3.11,1.05,3.11,3.66v11.18c-1.37-3.48-4.54-5.53-8.64-5.53-8.14,0-12.73,7.76-12.73,16.27s4.59,16.27,12.73,16.27M253.55,25.96c4.6,0,7.58,4.97,7.58,12.73s-2.98,12.73-7.58,12.73c-4.35,0-7.21-4.91-7.21-12.73s2.86-12.73,7.21-12.73"/>
        <path class="cls-1" d="M344.96,75.73c-3.6,0-6.71,2.36-8.07,6.58v-6.33l-10.44.81v2.05l1.24.06c1.93.13,3.11,1.06,3.11,3.67v19.13c0,2.61-1.31,3.54-3.42,3.67l-.93.06v2.11h14.72v-2.11l-.87-.06c-2.11-.13-3.42-1.06-3.42-3.67v-10.43c.12-7.76,3.48-12.61,7.58-12.61.93,0,1.55.25,2.05.81-1.05.56-1.74,1.62-1.74,2.92,0,1.8,1.49,3.29,3.29,3.29s3.29-1.49,3.29-3.6c0-3.91-2.92-6.34-6.4-6.34"/>
        <path class="cls-1" d="M364.96,75.61c-8.13,0-13.54,7.76-13.54,16.27s5.22,16.27,14.16,16.27c6.27,0,9.81-4.29,11.24-9.13l-2.67-.75c-1.24,3.35-3.42,5.96-7.76,5.96-5.03,0-8.45-4.78-8.45-12.36h19.32v-1.8c0-8.01-4.72-14.47-12.3-14.47M358.06,88.84c.62-6.02,3.11-9.69,6.83-9.69,3.42,0,5.59,3.17,5.84,9.69"/>
        <path class="cls-1" d="M321.17,102.38v-16.21c0-6.64-4.16-10.56-11.18-10.56-6.02,0-11.37,3.98-11.37,8.51,0,1.93,1.43,3.42,3.29,3.42s3.29-1.49,3.29-3.29c0-1.24-.68-2.36-1.68-2.92,1.12-1.55,3.1-2.48,5.53-2.48,3.79,0,6.09,2.86,6.09,7.64v1.43l-9.19,3.79c-6.15,2.55-8.26,4.78-8.26,8.82,0,4.66,3.35,7.64,8.64,7.64,3.97,0,7.27-2.42,8.76-6.09v.93c0,3.17,2.24,5.09,5.96,5.09,1.49,0,2.67-.19,3.91-.56v-2.11c-2.61.31-3.79-.68-3.79-3.04M315.08,95.36c-.31,5.47-3.04,9.13-6.83,9.13-2.73,0-4.47-1.86-4.47-4.72,0-2.54,1.37-4.53,3.98-5.65l7.39-3.29"/>
        <path class="cls-1" d="M233.96,99.83c-.87,2.61-2.3,4.22-4.29,4.22-2.61,0-3.48-1.92-3.48-4.16v-20.13h8.51v-3.23h-8.51v-9.57h-3.11c-1.18,7.21-4.84,9.81-8.7,10.62v2.17h5.71v20.81c0,4.85,2.92,7.58,7.58,7.58,4.35,0,7.21-3.17,8.51-7.7"/>
        <path class="cls-1" d="M194.58,102.38v-16.21c0-6.64-4.16-10.56-11.18-10.56-6.02,0-11.37,3.98-11.37,8.51,0,1.93,1.43,3.42,3.29,3.42s3.29-1.49,3.29-3.29c0-1.24-.68-2.36-1.68-2.92,1.12-1.55,3.1-2.48,5.53-2.48,3.79,0,6.09,2.86,6.09,7.64v1.43l-9.19,3.79c-6.15,2.55-8.26,4.78-8.26,8.82,0,4.66,3.35,7.64,8.64,7.64,3.97,0,7.27-2.42,8.76-6.09v.93c0,3.17,2.24,5.09,5.96,5.09,1.49,0,2.67-.19,3.91-.56v-2.11c-2.61.31-3.79-.68-3.79-3.04M188.49,95.36c-.31,5.47-3.04,9.13-6.83,9.13-2.73,0-4.47-1.86-4.47-4.72,0-2.54,1.37-4.53,3.98-5.65l7.39-3.29"/>
        <path class="cls-1" d="M285.33,104.24c-5.03,0-8.45-4.78-8.45-12.36s3.35-12.61,8.39-12.61c2.24,0,3.97.74,5.03,2.11-.93.62-1.55,1.68-1.55,2.86,0,1.8,1.49,3.29,3.29,3.29s3.29-1.49,3.29-3.6c0-3.73-3.73-8.32-10.37-8.32-9.26,0-14.6,7.76-14.6,16.27s5.22,16.27,14.16,16.27c6.15,0,9.63-4.1,10.99-8.76l-2.67-.81c-1.18,3.17-3.29,5.65-7.51,5.65"/>
        <path class="cls-1" d="M210.29,101.7v-38.45l-10.56.93v2.05l1.37.06c1.93.06,3.11,1.06,3.11,3.67v31.74c0,2.61-1.3,3.54-3.42,3.67l-.93.06v2.11h14.72v-2.11l-.87-.06c-2.11-.13-3.42-1.06-3.42-3.67"/>
        <path class="cls-1" d="M264.71,101.7v-16.96c0-4.84-2.98-8.88-8.88-8.88-4.16,0-7.76,2.48-9.19,6.89v-19.5l-10.56.93v2.05l1.37.06c1.92.06,3.11,1.06,3.11,3.67v31.74c0,2.61-1.3,3.54-3.42,3.67l-.93.06v2.11h14.72v-2.11l-.87-.06c-2.11-.13-3.42-1.06-3.42-3.67v-10.19c.12-7.45,3.36-11.93,7.14-11.93,2.92,0,4.84,1.99,4.84,5.84v16.27c0,2.61-1.3,3.54-3.42,3.67l-.93.06v2.11h14.72v-2.11l-.87-.06c-2.11-.13-3.42-1.06-3.42-3.67"/>
        <path class="cls-1" d="M156.44,75.61c-8.14,0-13.54,7.76-13.54,16.27s5.22,16.27,14.16,16.27c6.27,0,9.81-4.29,11.24-9.13l-2.67-.75c-1.24,3.35-3.42,5.96-7.76,5.96-5.03,0-8.45-4.78-8.45-12.36h19.32v-1.8c0-8.01-4.72-14.47-12.3-14.47M149.55,88.84c.62-6.02,3.11-9.69,6.83-9.69,3.42,0,5.59,3.17,5.84,9.69"/>
      </g>
      <g>
        <path class="cls-1" d="M18.95,112.95c3.75,1.28,7.7,1.97,11.95,1.97,17.97,0,30.51-13.03,30.51-37.81V3.26l6.81-3.26v78.39c0,25.28-13.03,39.99-31.5,39.99-6.42,0-12.44-1.97-17.77-5.43M11.16,105.45c4.15,1.38,8.29,2.27,11.95,2.27,15.1,0,25.18-9.48,25.18-30.9V8.89l6.71-3.16v71.68c0,22.41-11.35,33.87-27.15,33.87-5.83,0-11.75-2.17-16.69-5.83M6.42,98.73c3.65,1.08,7.01,1.78,9.97,1.78,11.75,0,18.96-6.42,18.96-23.3V14.61l6.62-3.16v64.77c0,18.96-8.69,27.55-21.13,27.55-5.23,0-10.17-1.78-14.42-5.04M29.12,78.99V17.18L0,30.31v50.16c0,9.58,6.02,15.99,14.91,15.99s14.22-6.52,14.22-17.48"/>
        <path class="cls-1" d="M105.72,17.07v23.04c0,8.51,5.03,15.16,14.66,15.16,8.26,0,14.47-6.09,14.47-15.34v-22.23c0-2.42,1.62-4.41,4.35-4.6l.87-.06v-2.17h-14.47v2.17l.93.06c2.67.19,4.35,2.11,4.35,4.6v21.55c0,7.02-3.66,11.3-9.38,11.3s-9.19-4.53-9.19-11.37v-22.11c0-2.42,1.3-3.79,4.04-3.97l.87-.06v-2.17h-16.46v2.17l.93.06c2.67.19,4.04,1.49,4.04,3.97"/>
        <path class="cls-1" d="M125.26,66.23l.93.06c2.3.13,4.04,1.06,4.04,3.67v13.54h-16.27v-13.54c0-2.61,1.74-3.48,4.04-3.67l.87-.06v-2.17h-16.46v2.17l.93.06c2.3.13,4.04,1.06,4.04,3.67v31.68c0,2.61-1.74,3.54-4.04,3.66l-.93.06v2.17h16.46v-2.17l-.87-.06c-2.3-.19-4.04-1.05-4.04-3.66v-14.78h16.27v14.78c0,2.61-1.74,3.54-4.04,3.66l-.93.06v2.17h16.46v-2.17l-.87-.06c-2.3-.19-4.04-1.05-4.04-3.66v-31.68c0-2.61,1.74-3.48,4.04-3.67l.87-.06v-2.17h-16.46"/>
        <path class="cls-1" d="M140.01,23.6v2.05l1.24.06c1.92.13,3.11,1.06,3.11,3.67v19.13c0,2.61-1.31,3.54-3.42,3.67l-.93.06v2.11h14.72v-2.11l-.87-.06c-2.11-.13-3.42-1.06-3.42-3.67v-10.19c.13-7.45,3.35-11.93,7.14-11.93,2.92,0,4.84,1.99,4.84,5.84v16.27c0,2.61-1.3,3.54-3.42,3.67l-.93.06v2.11h14.72v-2.11l-.87-.06c-2.11-.13-3.42-1.06-3.42-3.67v-16.96c0-4.84-2.98-8.88-8.88-8.88-4.16,0-7.76,2.48-9.19,6.89v-6.77"/>
        <path class="cls-1" d="M224.98,54.96c6.27,0,9.81-4.29,11.24-9.13l-2.67-.75c-1.24,3.35-3.42,5.96-7.76,5.96-5.03,0-8.45-4.78-8.45-12.36h19.32v-1.8c0-8.01-4.72-14.47-12.3-14.47-8.13,0-13.54,7.76-13.54,16.27s5.22,16.27,14.16,16.27M224.3,25.96c3.42,0,5.59,3.17,5.84,9.69h-12.67c.62-6.02,3.11-9.69,6.83-9.69"/>
        <path class="cls-1" d="M194.42,47.39c0,4.84,2.92,7.58,7.58,7.58,4.35,0,7.21-3.17,8.51-7.7l-2.24-.62c-.87,2.61-2.3,4.22-4.29,4.22-2.61,0-3.48-1.93-3.48-4.16v-20.12h8.51v-3.23h-8.51v-9.56h-3.11c-1.18,7.21-4.84,9.81-8.7,10.62v2.17h5.71"/>
        <path class="cls-1" d="M181.38,17.76c2.11,0,3.97-1.8,3.97-4.16,0-2.24-1.86-4.04-3.97-4.04s-3.97,1.8-3.97,4.04c0,2.36,1.8,4.16,3.97,4.16"/>
        <path class="cls-1" d="M178.52,29.37v19.13c0,2.61-1.3,3.54-3.42,3.67l-.93.06v2.11h14.72v-2.11l-.87-.06c-2.11-.12-3.42-1.06-3.42-3.67v-25.71l-10.75.81v2.05l1.55.06c1.92.06,3.11,1.06,3.11,3.67"/>
        <path class="cls-1" d="M252.49,54.96c4.1,0,7.27-2.11,8.64-5.71v5.09h10.37v-2.11l-.87-.06c-2.11-.12-3.42-1.06-3.42-3.67V10.06l-10.56.93v2.05l1.37.06c1.92.06,3.11,1.05,3.11,3.66v11.18c-1.37-3.48-4.54-5.53-8.64-5.53-8.14,0-12.73,7.76-12.73,16.27s4.59,16.27,12.73,16.27M253.55,25.96c4.6,0,7.58,4.97,7.58,12.73s-2.98,12.73-7.58,12.73c-4.35,0-7.21-4.91-7.21-12.73s2.86-12.73,7.21-12.73"/>
        <path class="cls-1" d="M344.96,75.73c-3.6,0-6.71,2.36-8.07,6.58v-6.33l-10.44.81v2.05l1.24.06c1.93.13,3.11,1.06,3.11,3.67v19.13c0,2.61-1.31,3.54-3.42,3.67l-.93.06v2.11h14.72v-2.11l-.87-.06c-2.11-.13-3.42-1.06-3.42-3.67v-10.43c.12-7.76,3.48-12.61,7.58-12.61.93,0,1.55.25,2.05.81-1.05.56-1.74,1.62-1.74,2.92,0,1.8,1.49,3.29,3.29,3.29s3.29-1.49,3.29-3.6c0-3.91-2.92-6.34-6.4-6.34"/>
        <path class="cls-1" d="M364.96,75.61c-8.13,0-13.54,7.76-13.54,16.27s5.22,16.27,14.16,16.27c6.27,0,9.81-4.29,11.24-9.13l-2.67-.75c-1.24,3.35-3.42,5.96-7.76,5.96-5.03,0-8.45-4.78-8.45-12.36h19.32v-1.8c0-8.01-4.72-14.47-12.3-14.47M358.06,88.84c.62-6.02,3.11-9.69,6.83-9.69,3.42,0,5.59,3.17,5.84,9.69"/>
        <path class="cls-1" d="M321.17,102.38v-16.21c0-6.64-4.16-10.56-11.18-10.56-6.02,0-11.37,3.98-11.37,8.51,0,1.93,1.43,3.42,3.29,3.42s3.29-1.49,3.29-3.29c0-1.24-.68-2.36-1.68-2.92,1.12-1.55,3.1-2.48,5.53-2.48,3.79,0,6.09,2.86,6.09,7.64v1.43l-9.19,3.79c-6.15,2.55-8.26,4.78-8.26,8.82,0,4.66,3.35,7.64,8.64,7.64,3.97,0,7.27-2.42,8.76-6.09v.93c0,3.17,2.24,5.09,5.96,5.09,1.49,0,2.67-.19,3.91-.56v-2.11c-2.61.31-3.79-.68-3.79-3.04M315.08,95.36c-.31,5.47-3.04,9.13-6.83,9.13-2.73,0-4.47-1.86-4.47-4.72,0-2.54,1.37-4.53,3.98-5.65l7.39-3.29"/>
        <path class="cls-1" d="M233.96,99.83c-.87,2.61-2.3,4.22-4.29,4.22-2.61,0-3.48-1.92-3.48-4.16v-20.13h8.51v-3.23h-8.51v-9.57h-3.11c-1.18,7.21-4.84,9.81-8.7,10.62v2.17h5.71v20.81c0,4.85,2.92,7.58,7.58,7.58,4.35,0,7.21-3.17,8.51-7.7"/>
        <path class="cls-1" d="M194.58,102.38v-16.21c0-6.64-4.16-10.56-11.18-10.56-6.02,0-11.37,3.98-11.37,8.51,0,1.93,1.43,3.42,3.29,3.42s3.29-1.49,3.29-3.29c0-1.24-.68-2.36-1.68-2.92,1.12-1.55,3.1-2.48,5.53-2.48,3.79,0,6.09,2.86,6.09,7.64v1.43l-9.19,3.79c-6.15,2.55-8.26,4.78-8.26,8.82,0,4.66,3.35,7.64,8.64,7.64,3.97,0,7.27-2.42,8.76-6.09v.93c0,3.17,2.24,5.09,5.96,5.09,1.49,0,2.67-.19,3.91-.56v-2.11c-2.61.31-3.79-.68-3.79-3.04M188.49,95.36c-.31,5.47-3.04,9.13-6.83,9.13-2.73,0-4.47-1.86-4.47-4.72,0-2.54,1.37-4.53,3.98-5.65l7.39-3.29"/>
        <path class="cls-1" d="M285.33,104.24c-5.03,0-8.45-4.78-8.45-12.36s3.35-12.61,8.39-12.61c2.24,0,3.97.74,5.03,2.11-.93.62-1.55,1.68-1.55,2.86,0,1.8,1.49,3.29,3.29,3.29s3.29-1.49,3.29-3.6c0-3.73-3.73-8.32-10.37-8.32-9.26,0-14.6,7.76-14.6,16.27s5.22,16.27,14.16,16.27c6.15,0,9.63-4.1,10.99-8.76l-2.67-.81c-1.18,3.17-3.29,5.65-7.51,5.65"/>
        <path class="cls-1" d="M210.29,101.7v-38.45l-10.56.93v2.05l1.37.06c1.93.06,3.11,1.06,3.11,3.67v31.74c0,2.61-1.3,3.54-3.42,3.67l-.93.06v2.11h14.72v-2.11l-.87-.06c-2.11-.13-3.42-1.06-3.42-3.67"/>
        <path class="cls-1" d="M264.71,101.7v-16.96c0-4.84-2.98-8.88-8.88-8.88-4.16,0-7.76,2.48-9.19,6.89v-19.5l-10.56.93v2.05l1.37.06c1.92.06,3.11,1.06,3.11,3.67v31.74c0,2.61-1.3,3.54-3.42,3.67l-.93.06v2.11h14.72v-2.11l-.87-.06c-2.11-.13-3.42-1.06-3.42-3.67v-10.19c.12-7.45,3.36-11.93,7.14-11.93,2.92,0,4.84,1.99,4.84,5.84v16.27c0,2.61-1.3,3.54-3.42,3.67l-.93.06v2.11h14.72v-2.11l-.87-.06c-2.11-.13-3.42-1.06-3.42-3.67"/>
        <path class="cls-1" d="M156.44,75.61c-8.14,0-13.54,7.76-13.54,16.27s5.22,16.27,14.16,16.27c6.27,0,9.81-4.29,11.24-9.13l-2.67-.75c-1.24,3.35-3.42,5.96-7.76,5.96-5.03,0-8.45-4.78-8.45-12.36h19.32v-1.8c0-8.01-4.72-14.47-12.3-14.47M149.55,88.84c.62-6.02,3.11-9.69,6.83-9.69,3.42,0,5.59,3.17,5.84,9.69"/>
      </g>
      <g>
        <path class="cls-1" d="M18.95,112.95c3.75,1.28,7.7,1.97,11.95,1.97,17.97,0,30.51-13.03,30.51-37.81V3.26l6.81-3.26v78.39c0,25.28-13.03,39.99-31.5,39.99-6.42,0-12.44-1.97-17.77-5.43M11.16,105.45c4.15,1.38,8.29,2.27,11.95,2.27,15.1,0,25.18-9.48,25.18-30.9V8.89l6.71-3.16v71.68c0,22.41-11.35,33.87-27.15,33.87-5.83,0-11.75-2.17-16.69-5.83M6.42,98.73c3.65,1.08,7.01,1.78,9.97,1.78,11.75,0,18.96-6.42,18.96-23.3V14.61l6.62-3.16v64.77c0,18.96-8.69,27.55-21.13,27.55-5.23,0-10.17-1.78-14.42-5.04M29.12,78.99V17.18L0,30.31v50.16c0,9.58,6.02,15.99,14.91,15.99s14.22-6.52,14.22-17.48"/>
        <path class="cls-1" d="M105.72,17.07v23.04c0,8.51,5.03,15.16,14.66,15.16,8.26,0,14.47-6.09,14.47-15.34v-22.23c0-2.42,1.62-4.41,4.35-4.6l.87-.06v-2.17h-14.47v2.17l.93.06c2.67.19,4.35,2.11,4.35,4.6v21.55c0,7.02-3.66,11.3-9.38,11.3s-9.19-4.53-9.19-11.37v-22.11c0-2.42,1.3-3.79,4.04-3.97l.87-.06v-2.17h-16.46v2.17l.93.06c2.67.19,4.04,1.49,4.04,3.97"/>
        <path class="cls-1" d="M125.26,66.23l.93.06c2.3.13,4.04,1.06,4.04,3.67v13.54h-16.27v-13.54c0-2.61,1.74-3.48,4.04-3.67l.87-.06v-2.17h-16.46v2.17l.93.06c2.3.13,4.04,1.06,4.04,3.67v31.68c0,2.61-1.74,3.54-4.04,3.66l-.93.06v2.17h16.46v-2.17l-.87-.06c-2.3-.19-4.04-1.05-4.04-3.66v-14.78h16.27v14.78c0,2.61-1.74,3.54-4.04,3.66l-.93.06v2.17h16.46v-2.17l-.87-.06c-2.3-.19-4.04-1.05-4.04-3.66v-31.68c0-2.61,1.74-3.48,4.04-3.67l.87-.06v-2.17h-16.46"/>
        <path class="cls-1" d="M140.01,23.6v2.05l1.24.06c1.92.13,3.11,1.06,3.11,3.67v19.13c0,2.61-1.31,3.54-3.42,3.67l-.93.06v2.11h14.72v-2.11l-.87-.06c-2.11-.13-3.42-1.06-3.42-3.67v-10.19c.13-7.45,3.35-11.93,7.14-11.93,2.92,0,4.84,1.99,4.84,5.84v16.27c0,2.61-1.3,3.54-3.42,3.67l-.93.06v2.11h14.72v-2.11l-.87-.06c-2.11-.13-3.42-1.06-3.42-3.67v-16.96c0-4.84-2.98-8.88-8.88-8.88-4.16,0-7.76,2.48-9.19,6.89v-6.77"/>
        <path class="cls-1" d="M224.98,54.96c6.27,0,9.81-4.29,11.24-9.13l-2.67-.75c-1.24,3.35-3.42,5.96-7.76,5.96-5.03,0-8.45-4.78-8.45-12.36h19.32v-1.8c0-8.01-4.72-14.47-12.3-14.47-8.13,0-13.54,7.76-13.54,16.27s5.22,16.27,14.16,16.27M224.3,25.96c3.42,0,5.59,3.17,5.84,9.69h-12.67c.62-6.02,3.11-9.69,6.83-9.69"/>
        <path class="cls-1" d="M194.42,47.39c0,4.84,2.92,7.58,7.58,7.58,4.35,0,7.21-3.17,8.51-7.7l-2.24-.62c-.87,2.61-2.3,4.22-4.29,4.22-2.61,0-3.48-1.93-3.48-4.16v-20.12h8.51v-3.23h-8.51v-9.56h-3.11c-1.18,7.21-4.84,9.81-8.7,10.62v2.17h5.71"/>
        <path class="cls-1" d="M181.38,17.76c2.11,0,3.97-1.8,3.97-4.16,0-2.24-1.86-4.04-3.97-4.04s-3.97,1.8-3.97,4.04c0,2.36,1.8,4.16,3.97,4.16"/>
        <path class="cls-1" d="M178.52,29.37v19.13c0,2.61-1.3,3.54-3.42,3.67l-.93.06v2.11h14.72v-2.11l-.87-.06c-2.11-.12-3.42-1.06-3.42-3.67v-25.71l-10.75.81v2.05l1.55.06c1.92.06,3.11,1.06,3.11,3.67"/>
        <path class="cls-1" d="M252.49,54.96c4.1,0,7.27-2.11,8.64-5.71v5.09h10.37v-2.11l-.87-.06c-2.11-.12-3.42-1.06-3.42-3.67V10.06l-10.56.93v2.05l1.37.06c1.92.06,3.11,1.05,3.11,3.66v11.18c-1.37-3.48-4.54-5.53-8.64-5.53-8.14,0-12.73,7.76-12.73,16.27s4.59,16.27,12.73,16.27M253.55,25.96c4.6,0,7.58,4.97,7.58,12.73s-2.98,12.73-7.58,12.73c-4.35,0-7.21-4.91-7.21-12.73s2.86-12.73,7.21-12.73"/>
        <path class="cls-1" d="M344.96,75.73c-3.6,0-6.71,2.36-8.07,6.58v-6.33l-10.44.81v2.05l1.24.06c1.93.13,3.11,1.06,3.11,3.67v19.13c0,2.61-1.31,3.54-3.42,3.67l-.93.06v2.11h14.72v-2.11l-.87-.06c-2.11-.13-3.42-1.06-3.42-3.67v-10.43c.12-7.76,3.48-12.61,7.58-12.61.93,0,1.55.25,2.05.81-1.05.56-1.74,1.62-1.74,2.92,0,1.8,1.49,3.29,3.29,3.29s3.29-1.49,3.29-3.6c0-3.91-2.92-6.34-6.4-6.34"/>
        <path class="cls-1" d="M364.96,75.61c-8.13,0-13.54,7.76-13.54,16.27s5.22,16.27,14.16,16.27c6.27,0,9.81-4.29,11.24-9.13l-2.67-.75c-1.24,3.35-3.42,5.96-7.76,5.96-5.03,0-8.45-4.78-8.45-12.36h19.32v-1.8c0-8.01-4.72-14.47-12.3-14.47M358.06,88.84c.62-6.02,3.11-9.69,6.83-9.69,3.42,0,5.59,3.17,5.84,9.69"/>
        <path class="cls-1" d="M321.17,102.38v-16.21c0-6.64-4.16-10.56-11.18-10.56-6.02,0-11.37,3.98-11.37,8.51,0,1.93,1.43,3.42,3.29,3.42s3.29-1.49,3.29-3.29c0-1.24-.68-2.36-1.68-2.92,1.12-1.55,3.1-2.48,5.53-2.48,3.79,0,6.09,2.86,6.09,7.64v1.43l-9.19,3.79c-6.15,2.55-8.26,4.78-8.26,8.82,0,4.66,3.35,7.64,8.64,7.64,3.97,0,7.27-2.42,8.76-6.09v.93c0,3.17,2.24,5.09,5.96,5.09,1.49,0,2.67-.19,3.91-.56v-2.11c-2.61.31-3.79-.68-3.79-3.04M315.08,95.36c-.31,5.47-3.04,9.13-6.83,9.13-2.73,0-4.47-1.86-4.47-4.72,0-2.54,1.37-4.53,3.98-5.65l7.39-3.29"/>
        <path class="cls-1" d="M233.96,99.83c-.87,2.61-2.3,4.22-4.29,4.22-2.61,0-3.48-1.92-3.48-4.16v-20.13h8.51v-3.23h-8.51v-9.57h-3.11c-1.18,7.21-4.84,9.81-8.7,10.62v2.17h5.71v20.81c0,4.85,2.92,7.58,7.58,7.58,4.35,0,7.21-3.17,8.51-7.7"/>
        <path class="cls-1" d="M194.58,102.38v-16.21c0-6.64-4.16-10.56-11.18-10.56-6.02,0-11.37,3.98-11.37,8.51,0,1.93,1.43,3.42,3.29,3.42s3.29-1.49,3.29-3.29c0-1.24-.68-2.36-1.68-2.92,1.12-1.55,3.1-2.48,5.53-2.48,3.79,0,6.09,2.86,6.09,7.64v1.43l-9.19,3.79c-6.15,2.55-8.26,4.78-8.26,8.82,0,4.66,3.35,7.64,8.64,7.64,3.97,0,7.27-2.42,8.76-6.09v.93c0,3.17,2.24,5.09,5.96,5.09,1.49,0,2.67-.19,3.91-.56v-2.11c-2.61.31-3.79-.68-3.79-3.04M188.49,95.36c-.31,5.47-3.04,9.13-6.83,9.13-2.73,0-4.47-1.86-4.47-4.72,0-2.54,1.37-4.53,3.98-5.65l7.39-3.29"/>
        <path class="cls-1" d="M285.33,104.24c-5.03,0-8.45-4.78-8.45-12.36s3.35-12.61,8.39-12.61c2.24,0,3.97.74,5.03,2.11-.93.62-1.55,1.68-1.55,2.86,0,1.8,1.49,3.29,3.29,3.29s3.29-1.49,3.29-3.6c0-3.73-3.73-8.32-10.37-8.32-9.26,0-14.6,7.76-14.6,16.27s5.22,16.27,14.16,16.27c6.15,0,9.63-4.1,10.99-8.76l-2.67-.81c-1.18,3.17-3.29,5.65-7.51,5.65"/>
        <path class="cls-1" d="M210.29,101.7v-38.45l-10.56.93v2.05l1.37.06c1.93.06,3.11,1.06,3.11,3.67v31.74c0,2.61-1.3,3.54-3.42,3.67l-.93.06v2.11h14.72v-2.11l-.87-.06c-2.11-.13-3.42-1.06-3.42-3.67"/>
        <path class="cls-1" d="M264.71,101.7v-16.96c0-4.84-2.98-8.88-8.88-8.88-4.16,0-7.76,2.48-9.19,6.89v-19.5l-10.56.93v2.05l1.37.06c1.92.06,3.11,1.06,3.11,3.67v31.74c0,2.61-1.3,3.54-3.42,3.67l-.93.06v2.11h14.72v-2.11l-.87-.06c-2.11-.13-3.42-1.06-3.42-3.67v-10.19c.12-7.45,3.36-11.93,7.14-11.93,2.92,0,4.84,1.99,4.84,5.84v16.27c0,2.61-1.3,3.54-3.42,3.67l-.93.06v2.11h14.72v-2.11l-.87-.06c-2.11-.13-3.42-1.06-3.42-3.67"/>
        <path class="cls-1" d="M156.44,75.61c-8.14,0-13.54,7.76-13.54,16.27s5.22,16.27,14.16,16.27c6.27,0,9.81-4.29,11.24-9.13l-2.67-.75c-1.24,3.35-3.42,5.96-7.76,5.96-5.03,0-8.45-4.78-8.45-12.36h19.32v-1.8c0-8.01-4.72-14.47-12.3-14.47M149.55,88.84c.62-6.02,3.11-9.69,6.83-9.69,3.42,0,5.59,3.17,5.84,9.69"/>
      </g>
    </g>
  </g>
</svg>