<svg width="83" height="28" viewBox="0 0 83 28" fill="none" xmlns="http://www.w3.org/2000/svg">
<g id="Vector">
<path d="M5.07042 21.5381C5.30146 21.6763 5.56574 21.7512 5.83501 21.7546C6.31703 21.7546 6.5996 21.4881 6.5996 21.1051C6.5996 20.7221 6.38352 20.5389 5.93474 20.3391C5.48596 20.1393 5.02055 19.7896 5.02055 19.2733C5.02055 18.7571 5.48596 18.2409 6.18406 18.2409C6.44335 18.2342 6.69933 18.2925 6.93203 18.4074L6.79906 18.8071C6.60625 18.6972 6.3885 18.6389 6.16744 18.6405C5.68541 18.6405 5.50258 18.9403 5.50258 19.2067C5.50258 19.4732 5.71866 19.7396 6.20068 19.9561C6.6827 20.1726 7.065 20.5556 7.065 21.0718C7.065 21.588 6.63284 22.1542 5.81839 22.1542C5.51089 22.1559 5.20838 22.0809 4.93745 21.9377L5.07042 21.5381Z" fill="var(--fill-0, black)"/>
<path d="M9.65796 21.3549C9.65796 21.6546 9.67458 21.8878 9.6912 22.1043H9.25904V21.7046H9.24242C9.07454 21.996 8.76372 22.1742 8.42796 22.1709C7.9958 22.1709 7.56364 21.8878 7.56364 21.0052V19.3732H8.04567V20.9219C8.04567 21.4215 8.17864 21.7712 8.59418 21.7712C8.84849 21.7546 9.06789 21.583 9.14269 21.3382C9.17593 21.26 9.19422 21.175 9.19255 21.0885V19.3732H9.65796V21.3549Z" fill="var(--fill-0, black)"/>
<path d="M10.2896 22.1043C10.3062 21.9377 10.3062 21.638 10.3062 21.4215V18.1243H10.7882V19.7729C10.9528 19.4715 11.2752 19.29 11.6193 19.3066C12.2177 19.3066 12.6498 19.8562 12.6498 20.7054C12.6498 21.5547 12.1013 22.1709 11.5362 22.1709C11.2004 22.1759 10.8913 21.9877 10.7384 21.6879H10.7217V22.1043H10.2896ZM10.7882 21.0551C10.7849 21.1118 10.7915 21.1667 10.8048 21.2217C10.8614 21.5381 11.1339 21.7679 11.4531 21.7712C11.9185 21.7712 12.1678 21.3382 12.1678 20.7221C12.1678 20.106 11.9351 19.7063 11.4531 19.7063C11.1323 19.7229 10.8647 19.9577 10.8048 20.2725C10.7915 20.3374 10.7849 20.4057 10.7882 20.4723V21.0551Z" fill="var(--fill-0, black)"/>
<path d="M13.0487 21.6213C13.2283 21.7346 13.4344 21.7962 13.6471 21.8045C13.9795 21.8045 14.1458 21.6213 14.1458 21.3882C14.1458 21.1551 14.0128 21.0385 13.6804 20.872C13.3479 20.7054 12.9989 20.4224 12.9989 20.106C12.9989 19.7896 13.3479 19.3066 13.8964 19.3066C14.1125 19.31 14.3236 19.3666 14.5114 19.4732L14.3951 19.8229C14.2405 19.7263 14.0627 19.6747 13.8798 19.673C13.6804 19.6447 13.4959 19.7862 13.4676 19.9861C13.4659 20.0044 13.4643 20.021 13.4643 20.0393C13.4643 20.2558 13.5973 20.3557 13.9297 20.5056C14.2621 20.6555 14.5945 20.9386 14.5945 21.3382C14.5945 21.7379 14.2289 22.1542 13.6305 22.1542C13.3845 22.1592 13.1435 22.0959 12.9324 21.971L13.0487 21.6213Z" fill="var(--fill-0, black)"/>
<path d="M15.6417 18.6072V19.3732H16.3066V19.7396H15.6417V21.255C15.6417 21.6047 15.7581 21.7712 15.9908 21.7712L16.2567 21.7379V22.1043C16.1221 22.1426 15.9808 22.1592 15.8412 22.1542C15.6567 22.1609 15.4788 22.0959 15.3425 21.971C15.2095 21.8212 15.1597 21.588 15.1597 21.255V19.7396H14.7774V19.3732H15.1763V18.7238L15.6417 18.6072Z" fill="var(--fill-0, black)"/>
<path d="M18.0851 22.1043L18.0352 21.7712C17.8607 22.021 17.5748 22.1709 17.2706 22.1709C16.8584 22.1809 16.5143 21.8528 16.506 21.4398C16.506 21.4232 16.506 21.4065 16.506 21.3882C16.506 20.7054 17.0712 20.3724 18.002 20.3724V20.3058C18.002 20.0393 17.9355 19.673 17.4368 19.673C17.2124 19.6697 16.993 19.7329 16.8052 19.8562L16.6889 19.5398C16.9382 19.3832 17.2257 19.3033 17.5199 19.3066C18.2679 19.3066 18.484 19.8229 18.484 20.389V21.4715C18.4773 21.6829 18.489 21.8944 18.5172 22.1043H18.0851ZM18.002 20.7054C17.5698 20.6888 16.9714 20.7721 16.9714 21.3216C16.9432 21.5597 17.1144 21.7745 17.3504 21.8012C17.3687 21.8028 17.3853 21.8045 17.4036 21.8045C17.6778 21.8045 17.9172 21.6197 17.9853 21.3549C17.9986 21.3066 18.0053 21.255 18.002 21.205V20.7054Z" fill="var(--fill-0, black)"/>
<path d="M19.1156 20.106C19.1156 19.8062 19.099 19.5897 19.0824 19.3732H19.5145V19.7896H19.5311C19.6924 19.4898 20.0049 19.3033 20.3456 19.3066C20.7279 19.3066 21.2265 19.5564 21.2265 20.4057V22.1043H20.7445V20.4723C20.7445 20.0727 20.6115 19.7063 20.196 19.7063C19.9084 19.7213 19.6641 19.9244 19.5976 20.2059C19.576 20.2825 19.5644 20.3607 19.5644 20.439V22.1043H19.1156V20.106Z" fill="var(--fill-0, black)"/>
<path d="M23.6367 22.021C23.4222 22.1176 23.1895 22.1625 22.9552 22.1542C22.2072 22.1542 21.7086 21.6213 21.7086 20.7721C21.7086 19.9228 22.2238 19.3233 23.0549 19.3233C23.261 19.3166 23.4655 19.3566 23.6533 19.4399L23.5535 19.8229C23.4023 19.7379 23.2294 19.6963 23.0549 19.7063C22.4898 19.7063 22.1906 20.1892 22.1906 20.7388C22.1906 21.2883 22.5396 21.7712 23.0549 21.7712C23.2328 21.7729 23.4106 21.7329 23.5702 21.6546L23.6367 22.021Z" fill="var(--fill-0, black)"/>
<path d="M24.3015 20.822C24.3181 21.5381 24.7004 21.7879 25.1492 21.7879C25.3769 21.7912 25.6046 21.7462 25.8141 21.6546L25.8972 22.0043C25.6395 22.1126 25.362 22.1642 25.0827 22.1542C24.3015 22.1542 23.8361 21.6047 23.8361 20.7887C23.8361 19.9727 24.3015 19.3066 25.0162 19.3066C25.731 19.3066 26.0468 20.0393 26.0468 20.5722C26.0468 20.6888 26.0302 20.7554 26.0302 20.822H24.3015ZM25.5814 20.4723C25.5814 20.0893 25.4318 19.673 24.983 19.673C24.5342 19.673 24.3348 20.106 24.3015 20.4723H25.5814Z" fill="var(--fill-0, black)"/>
<path d="M28.0912 20.9219L27.7422 22.1043H27.2601L28.4236 18.2908H28.9722L30.1357 22.1043H29.6536L29.288 20.9219H28.0912ZM29.2049 20.5556L28.8724 19.4898C28.8059 19.24 28.7395 18.9902 28.6896 18.7404H28.673C28.6281 18.9936 28.5666 19.2434 28.4901 19.4898L28.1743 20.5556H29.2049Z" fill="var(--fill-0, black)"/>
<path d="M30.5013 22.1043C30.518 21.9377 30.518 21.638 30.518 21.4215V18.1243H31V19.7729H31.0166C31.1762 19.4732 31.492 19.2916 31.8311 19.3066C32.4461 19.3066 32.8782 19.8562 32.8616 20.7054C32.845 21.5547 32.3131 22.1709 31.7646 22.1709C31.4222 22.1825 31.1047 21.9944 30.9501 21.6879H30.9335V22.1043H30.5013ZM31 21.0551C30.9967 21.1118 31.0033 21.1667 31.0166 21.2217C31.0781 21.5331 31.3474 21.7612 31.6648 21.7712C32.1302 21.7712 32.3796 21.3382 32.3796 20.7221C32.3796 20.106 32.1469 19.7063 31.6648 19.7063C31.3474 19.7296 31.0831 19.9594 31.0166 20.2725C31.0166 20.3391 31 20.4057 31 20.4723V21.0551Z" fill="var(--fill-0, black)"/>
<path d="M35.4379 21.3549C35.4379 21.6546 35.4379 21.8878 35.4546 22.1043H35.039L35.0058 21.7046H34.9891C34.8246 21.991 34.5204 22.1675 34.1913 22.1709C33.7425 22.1709 33.327 21.8878 33.327 21.0052V19.3732H33.809V20.9219C33.809 21.4215 33.942 21.7712 34.3409 21.7712C34.6069 21.7645 34.8396 21.5914 34.9227 21.3382C34.9426 21.2566 34.9542 21.1734 34.9559 21.0885V19.3732H35.4379V21.3549Z" fill="var(--fill-0, black)"/>
<path d="M36.0031 21.6213C36.1842 21.7312 36.3903 21.7945 36.6014 21.8045C36.9339 21.8045 37.1001 21.6213 37.1001 21.3882C37.1001 21.1551 36.9671 21.0385 36.6347 20.872C36.3022 20.7054 35.9532 20.4224 35.9698 20.106C35.9864 19.7896 36.3189 19.3066 36.8508 19.3066C37.0668 19.305 37.2796 19.3616 37.4658 19.4732L37.3494 19.8229C37.1948 19.7263 37.017 19.6747 36.8341 19.673C36.6347 19.6447 36.4502 19.7862 36.4219 19.9861C36.4203 20.0044 36.4186 20.021 36.4186 20.0393C36.4186 20.2558 36.5516 20.3557 36.884 20.5056C37.2164 20.6555 37.5489 20.9386 37.5489 21.3382C37.5489 21.7379 37.1832 22.1542 36.5848 22.1542C36.3388 22.1592 36.0978 22.0959 35.8867 21.971L36.0031 21.6213Z" fill="var(--fill-0, black)"/>
<path d="M38.3135 20.822C38.3135 21.5381 38.7124 21.7879 39.1611 21.7879C39.3889 21.7895 39.6166 21.7446 39.826 21.6546L39.9091 22.0043C39.6515 22.1126 39.3739 22.1642 39.0947 22.1542C38.3135 22.1542 37.8481 21.6047 37.8481 20.7887C37.8481 19.9727 38.2968 19.3066 39.0282 19.3066C39.7595 19.3066 40.0421 20.0393 40.0421 20.5722V20.822H38.3135ZM39.5933 20.4723C39.5933 20.0893 39.4437 19.673 38.9783 19.673C38.5129 19.673 38.3467 20.106 38.3135 20.4723H39.5933Z" fill="var(--fill-0, black)"/>
<path d="M42.8844 22.1043L42.8511 21.7712H42.8345C42.6716 22.026 42.389 22.1775 42.0865 22.1709C41.6743 22.1892 41.3236 21.8695 41.3053 21.4565C41.3053 21.4332 41.3053 21.4115 41.3053 21.3882C41.3053 20.7054 41.8871 20.3724 42.8013 20.3724V20.3058C42.8013 20.0393 42.7348 19.673 42.2361 19.673C42.0134 19.673 41.794 19.7379 41.6045 19.8562L41.5048 19.5398C41.7475 19.3849 42.0317 19.3033 42.3192 19.3066C43.0672 19.3066 43.2833 19.8229 43.2833 20.389V21.4715C43.2833 21.6879 43.2999 21.9211 43.3165 22.1043H42.8844ZM42.8179 20.7054C42.3691 20.6888 41.7873 20.7721 41.7873 21.3216C41.7873 21.8711 41.9868 21.8045 42.2029 21.8045C42.4821 21.8128 42.7315 21.6263 42.8013 21.3549C42.8146 21.3066 42.8212 21.255 42.8179 21.205V20.7054Z" fill="var(--fill-0, black)"/>
<path d="M43.9149 20.106C43.9149 19.8062 43.9149 19.5897 43.8983 19.3732H44.3138L44.3471 19.7896H44.3637C44.5216 19.4865 44.8374 19.3 45.1781 19.3066C45.5604 19.3066 46.0425 19.5564 46.0425 20.4057V22.1043H45.5771V20.4723C45.5771 20.0727 45.4441 19.7063 45.0119 19.7063C44.7277 19.7229 44.49 19.9278 44.4302 20.2059C44.4086 20.2825 44.3969 20.3607 44.3969 20.439V22.1043H43.9149V20.106Z" fill="var(--fill-0, black)"/>
<path d="M48.8349 18.1243V21.4215C48.8349 21.638 48.8515 21.9211 48.8515 22.1043H48.436L48.4027 21.6713H48.3861C48.2398 21.986 47.919 22.1842 47.5716 22.1709C46.9733 22.1709 46.5079 21.6213 46.5079 20.7721C46.5079 19.9228 47.0231 19.3066 47.6215 19.3066C47.9224 19.2883 48.2066 19.4432 48.3528 19.7063V18.1243H48.8349ZM48.3528 20.4557C48.3545 20.389 48.3495 20.3208 48.3362 20.2558C48.288 19.9494 48.0304 19.718 47.7212 19.7063C47.2558 19.7063 46.9899 20.1726 46.9899 20.7554C46.9899 21.3382 47.2392 21.7712 47.7046 21.7712C48.0204 21.7662 48.288 21.5347 48.3362 21.2217C48.3495 21.1567 48.3562 21.0885 48.3528 21.0218V20.4557Z" fill="var(--fill-0, black)"/>
<path d="M53.439 20.439C53.4058 19.9228 53.3725 19.3066 53.3892 18.8404H53.3725C53.2562 19.2733 53.1066 19.7563 52.9404 20.2558L52.3254 22.0876H51.9763L51.4112 20.3058C51.245 19.7729 51.112 19.29 51.0123 18.8404H50.9957C50.9957 19.3066 50.9624 19.9228 50.9292 20.4723L50.8461 22.1043H50.3973L50.6466 18.2908H51.2284L51.8267 20.106C51.9664 20.5323 52.0827 20.9669 52.1758 21.4049H52.1924C52.2921 21.0052 52.4085 20.6055 52.5581 20.106L53.1731 18.2908H53.7548L53.9875 22.1043H53.5221L53.439 20.439Z" fill="var(--fill-0, black)"/>
<path d="M54.8851 20.822C54.8851 21.5381 55.284 21.7879 55.7328 21.7879C55.9605 21.7895 56.1882 21.7446 56.3977 21.6546L56.4808 22.0043C56.2231 22.1126 55.9456 22.1642 55.6663 22.1542C54.8685 22.1542 54.4197 21.6047 54.4197 20.7887C54.4197 19.9727 54.8685 19.3066 55.5998 19.3066C56.3312 19.3066 56.6137 20.0393 56.6137 20.5722C56.6187 20.6555 56.6137 20.7404 56.5971 20.822H54.8851ZM56.165 20.4723C56.165 20.0893 56.0154 19.673 55.55 19.673C55.0846 19.673 54.9183 20.106 54.8851 20.4723H56.165Z" fill="var(--fill-0, black)"/>
<path d="M57.0958 20.106C57.0958 19.8062 57.0791 19.5897 57.0791 19.3732H57.4947L57.5279 19.7896C57.6975 19.4898 58.0149 19.305 58.359 19.3066C58.7247 19.3066 59.2233 19.5564 59.2233 20.4057V22.1043H58.7579V20.4723C58.7579 20.0727 58.6249 19.7063 58.1928 19.7063C57.9069 19.7163 57.6659 19.9244 57.611 20.2059C57.5811 20.2791 57.5695 20.3591 57.5778 20.439V22.1043H57.0958V20.106Z" fill="var(--fill-0, black)"/>
<path d="M60.4367 18.6072V19.3732H61.1015V19.7396H60.4367V21.255C60.4367 21.6047 60.553 21.7712 60.7857 21.7712L61.0351 21.7379L61.0683 22.1043C60.9337 22.1426 60.7924 22.1592 60.6528 22.1542C60.4683 22.1625 60.2888 22.0976 60.1541 21.971C60.0212 21.8212 59.9713 21.588 59.9713 21.255V19.7396H59.5724V19.3732H59.9713V18.7238L60.4367 18.6072Z" fill="var(--fill-0, black)"/>
<path d="M62.8967 22.1043L62.8468 21.7712H62.8302C62.6673 22.026 62.3847 22.1775 62.0822 22.1709C61.67 22.1892 61.3193 21.8695 61.301 21.4565C61.301 21.4332 61.301 21.4115 61.301 21.3882C61.301 20.7054 61.8828 20.3724 62.8136 20.3724V20.3058C62.8136 20.0393 62.7305 19.673 62.2484 19.673C62.0191 19.673 61.7947 19.7363 61.6002 19.8562L61.5005 19.5398C61.7498 19.3832 62.0373 19.3033 62.3315 19.3066C63.0795 19.3066 63.279 19.8229 63.279 20.389V21.4715C63.279 21.6829 63.2939 21.8944 63.3288 22.1043H62.8967ZM62.8136 20.7054C62.3814 20.6888 61.783 20.7721 61.783 21.3216C61.783 21.8711 61.9825 21.8045 62.2152 21.8045C62.4894 21.8045 62.7288 21.6197 62.7969 21.3549C62.8102 21.3066 62.8169 21.255 62.8136 21.205V20.7054Z" fill="var(--fill-0, black)"/>
<path d="M63.9438 18.1243H64.4092V22.1043H63.9438V18.1243Z" fill="var(--fill-0, black)"/>
<path d="M66.6033 18.2908V19.9061H68.2156V18.2908H68.681V22.1043H68.2156V20.3224H66.6033V22.1043H66.1212V18.2908H66.6033Z" fill="var(--fill-0, black)"/>
<path d="M69.6616 20.822C69.6616 21.5381 70.0605 21.7879 70.5093 21.7879C70.737 21.7895 70.9648 21.7446 71.1742 21.6546L71.2573 22.0043C70.9947 22.1143 70.7104 22.1659 70.4262 22.1542C69.645 22.1542 69.1962 21.6047 69.1962 20.7887C69.1962 19.9727 69.645 19.3066 70.3764 19.3066C71.1077 19.3066 71.3903 20.0393 71.3903 20.5722C71.3953 20.6555 71.3903 20.7404 71.3736 20.822H69.6616ZM70.9249 20.4723C70.9415 20.0893 70.7753 19.673 70.3265 19.673C69.8777 19.673 69.6949 20.106 69.6616 20.4723H70.9249Z" fill="var(--fill-0, black)"/>
<path d="M73.2519 22.1043L73.2186 21.7712H73.202C73.0358 22.021 72.7549 22.1709 72.454 22.1709C72.0418 22.1892 71.6911 21.8695 71.6728 21.4565C71.6728 21.4332 71.6728 21.4115 71.6728 21.3882C71.6728 20.7054 72.2546 20.3724 73.1688 20.3724V20.3058C73.1688 20.0393 73.1023 19.673 72.6036 19.673C72.3792 19.6697 72.1598 19.7329 71.972 19.8562L71.8723 19.5398C72.115 19.3849 72.3992 19.3033 72.6867 19.3066C73.4347 19.3066 73.6508 19.8229 73.6508 20.389V21.4715C73.6441 21.683 73.6558 21.8944 73.684 22.1043H73.2519ZM73.1854 20.7054C72.7366 20.6888 72.1549 20.7721 72.1549 21.3216C72.1549 21.8711 72.3543 21.8045 72.5704 21.8045C72.848 21.8078 73.094 21.623 73.1688 21.3549C73.1688 21.3049 73.1854 21.255 73.1854 21.205V20.7054Z" fill="var(--fill-0, black)"/>
<path d="M74.299 18.1243H74.7811V22.1043H74.299V18.1243Z" fill="var(--fill-0, black)"/>
<path d="M76.0443 18.6072V19.3732H76.6925V19.7396H76.0443V21.255C76.0443 21.6047 76.144 21.7712 76.3767 21.7712L76.6427 21.7379V22.1043C76.513 22.1426 76.3784 22.1592 76.2438 22.1542C76.0543 22.1642 75.8698 22.0976 75.7285 21.971C75.5955 21.8212 75.5457 21.588 75.5457 21.255V19.7396H75.1467V19.3732H75.5457V18.7238L76.0443 18.6072Z" fill="var(--fill-0, black)"/>
<path d="M77.1081 18.1243H77.5735V19.7563H77.5901C77.6699 19.628 77.7779 19.5198 77.9059 19.4399C78.0455 19.3533 78.2068 19.3083 78.3713 19.3066C78.737 19.3066 79.2356 19.5564 79.2356 20.4224V22.1043H78.7536V20.4723C78.7536 20.0727 78.6206 19.7063 78.2051 19.7063C77.9209 19.718 77.6799 19.9145 77.6067 20.1892C77.5868 20.2658 77.5751 20.3441 77.5735 20.4224V22.1043H77.1081V18.1243Z" fill="var(--fill-0, black)"/>
<path d="M17.9853 27.3665C18.2164 27.5047 18.4807 27.5796 18.7499 27.5829C19.2319 27.5829 19.5145 27.3165 19.5145 26.9335C19.5145 26.5505 19.2984 26.3673 18.8497 26.1675C18.4009 25.9676 17.9355 25.6179 17.9355 25.1017C17.9355 24.5855 18.4009 24.0693 19.099 24.0693C19.3583 24.0609 19.6159 24.1175 19.8469 24.2358L19.714 24.6354C19.5212 24.5255 19.3034 24.4673 19.0824 24.4689C18.6003 24.4689 18.4175 24.7687 18.4175 25.0351C18.4175 25.3015 18.6336 25.568 19.1156 25.7845C19.5976 26.0009 19.9799 26.384 19.9799 26.9002C19.9799 27.4164 19.5478 27.9826 18.7333 27.9826C18.4258 27.9843 18.1233 27.9093 17.8524 27.7661L17.9853 27.3665Z" fill="var(--fill-0, black)"/>
<path d="M20.811 26.6504C20.8276 27.3665 21.2099 27.6162 21.6587 27.6162C21.8881 27.6212 22.1141 27.5763 22.3236 27.483L22.4067 27.8327C22.149 27.941 21.8714 27.9926 21.5922 27.9826C20.811 27.9826 20.3456 27.4331 20.3456 26.6171C20.3456 25.8011 20.811 25.135 21.5257 25.135C22.2404 25.135 22.5563 25.8677 22.5563 26.4006C22.5563 26.5172 22.5396 26.5838 22.5396 26.6504H20.811ZM22.0909 26.3007C22.0909 25.9177 21.9413 25.5014 21.4925 25.5014C21.0437 25.5014 20.8442 25.9343 20.811 26.3007H22.0909Z" fill="var(--fill-0, black)"/>
<path d="M23.0217 26.0009C23.0217 25.7179 23.0217 25.4348 23.005 25.2016H23.4206L23.4538 25.7012H23.4704C23.5569 25.3815 23.8378 25.1517 24.1685 25.135H24.2849V25.6013H24.1519C23.8195 25.6013 23.5868 25.8677 23.5203 26.2174C23.5053 26.294 23.5004 26.3723 23.5037 26.4506V27.9326H23.0217V26.0009Z" fill="var(--fill-0, black)"/>
<path d="M24.983 25.2016L25.465 26.7337C25.5481 26.9668 25.598 27.1999 25.6645 27.4331H25.6811C25.731 27.1999 25.7974 26.9668 25.8639 26.7337L26.346 25.2016H26.8446L25.8639 27.9326H25.4152L24.4843 25.2016H24.983Z" fill="var(--fill-0, black)"/>
<path d="M27.7089 24.4523C27.7189 24.6088 27.5992 24.742 27.4446 24.752C27.433 24.752 27.4214 24.752 27.4097 24.752C27.2535 24.752 27.1272 24.6255 27.1272 24.4689C27.1272 24.4639 27.1272 24.4573 27.1272 24.4523C27.1172 24.2874 27.2435 24.1459 27.4097 24.1359C27.4147 24.1359 27.4214 24.1359 27.4264 24.1359C27.5826 24.1359 27.7106 24.2608 27.7106 24.4173C27.7106 24.429 27.7106 24.4406 27.7089 24.4523ZM27.177 27.9326V25.2016H27.6591V27.9326H27.177Z" fill="var(--fill-0, black)"/>
<path d="M30.0858 27.8494C29.8714 27.946 29.6387 27.9909 29.4043 27.9826C28.6564 27.9826 28.1411 27.4497 28.1411 26.6004C28.1411 25.7512 28.673 25.1517 29.504 25.1517C29.7102 25.145 29.9146 25.185 30.1024 25.2682L30.0027 25.6512C29.8514 25.5663 29.6786 25.5247 29.504 25.5347C28.9223 25.5347 28.6397 26.0176 28.6397 26.5671C28.6397 27.1167 28.9888 27.5996 29.4874 27.5996C29.6719 27.6046 29.8531 27.5646 30.0193 27.483L30.0858 27.8494Z" fill="var(--fill-0, black)"/>
<path d="M30.7673 26.6504C30.7673 27.3665 31.1662 27.6162 31.615 27.6162C31.8427 27.6179 32.0704 27.5729 32.2798 27.483L32.3629 27.8327C32.1053 27.941 31.8277 27.9926 31.5485 27.9826C30.7507 27.9826 30.3019 27.4331 30.3019 26.6171C30.3019 25.8011 30.7507 25.135 31.482 25.135C32.2134 25.135 32.4959 25.8677 32.4959 26.4006C32.5009 26.4839 32.4959 26.5688 32.4793 26.6504H30.7673ZM32.0471 26.3007C32.0471 25.9177 31.8975 25.5014 31.4321 25.5014C30.9667 25.5014 30.8005 25.9343 30.7673 26.3007H32.0471Z" fill="var(--fill-0, black)"/>
<path d="M32.9115 27.4497C33.091 27.563 33.2971 27.6246 33.5098 27.6329C33.8256 27.6329 33.9919 27.4497 33.9919 27.2166C33.9919 26.9834 33.8755 26.8669 33.5431 26.7004C33.2106 26.5338 32.8616 26.2507 32.8616 25.9343C32.8616 25.6179 33.2106 25.135 33.7425 25.135C33.9586 25.1334 34.1714 25.19 34.3575 25.3015L34.2412 25.6512C34.0932 25.5547 33.9204 25.503 33.7425 25.5014C33.5431 25.4731 33.3586 25.6146 33.3303 25.8144C33.3287 25.8328 33.327 25.8494 33.327 25.8677C33.327 26.0842 33.46 26.1841 33.7924 26.334C34.1248 26.4839 34.4573 26.767 34.4573 27.1666C34.4573 27.5663 34.075 27.9826 33.4932 27.9826C33.2472 27.9893 33.0062 27.926 32.7951 27.7994L32.9115 27.4497Z" fill="var(--fill-0, black)"/>
<path d="M36.5516 26.7503L36.1859 27.9326H35.7039L36.884 24.1192H37.4325L38.596 27.9326H38.0974L37.7483 26.7503H36.5516ZM37.6486 26.384L37.3328 25.3182C37.2563 25.0717 37.1948 24.8219 37.1499 24.5688H37.1333C37.0835 24.8186 37.017 25.0684 36.9505 25.3182L36.6347 26.384H37.6486Z" fill="var(--fill-0, black)"/>
<path d="M41.1059 23.9527V27.2499C41.1059 27.4664 41.1059 27.7495 41.1225 27.9326H40.707L40.6737 27.4997H40.6571C40.5108 27.8144 40.19 28.0126 39.8426 27.9993C39.2443 27.9993 38.7789 27.4497 38.7789 26.6004C38.7789 25.7512 39.2941 25.135 39.8925 25.135C40.1884 25.1184 40.4659 25.2749 40.6072 25.5347H40.6238V23.9527H41.1059ZM40.6238 26.284C40.6255 26.2174 40.6205 26.1492 40.6072 26.0842C40.5524 25.7745 40.2897 25.5463 39.9756 25.5347C39.5102 25.5347 39.2609 26.0009 39.2609 26.5838C39.2609 27.1666 39.4936 27.5996 39.9756 27.5996C40.2914 27.5946 40.559 27.3631 40.6072 27.0501C40.6205 26.9851 40.6272 26.9168 40.6238 26.8502V26.284Z" fill="var(--fill-0, black)"/>
<path d="M41.7707 25.9343C41.7707 25.6346 41.7541 25.4181 41.7375 25.2016H42.153L42.1863 25.6013H42.2029C42.3508 25.3065 42.655 25.125 42.9841 25.135C43.3082 25.1334 43.5974 25.3415 43.6988 25.6512C43.7769 25.518 43.8783 25.3981 43.998 25.3015C44.1543 25.1916 44.3404 25.1334 44.5299 25.135C44.8956 25.135 45.361 25.3848 45.361 26.2674V27.9326H44.8956V26.334C44.8956 25.8677 44.746 25.5347 44.3637 25.5347C44.1127 25.553 43.9016 25.7262 43.8318 25.9676C43.8118 26.0492 43.8019 26.1325 43.7986 26.2174V27.9326H43.3331V26.2507C43.3331 25.8511 43.1836 25.5347 42.8179 25.5347C42.5469 25.553 42.3209 25.7512 42.2694 26.0176C42.2395 26.0975 42.2278 26.1825 42.2361 26.2674V27.9326H41.7707V25.9343Z" fill="var(--fill-0, black)"/>
<path d="M46.5411 24.4523C46.561 24.5988 46.458 24.732 46.3134 24.752C46.2901 24.7553 46.2652 24.7553 46.2419 24.752C46.0857 24.752 45.9594 24.6255 45.9594 24.4689C45.9594 24.4639 45.9594 24.4573 45.9594 24.4523C45.9494 24.2874 46.0757 24.1459 46.2419 24.1359C46.2469 24.1359 46.2535 24.1359 46.2585 24.1359C46.4148 24.1359 46.5428 24.2608 46.5428 24.4173C46.5428 24.429 46.5428 24.4406 46.5411 24.4523ZM46.0258 27.9326V25.2016H46.4912V27.9326H46.0258Z" fill="var(--fill-0, black)"/>
<path d="M47.1561 25.9343C47.1561 25.6346 47.1561 25.4181 47.1395 25.2016H47.555L47.5883 25.6179H47.6049C47.7628 25.3149 48.0786 25.1284 48.4193 25.135C48.8016 25.135 49.2837 25.3848 49.2837 26.2341V27.9326H48.8182V26.3007C48.8182 25.901 48.6853 25.5347 48.2531 25.5347C47.9672 25.5447 47.7262 25.7528 47.6714 26.0343C47.6498 26.1109 47.6381 26.1891 47.6381 26.2674V27.9326H47.1561V25.9343Z" fill="var(--fill-0, black)"/>
<path d="M50.4804 24.4523C50.4904 24.6088 50.3707 24.742 50.2161 24.752C50.2045 24.752 50.1929 24.752 50.1812 24.752C50.025 24.752 49.8986 24.6255 49.8986 24.4689C49.8986 24.4639 49.8986 24.4573 49.8986 24.4523C49.8804 24.2974 49.9917 24.1558 50.1463 24.1375C50.1579 24.1375 50.1696 24.1359 50.1812 24.1359C50.3458 24.1359 50.4804 24.2691 50.4804 24.4356C50.4804 24.4406 50.4804 24.4473 50.4804 24.4523ZM49.9485 27.9326V25.2016H50.4305V27.9326H49.9485Z" fill="var(--fill-0, black)"/>
<path d="M51.0123 27.4497C51.1918 27.563 51.3979 27.6246 51.6107 27.6329C51.9431 27.6329 52.1093 27.4497 52.1093 27.2166C52.1093 26.9834 51.9763 26.8669 51.6439 26.7004C51.3115 26.5338 50.9624 26.2507 50.9624 25.9343C50.9624 25.6179 51.3115 25.135 51.86 25.135C52.0761 25.1383 52.2872 25.195 52.475 25.3015L52.342 25.6512C52.1941 25.5513 52.0212 25.4997 51.8434 25.5014C51.6439 25.4731 51.4594 25.6146 51.4312 25.8144C51.4295 25.8328 51.4278 25.8494 51.4278 25.8677C51.4278 26.0842 51.5608 26.1841 51.8932 26.334C52.2257 26.4839 52.5581 26.767 52.5581 27.1666C52.5581 27.5663 52.1924 27.9826 51.594 27.9826C51.348 27.9893 51.107 27.926 50.8959 27.7994L51.0123 27.4497Z" fill="var(--fill-0, black)"/>
<path d="M53.6219 24.4356V25.2016H54.2867V25.568H53.6219V27.0834C53.6219 27.4331 53.7382 27.5996 53.9709 27.5996L54.2369 27.5663V27.9326C54.1022 27.9709 53.9609 27.9876 53.8213 27.9826C53.6368 27.9893 53.459 27.9243 53.3227 27.7994C53.1897 27.6495 53.1398 27.4164 53.1398 27.0834V25.568H52.7409V25.2016H53.1398V24.5522L53.6219 24.4356Z" fill="var(--fill-0, black)"/>
<path d="M54.6856 26.0009C54.6856 25.7179 54.6856 25.4348 54.669 25.2016H55.0846L55.1178 25.7012H55.1344C55.2209 25.3815 55.5018 25.1517 55.8325 25.135H55.9489V25.6013H55.8159C55.4835 25.6013 55.2508 25.8677 55.1843 26.2174C55.1693 26.294 55.1643 26.3723 55.1677 26.4506V27.9326H54.6856V26.0009Z" fill="var(--fill-0, black)"/>
<path d="M57.6609 27.9326L57.6277 27.5996H57.611C57.4481 27.8544 57.1656 28.0059 56.8631 27.9992C56.4508 28.0176 56.1001 27.6978 56.0819 27.2849C56.0819 27.2615 56.0819 27.2399 56.0819 27.2166C56.0819 26.5338 56.6636 26.2008 57.5778 26.2008V26.1342C57.5778 25.8677 57.5113 25.5014 57.0127 25.5014C56.7883 25.498 56.5689 25.5613 56.381 25.6845L56.2813 25.3682C56.524 25.2133 56.8082 25.1317 57.0958 25.135C57.8437 25.135 58.0598 25.6512 58.0598 26.2174V27.2998C58.0598 27.5163 58.0764 27.7495 58.0931 27.9326H57.6609ZM57.5944 26.5338C57.1456 26.5172 56.5639 26.6004 56.5639 27.15C56.5639 27.6995 56.7633 27.6329 56.9794 27.6329C57.257 27.6362 57.503 27.4514 57.5778 27.1833C57.5911 27.135 57.5977 27.0834 57.5944 27.0334V26.5338Z" fill="var(--fill-0, black)"/>
<path d="M59.2566 24.4356V25.2016H59.9048V25.568H59.2566V27.0834C59.2566 27.4331 59.3563 27.5996 59.6056 27.5996L59.8549 27.5663V27.9326C59.7253 27.9726 59.5907 27.9893 59.456 27.9826C59.2715 27.9959 59.0903 27.9293 58.9574 27.7994C58.8244 27.6495 58.7745 27.4164 58.7745 27.0834V25.568H58.3756V25.2016H58.7745V24.5522L59.2566 24.4356Z" fill="var(--fill-0, black)"/>
<path d="M60.8522 24.4523C60.8622 24.6088 60.7425 24.742 60.5879 24.752C60.5763 24.752 60.5647 24.752 60.553 24.752C60.3968 24.752 60.2705 24.6255 60.2705 24.4689C60.2705 24.4639 60.2705 24.4573 60.2705 24.4523C60.2522 24.2974 60.3636 24.1558 60.5181 24.1375C60.5298 24.1375 60.5414 24.1359 60.553 24.1359C60.7176 24.1359 60.8522 24.2691 60.8522 24.4356C60.8522 24.4406 60.8522 24.4473 60.8522 24.4523ZM60.3203 27.9326V25.2016H60.8024V27.9326H60.3203Z" fill="var(--fill-0, black)"/>
<path d="M63.6945 26.5505C63.6945 27.5829 63.0629 27.9993 62.4811 27.9993C61.8994 27.9993 61.2844 27.483 61.2844 26.5838C61.2844 25.6846 61.8495 25.135 62.5144 25.135C63.1792 25.135 63.6945 25.6846 63.6945 26.5505ZM61.7664 26.5671C61.7664 27.1333 62.0324 27.6329 62.4978 27.6329C62.9632 27.6329 63.2125 27.1167 63.2125 26.5671C63.2125 26.0176 63.0296 25.5014 62.4978 25.5014C61.9659 25.5014 61.7664 26.0842 61.7664 26.5671Z" fill="var(--fill-0, black)"/>
<path d="M64.1932 25.9343C64.1932 25.6346 64.1765 25.4181 64.1599 25.2016H64.5921V25.6179H64.6087C64.7699 25.3182 65.0824 25.1317 65.4231 25.135C65.8054 25.135 66.3041 25.3848 66.3041 26.2341V27.9326H65.8221V26.3007C65.8221 25.901 65.6891 25.5347 65.2736 25.5347C64.986 25.5497 64.7417 25.7528 64.6752 26.0343C64.6536 26.1109 64.6419 26.1891 64.6419 26.2674V27.9326H64.1765L64.1932 25.9343Z" fill="var(--fill-0, black)"/>
<path d="M40.3745 0.172886C40.5191 0.111271 40.6687 0.0663094 40.8233 0.0396653H44.4634C44.9288 0.0396653 45.1116 0.256148 45.0618 0.722419L43.7653 10.4974C43.5825 11.7963 43.4163 13.0952 43.25 14.3775C43.1836 14.7771 43.1337 15.1768 43.6157 15.4099L43.5825 15.4932C43.4761 15.5365 43.3647 15.5648 43.25 15.5765H40.3745C39.7761 15.5765 39.5933 15.31 39.693 14.7105L41.2388 5.23525C41.2521 5.13201 41.2355 5.02876 41.189 4.93551L40.5075 6.08453L35.1886 15.2434C35.0922 15.4832 34.8462 15.6264 34.5902 15.5931C33.942 15.5598 33.2771 15.5765 32.5458 15.5765L33.2938 4.96881L33.2273 4.93551C33.1508 5.05207 33.0843 5.1753 33.0278 5.30186L28.54 14.3109C28.2574 14.8604 28.2907 15.0436 28.8226 15.4766C28.7012 15.5298 28.5716 15.5631 28.4403 15.5765H25.7975C25.0495 15.5765 24.8833 15.2934 25.2323 14.6273L27.925 9.48165L32.0804 1.605C32.21 1.37187 32.2998 1.11875 32.3463 0.855639C32.3796 0.705766 32.2466 0.522589 32.1801 0.356063L32.0638 0.156233C32.1352 0.0979492 32.2217 0.0579831 32.3131 0.0396653H35.7205C36.3022 0.0563179 36.4518 0.189538 36.4186 0.789029C36.3189 3.02047 36.1859 5.26856 36.0695 7.5C36.0313 8.09283 36.0247 8.68732 36.0529 9.28182C36.3355 8.76559 36.6347 8.24936 36.9339 7.73313C38.0974 5.70152 39.2609 3.66992 40.4078 1.63831C40.5075 1.47178 40.574 1.32191 40.6571 1.15538C40.7402 0.988859 40.9064 0.455978 40.3745 0.172886Z" fill="var(--fill-0, black)"/>
<path d="M55.2009 8.23271H53.5886C52.608 8.23271 51.6273 8.24936 50.6466 8.23271C50.4422 8.20107 50.2477 8.33096 50.1978 8.53245C49.4499 10.4975 48.6687 12.4458 47.9207 14.3941C47.7212 14.9104 47.7711 15.0935 48.303 15.4766C48.1584 15.5265 48.0071 15.5598 47.8542 15.5765H44.7958C43.998 15.5765 43.865 15.3933 44.1476 14.6606L48.1866 4.50254C48.5855 3.52004 48.9678 2.5542 49.3501 1.5717C49.4565 1.34023 49.5247 1.0921 49.5496 0.838986C49.5363 0.670796 49.4914 0.507601 49.4166 0.356063C49.4 0.272801 49.3335 0.172886 49.3501 0.13958C49.405 0.0779661 49.4831 0.0413306 49.5662 0.0396653H52.8407C53.2562 0.0396653 53.4058 0.289453 53.2396 0.722419C52.824 1.82149 52.3919 2.92055 51.9597 4.01962L51.2949 5.76813H55.7993C56.0652 5.76813 56.2148 5.70152 56.3146 5.43508C56.8132 4.13619 57.3451 2.85394 57.8437 1.55504C57.9933 1.12208 58.3091 0.672461 57.8271 0.239496C57.8105 0.239496 57.8936 0.0563179 57.9601 0.0396653C58.0548 0.0030298 58.1579 -0.00862697 58.2593 0.0063603H61.0184C61.8329 0.0230128 61.9492 0.172886 61.6501 0.922249L57.611 11.2968C57.2121 12.3459 56.7966 13.3783 56.3977 14.4108C56.2647 14.7605 56.2314 15.0935 56.5971 15.3267C56.647 15.36 56.647 15.4266 56.6802 15.4766C56.6038 15.5248 56.519 15.5582 56.4309 15.5765H53.2728C52.4916 15.5765 52.3586 15.3766 52.6412 14.6606L53.8878 11.5299C54.32 10.4475 54.7355 9.38173 55.2009 8.23271Z" fill="var(--fill-0, black)"/>
<path d="M81.9449 15.4432C81.807 15.5049 81.6624 15.5498 81.5128 15.5765H78.7204C78.1552 15.5765 77.9558 15.36 78.0056 14.7938L78.255 11.9962C78.2633 11.9246 78.2633 11.8513 78.255 11.7797L78.1885 11.7297H73.3849C73.2552 11.7564 73.1422 11.8346 73.069 11.9462C72.4374 12.7788 71.8058 13.6281 71.1908 14.4774C70.8916 14.8771 70.9415 15.0769 71.3736 15.3267C71.4235 15.36 71.4401 15.4099 71.49 15.4599C71.5399 15.5099 71.3736 15.5765 71.3238 15.5765H68.0327C67.5341 15.5765 67.3679 15.31 67.6172 14.8771C67.8632 14.4907 68.1291 14.1177 68.415 13.7613L77.6233 1.72157C77.7513 1.54672 77.8677 1.36188 77.9724 1.17204C78.2383 0.705766 78.2217 0.572546 77.7896 0.156233C77.9109 0.10128 78.0405 0.0629789 78.1718 0.0396653H82.3605C82.8591 0.0396653 83.042 0.222843 82.9921 0.722419C82.8757 1.95471 82.7261 3.18699 82.5932 4.41928C82.294 7.08368 81.9782 9.73144 81.679 12.3958C81.6125 13.0952 81.5294 13.7947 81.4463 14.4941C81.413 14.8604 81.413 15.2268 81.9449 15.4432ZM79.2522 3.43678L79.1691 3.40347C77.7397 5.38513 76.3269 7.36677 74.8808 9.39838H78.604L79.2522 3.43678Z" fill="var(--fill-0, black)"/>
<path d="M24.7503 15.5265C24.6356 15.5515 24.5193 15.5681 24.4012 15.5765H21.7584C21.0603 15.5598 20.8775 15.3433 20.944 14.6439C21.0105 13.9445 21.1268 12.8455 21.2099 11.9296C21.2099 11.8563 21.2049 11.7847 21.1933 11.7131H16.506C16.2766 11.6998 16.0589 11.8147 15.9409 12.0128C15.3591 12.8288 14.7441 13.6281 14.1458 14.4441C13.8133 14.9104 13.8964 15.1602 14.5114 15.4266C14.3618 15.4932 14.2787 15.5765 14.179 15.5765H10.8879C10.5057 15.5765 10.3561 15.3433 10.5057 14.977C10.5904 14.7788 10.7018 14.594 10.8381 14.4274L20.545 1.73822C20.7146 1.51175 20.8642 1.27195 20.9938 1.02216C21.1434 0.722419 21.16 0.422673 20.6614 0.206191C20.791 0.131254 20.9307 0.0746356 21.0769 0.0396653H25.332C25.7975 0.0396653 25.9803 0.222843 25.9304 0.722419C25.7974 2.02132 25.6479 3.32021 25.4983 4.61911C25.1825 7.48334 24.85 10.3476 24.5342 13.1952L24.3846 14.4274C24.3514 14.8105 24.3348 15.1935 24.7835 15.4099L24.7503 15.5265ZM17.8191 9.39838H21.5423C21.7584 7.38343 21.9745 5.40178 22.2072 3.40347L22.1075 3.37017L17.8191 9.39838Z" fill="var(--fill-0, black)"/>
<path d="M15.3259 0.0563179C15.0599 0.722419 14.8272 1.37187 14.5447 1.97136C14.3685 2.34271 13.9912 2.57751 13.5806 2.57085L11.0542 2.62081H10.1234C9.01304 2.58417 8.08224 3.4551 8.04567 4.56749C8.04567 4.56749 8.04567 4.56749 8.04567 4.56915C7.9958 5.05207 8.1454 5.45173 8.6108 5.63491L10.7716 6.50084C11.0708 6.61741 11.37 6.71733 11.6692 6.85055C12.7496 7.36677 13.1651 8.09949 12.9324 9.26516C12.6166 10.9304 11.985 12.4791 10.8713 13.778C9.96213 14.907 8.59584 15.5681 7.14811 15.5765C4.98731 15.6098 2.82651 15.5931 0.665716 15.5765C0.000854949 15.5765 -0.132117 15.3433 0.117206 14.7272C0.366528 14.111 0.748823 13.1119 1.08125 12.3126C1.16769 12.171 1.27406 12.0411 1.39706 11.9296C1.53003 12.8288 1.61314 12.9787 2.59381 13.012C3.84043 13.0453 5.08704 13.0286 6.35027 13.012C7.61351 12.9953 8.82688 11.6964 8.79364 10.4641C8.77702 9.93126 8.54431 9.5316 8.06229 9.33177C7.58027 9.13194 6.96527 8.91546 6.41676 8.73228C5.86825 8.5491 5.63555 8.49915 5.25325 8.33262C4.13961 7.86635 3.5911 6.80059 3.92353 5.65156C4.34572 4.16949 5.09036 2.79899 6.10095 1.63831C6.99851 0.589199 8.26175 0.122928 9.59147 0.0729704C11.4697 -0.0102922 13.3479 0.0563179 15.3259 0.0563179Z" fill="var(--fill-0, black)"/>
<path d="M58.3922 11.9296C58.5086 12.9787 58.8743 12.9953 59.5557 13.012C60.8356 13.0453 62.1155 13.0286 63.3787 13.012C64.6419 12.9953 65.8387 11.6631 65.7722 10.4142C65.7556 9.98122 65.5894 9.59821 65.1904 9.39838C64.7915 9.19855 64.3261 9.03203 63.8773 8.8655C63.4286 8.69898 62.9299 8.59906 62.4645 8.41588C61.1182 7.93296 60.553 6.81724 60.9686 5.45174C61.4074 4.08123 62.1071 2.80898 63.0296 1.70492C63.9604 0.589199 65.2735 0.122928 66.6698 0.0563179C68.5147 -0.0102922 70.3764 0.0396653 72.3543 0.0396653C72.0219 0.789029 71.7892 1.50509 71.4069 2.15454C71.0246 2.80398 70.4927 2.62081 69.9608 2.62081H67.1352C65.9717 2.62081 65.1572 3.37017 65.0408 4.53585C64.991 5.05207 65.1406 5.45174 65.6226 5.66822L67.0853 6.26771C67.6338 6.48419 68.2156 6.63406 68.7641 6.9005C69.778 7.41673 70.1603 8.14944 69.9276 9.26516C69.5951 10.997 68.9469 12.579 67.7668 13.9112C66.8842 14.9353 65.6093 15.5348 64.2596 15.5598C62.0656 15.6098 59.8549 15.5931 57.6609 15.5765C57.0127 15.5765 56.8631 15.3433 57.1124 14.7272C57.3617 14.111 57.744 13.1119 58.0764 12.3126C58.1263 12.1794 58.2593 12.0961 58.3922 11.9296Z" fill="var(--fill-0, black)"/>
</g>
</svg>
